<svg width="77" height="42" viewBox="0 0 77 42" fill="none" xmlns="http://www.w3.org/2000/svg">
<mask id="path-1-outside-1_413_197" maskUnits="userSpaceOnUse" x="0" y="0" width="77" height="42" fill="black">
<rect fill="white" width="77" height="42"/>
<path d="M31.4428 5.56647C31.165 5.10405 30.8872 4.64162 30.54 4.23699C30.1928 3.83237 29.8456 3.48555 29.3594 3.13873C28.5261 2.44509 27.415 1.92485 26.3039 1.57803C25.7483 1.40462 25.1928 1.28902 24.6372 1.17341C24.4289 1.17341 24.29 1.17341 24.1511 1.11561H23.9428L23.7344 1.0578H23.3178L22.8316 1C22.2761 1 21.6511 0.999999 21.0261 1.0578C20.8872 1.0578 20.7483 1.11561 20.6094 1.11561C20.4705 1.11561 20.3316 1.11561 20.1928 1.17341L19.7066 1.23121L19.29 1.34682C18.7344 1.46243 18.1789 1.57803 17.6233 1.75145C17.3455 1.86705 17.0677 1.98266 16.79 2.04046C16.6511 2.09827 16.5122 2.15607 16.3733 2.21387C16.3039 2.27167 16.165 2.32948 16.0261 2.38728C14.9844 2.79191 13.9427 3.31214 12.9705 3.83237C11.0955 4.98844 9.35939 6.26011 7.76217 7.7052C6.99828 8.39884 6.30383 9.15029 5.60939 9.95954C4.91494 10.711 4.28994 11.5202 3.73438 12.3873C3.10938 13.2543 2.62327 14.1214 2.2066 15.0462C1.78993 15.9133 1.44271 16.896 1.23438 17.8786C1.02604 18.8035 0.956597 19.8439 1.02604 20.8266C1.09549 21.3468 1.23438 21.8092 1.37326 22.3295C1.51215 22.7919 1.78993 23.2543 2.06771 23.7168L2.27604 24.0636C2.34549 24.1792 2.41493 24.2948 2.48438 24.3526C2.55382 24.4104 2.55382 24.4682 2.62327 24.526L2.90105 24.8728C2.97049 24.8728 2.97049 24.9306 3.03994 24.9884L3.31771 25.2775C3.4566 25.3931 3.52605 25.4509 3.66494 25.5665L3.80383 25.6821C3.87327 25.7399 3.94272 25.7977 3.94272 25.8555L4.28994 26.0867C4.42883 26.1445 4.56772 26.2601 4.63716 26.3179L4.8455 26.4335C4.91494 26.4913 4.98438 26.4913 5.05383 26.5491C5.26216 26.6647 5.53994 26.8382 5.74828 26.9538C6.30383 27.185 6.78994 27.4162 7.3455 27.6474C8.38717 28.052 9.49828 28.3988 10.54 28.7457C11.6511 29.0347 12.7622 29.3237 13.8039 29.6127C16.0261 30.2486 18.1789 30.7688 20.2622 31.5202C20.7483 31.6936 21.2344 31.9249 21.7205 32.1561C22.2066 32.3295 22.6928 32.6185 23.1094 32.8497C23.5261 33.1387 23.9428 33.4277 24.2205 33.7746C24.5678 34.1214 24.7067 34.4682 24.7761 34.8728C24.8455 35.104 24.8455 35.2775 24.7761 35.5087C24.7067 35.6821 24.6372 35.8555 24.5678 36.0867C24.4289 36.2601 24.29 36.4335 24.1511 36.6069C24.0122 36.7803 23.8039 36.9538 23.665 37.1272C22.9011 37.8208 21.9983 38.341 21.0955 38.8613C20.1233 39.3237 19.1511 39.7283 18.04 40.0173C17.5539 40.1908 16.9983 40.3064 16.4427 40.3642C16.165 40.422 15.8872 40.422 15.6789 40.422C15.4011 40.422 15.1233 40.422 14.8455 40.422C14.3594 40.3642 13.8039 40.2486 13.4566 39.9595C13.2483 39.8439 13.1094 39.6705 13.04 39.4393C12.9011 39.2659 12.8316 39.0925 12.8316 38.8613C12.7622 38.6301 12.7622 38.3988 12.7622 38.1676C12.7622 38.052 12.7622 37.9364 12.7622 37.8786C12.8316 37.763 12.8316 37.6474 12.8316 37.5318C12.9705 37.0694 13.1094 36.6069 13.2483 36.1445C13.3177 36.0867 13.2483 35.9711 13.1094 35.9133C13.04 35.8555 12.9011 35.9133 12.8316 36.0289C12.6233 36.4913 12.4844 36.9538 12.3455 37.4162C12.2761 37.5318 12.2761 37.6474 12.2761 37.8208C12.2066 37.9364 12.2066 38.052 12.2066 38.1676C12.2066 38.3988 12.2066 38.6879 12.2066 38.9191C12.2761 39.1503 12.3455 39.4393 12.4844 39.6705C12.6233 39.9017 12.8316 40.1329 13.04 40.3064C13.3177 40.5376 13.5955 40.6532 13.8733 40.7688C14.1511 40.8844 14.4289 40.9422 14.7761 40.9422C15.0539 41 15.4011 41 15.6789 41C15.9566 41 16.3039 41 16.5816 40.9422C17.1372 40.8844 17.7622 40.7688 18.3177 40.6532C18.8733 40.4798 19.4289 40.3064 19.915 40.1329C20.4705 39.9017 21.0261 39.6705 21.5122 39.4393C22.4844 38.9191 23.4566 38.341 24.29 37.6474C24.4983 37.474 24.7067 37.2428 24.915 37.0694C25.0539 36.8382 25.2622 36.6069 25.4011 36.3757C25.54 36.1445 25.6094 35.9133 25.6789 35.6243C25.7483 35.5665 25.7483 35.5087 25.7483 35.3931C25.7483 35.3353 25.7483 35.2775 25.7483 35.2197C25.7483 35.104 25.7483 34.9306 25.7483 34.815C25.6789 34.237 25.4011 33.7168 25.0539 33.3121C24.6372 32.8497 24.2205 32.5029 23.7344 32.2139C23.2483 31.9249 22.7622 31.6358 22.2066 31.4046C21.7205 31.1734 21.165 30.9422 20.6789 30.7688C19.5678 30.3642 18.5261 30.0173 17.415 29.6705C16.3733 29.3815 15.2622 29.0925 14.1511 28.7457C13.1094 28.4566 11.9983 28.1676 10.9566 27.8208C9.91495 27.5318 8.80384 27.185 7.83161 26.7803C7.3455 26.6069 6.85939 26.3757 6.37328 26.1445C6.16494 26.0289 5.88716 25.9133 5.67883 25.7399C5.60939 25.7399 5.53994 25.6821 5.53994 25.6821L5.33161 25.5665C5.26216 25.5087 5.12327 25.4509 5.05383 25.3353L4.77605 25.104C4.70661 25.104 4.63716 25.0462 4.56772 24.9884L4.42883 24.8728C4.35938 24.815 4.28994 24.7572 4.22049 24.6416L3.94272 24.4104C3.87327 24.3526 3.87327 24.2948 3.80383 24.2948L3.66494 24.1214L3.59549 24.0058C3.52605 23.948 3.52605 23.8902 3.4566 23.8324C3.38716 23.7746 3.31771 23.659 3.24827 23.6012L3.03994 23.3121C2.8316 22.9075 2.62327 22.5029 2.48438 22.0405C2.34549 21.6358 2.27604 21.1734 2.2066 20.711C2.06771 19.8439 2.13716 18.9191 2.34549 17.9942C2.55382 17.1272 2.90105 16.2601 3.24827 15.3931C3.66494 14.526 4.15105 13.659 4.70661 12.8497C5.26216 12.0405 5.81772 11.2312 6.51217 10.4798C7.13717 9.72832 7.83161 9.03468 8.5955 8.34104C10.1233 6.89595 11.79 5.62428 13.5955 4.58381C14.4983 4.00578 15.4705 3.54335 16.4427 3.13873C16.5816 3.08092 16.7205 3.02312 16.8594 2.96532C16.9983 2.90751 17.0677 2.84971 17.2066 2.84971C17.4844 2.7341 17.6927 2.6185 17.9705 2.56069C18.5261 2.38728 19.0122 2.21387 19.5678 2.09827C20.6094 1.86705 21.7205 1.75145 22.7622 1.80925H23.1789L23.5955 1.86705H23.8039L24.0122 1.92486C24.1511 1.92486 24.29 1.92486 24.4289 1.92486C24.9844 2.04046 25.54 2.15607 26.0261 2.27168C27.0678 2.56069 28.04 3.02312 28.8039 3.65896C29.6372 4.23699 30.2622 4.98844 30.7483 5.85549C31.2344 6.66474 31.5817 7.53179 31.79 8.45665C31.9983 9.3815 32.0678 10.3064 32.0678 11.2312C32.1372 12.1561 32.0678 13.1387 31.9289 14.0636C31.8594 14.526 31.79 14.9884 31.7206 15.4509C31.6511 15.9133 31.5122 16.3757 31.4428 16.8382C31.3733 16.9538 31.4428 17.0694 31.5817 17.0694C31.7206 17.1272 31.8594 17.0694 31.8594 16.9538C31.9983 16.4913 32.1372 16.0289 32.2067 15.5087C32.3456 15.0462 32.415 14.5838 32.4844 14.1214C32.6233 13.1387 32.7622 12.2139 32.7622 11.2312C32.7622 10.2486 32.6233 9.3237 32.4844 8.34104C32.2761 7.41619 31.9289 6.43353 31.4428 5.56647Z"/>
<path d="M39.1528 20.0751C39.0833 20.0173 39.0139 20.0173 38.9444 20.0751C38.3194 20.6532 37.625 21.1734 36.8611 21.6936C36.1666 22.1561 35.4027 22.6763 34.6389 23.0809C34.4305 23.1965 34.2222 23.2543 34.0139 23.3699C33.875 23.4277 33.6666 23.4855 33.4583 23.5434C33.25 23.6012 33.0416 23.6012 32.9722 23.5434C32.9027 23.5434 32.9027 23.4855 32.8333 23.4277C32.7639 23.3699 32.7639 23.3121 32.7639 23.1965C32.6944 23.0231 32.6944 22.8497 32.6944 22.6763C32.6944 22.5029 32.6944 22.3295 32.6944 22.0983C32.7639 21.7514 32.7639 21.3468 32.8333 20.9422C32.8333 20.711 32.9027 20.5376 32.9027 20.3064C32.9027 20.1329 32.9027 19.9017 32.8333 19.6705C32.8333 19.5549 32.7639 19.4393 32.6944 19.3237C32.6944 19.2659 32.625 19.2081 32.5555 19.0925C32.4861 19.0347 32.4166 18.9769 32.2777 18.9769C32.0694 18.8613 31.8611 18.8613 31.7222 18.8613C31.6527 18.9191 31.5833 18.9191 31.4444 18.9191C31.4444 18.9191 31.4444 18.9191 31.375 18.9769C31.3055 18.9769 31.3055 18.9769 31.2361 19.0347C30.9583 19.1503 30.75 19.3237 30.6111 19.4393C30.4027 19.6127 30.2638 19.7861 30.125 19.9595C29.8472 20.3064 29.5694 20.6532 29.2916 21C28.8055 21.6936 28.3888 22.3873 27.9722 23.0809C27.8333 23.3699 27.7638 23.6012 27.625 23.8324L27.7638 8.45665C27.7638 8.16763 27.4861 7.93642 27.2083 7.99422C26.8611 7.99422 26.5833 8.16763 26.6527 8.45665L26.7916 25.3931C26.7222 25.6243 26.9305 25.8555 27.2083 25.9133C27.4861 26.0289 27.8333 25.9133 27.9027 25.6243C28.25 24.9306 28.5972 24.1792 28.9444 23.4855C29.2916 22.7341 29.7083 22.0405 30.125 21.3468C30.3333 21 30.6111 20.6532 30.8194 20.3642C30.9583 20.1908 31.0972 20.0751 31.2361 19.9017C31.375 19.7861 31.5138 19.6705 31.6527 19.6127C31.6527 19.6127 31.7916 19.5549 31.8611 19.5549C31.9305 19.5549 31.9305 19.5549 31.9305 19.5549C31.9305 19.5549 31.9305 19.5549 32 19.5549C32 19.5549 32 19.5549 32 19.6127C32.0694 19.6705 32.0694 19.7283 32.0694 19.7861C32.1389 19.9595 32.1389 20.1329 32.1389 20.3064C32.1389 20.5376 32.1389 20.711 32.1389 20.8844C32.1389 21.289 32.0694 21.6936 32.0694 22.0983C32.0694 22.2717 32.0694 22.5029 32.0694 22.6763C32.0694 22.9075 32.0694 23.1387 32.1389 23.3121C32.2083 23.4277 32.2777 23.5434 32.3472 23.659C32.3472 23.7168 32.4166 23.7746 32.4861 23.8324C32.5555 23.8902 32.625 23.948 32.6944 23.948C32.8333 24.0058 33.0416 24.0636 33.1805 24.0636C33.3194 24.0636 33.4583 24.0058 33.5972 24.0058C33.8055 23.8902 34.0833 23.8324 34.2916 23.7168C34.5 23.6012 34.7083 23.5434 34.9166 23.4277C35.6805 22.9653 36.4444 22.4451 37.1389 21.8671C37.8333 21.3468 38.4583 20.7688 39.1528 20.1908C39.1528 20.1908 39.1528 20.1329 39.1528 20.0751Z"/>
<path d="M49.0068 20.0751C48.9374 20.0173 48.868 19.9595 48.7985 20.0173C48.0346 20.5376 47.3402 21 46.6457 21.5202C46.2291 21.7514 45.8818 21.9827 45.5346 22.2139C45.3263 22.3295 45.1179 22.4451 44.979 22.5029C44.7707 22.6185 44.5624 22.6763 44.354 22.7341C44.1457 22.7919 44.0068 22.7919 43.8679 22.7341C43.729 22.7341 43.6596 22.6185 43.5207 22.4451C43.4513 22.3295 43.3818 22.1561 43.3124 21.9827C43.2429 21.8671 43.2429 21.8092 43.1735 21.6936C43.1735 21.6358 43.1735 21.578 43.104 21.5202C43.104 21.4624 43.104 21.4046 43.0346 21.3468C42.9652 21.289 42.9652 21.289 42.8957 21.2312C42.8263 21.1734 42.6874 21.1734 42.6179 21.1734C42.5485 21.1734 42.479 21.1734 42.4096 21.2312C42.3402 21.2312 42.2707 21.2312 42.2707 21.289C42.1318 21.3468 42.0624 21.4046 41.9235 21.5202C41.7846 21.6358 41.6457 21.8092 41.5068 21.9827C41.229 22.2717 40.8818 22.5029 40.5346 22.7341C40.2568 23.0231 39.8401 23.1965 39.4929 23.3121C39.354 23.3699 39.1457 23.3699 39.0068 23.3699C38.8679 23.3699 38.7985 23.3121 38.729 23.1965C38.6596 23.0809 38.5901 22.9653 38.5207 22.7919C38.5207 22.6763 38.5207 22.5029 38.5207 22.3295C38.5207 21.9827 38.5901 21.6358 38.7985 21.3468C38.9374 21 39.1457 20.711 39.4235 20.422C39.6318 20.1908 39.9096 20.0173 40.2568 20.0173C40.5346 19.9595 40.9513 20.0173 41.229 20.1908C41.2985 20.2486 41.4374 20.3064 41.5068 20.422C41.5068 20.422 41.5068 20.4798 41.5068 20.5376V20.5954C41.4374 20.8844 41.5763 21.1156 41.9235 21.2312C42.2013 21.289 42.5485 21.1156 42.6179 20.8844C42.6874 20.711 42.6874 20.5376 42.6874 20.3642C42.6179 20.1908 42.5485 20.0751 42.479 19.9595C42.2707 19.6705 42.0624 19.4971 41.7846 19.3815C41.5068 19.2659 41.229 19.1503 40.9513 19.0925C40.6735 19.0925 40.3263 19.0925 40.0485 19.1503C39.7707 19.1503 39.4929 19.2659 39.2151 19.4393C38.9374 19.5549 38.729 19.7283 38.5901 19.9017C38.3124 20.2486 38.0346 20.6532 37.8957 21.0578C37.6874 21.4624 37.6179 21.8671 37.6179 22.3295C37.5485 22.5029 37.6179 22.7341 37.6874 22.9653C37.7568 23.1965 37.8263 23.4277 38.0346 23.659C38.1735 23.7746 38.3124 23.8324 38.4513 23.8902C38.5901 24.0058 38.729 24.0058 38.9374 24.0636C39.2151 24.0636 39.5624 24.0058 39.7707 23.948C40.0485 23.8324 40.2568 23.7168 40.4651 23.6012C40.6735 23.4855 40.8818 23.3699 41.0902 23.2543C41.4374 22.9653 41.7152 22.6185 42.0624 22.3295C42.2013 22.1561 42.3402 22.0405 42.479 21.8671C42.479 21.8671 42.5485 21.8092 42.5485 21.7514C42.5485 21.8092 42.5485 21.8092 42.6179 21.8671C42.6179 21.9249 42.6874 22.0405 42.6874 22.1561C42.8263 22.3295 42.8957 22.5029 43.0346 22.7341C43.104 22.7919 43.1735 22.9075 43.3124 22.9653C43.3818 23.0809 43.5207 23.1387 43.6596 23.1965C43.7985 23.2543 44.0068 23.2543 44.1457 23.2543C44.2846 23.2543 44.4235 23.1965 44.5624 23.1965C44.7707 23.0809 45.0485 22.9653 45.1874 22.9075C45.3957 22.7919 45.604 22.6763 45.8124 22.5607C46.1596 22.2717 46.5763 22.0405 46.9235 21.8092C47.6179 21.289 48.3124 20.7688 49.0068 20.2486C49.0763 20.1908 49.0763 20.1329 49.0068 20.0751Z"/>
<path d="M68.3526 20.0751C67.7276 20.6532 67.0331 21.1734 66.2692 21.6936C65.5748 22.1561 64.8109 22.6763 64.047 23.0809C63.8387 23.1965 63.6304 23.2543 63.4915 23.3699C63.2831 23.4277 63.0748 23.4855 62.8665 23.5434C62.6581 23.6012 62.4498 23.6012 62.3803 23.5434C62.3109 23.5434 62.3109 23.4855 62.2415 23.4277C62.172 23.3699 62.172 23.3121 62.172 23.1965C62.1026 23.0231 62.1026 22.8497 62.1026 22.6763C62.1026 22.5029 62.1026 22.3295 62.1026 22.0983C62.172 21.7514 62.2415 21.3468 62.2415 20.9422C62.2415 20.711 62.3109 20.5376 62.3109 20.3064C62.3109 20.1329 62.3109 19.9017 62.2415 19.6705C62.2415 19.5549 62.172 19.4393 62.1026 19.3237C62.1026 19.2659 62.0331 19.2081 61.9637 19.0925C61.8942 19.0347 61.8248 18.9769 61.6859 18.9769C61.4776 18.8613 61.2692 18.8613 61.1304 18.8613C61.0609 18.9191 60.9915 18.9191 60.922 18.9191C60.8526 18.9191 60.8526 18.9191 60.7831 18.9769C60.7137 18.9769 60.7137 18.9769 60.6442 19.0347C60.3665 19.1503 60.1581 19.3237 60.0192 19.4393C59.8109 19.6127 59.672 19.7861 59.5331 19.9595C59.2553 20.3064 58.9776 20.6532 58.6998 21C58.2137 21.6936 57.797 22.3873 57.3803 23.0809C57.2414 23.3699 57.172 23.6012 57.0331 23.8324L57.172 8.45665C57.172 8.16763 56.8942 7.93642 56.6164 7.99422C56.2692 7.99422 55.9914 8.16763 56.0609 8.45665V8.74567C55.6442 11 54.9498 13.1965 54.047 15.3931C53.5609 16.4913 53.0053 17.6474 52.4498 18.7457C51.8942 19.7861 51.2692 20.8844 50.7137 21.9249C50.5053 21.7514 50.297 21.578 50.0192 21.4624C49.9498 21.3468 49.8109 21.289 49.7414 21.2312C49.6025 21.1156 49.5331 21 49.4637 20.9422C49.3942 20.7688 49.3248 20.5376 49.3942 20.3642C49.3942 20.2486 49.4637 20.1329 49.5331 20.0173C49.5331 19.9595 49.5331 19.9017 49.6025 19.8439C49.6025 19.8439 49.6025 19.7861 49.672 19.7861V19.7283C49.8803 19.4971 49.8803 19.2081 49.6025 19.0347C49.3248 18.9191 48.9775 18.9191 48.7692 19.1503L48.6998 19.2081V19.2659C48.6303 19.3237 48.6303 19.3815 48.5609 19.3815C48.5609 19.4971 48.4914 19.5549 48.422 19.6705C48.3525 19.8439 48.2831 20.0173 48.2831 20.1908C48.2136 20.3642 48.2136 20.5954 48.2831 20.7688C48.3525 21 48.422 21.1734 48.4914 21.3468C48.6303 21.5202 48.7692 21.6936 48.9081 21.8092C49.1164 21.9249 49.2553 22.0405 49.4637 22.1561C49.7414 22.3295 49.9498 22.5029 50.2275 22.6763C50.2275 22.7341 50.2275 22.7341 50.297 22.7341C50.0887 23.0809 49.9498 23.4277 49.8109 23.7168C49.672 24.0058 49.5331 24.2948 49.3942 24.5838C49.3248 24.9306 49.2553 25.2197 49.1859 25.5665C49.1859 25.6821 49.1164 25.8555 49.1859 26.0289C49.1859 26.2023 49.1859 26.4335 49.3248 26.6069C49.3942 26.7803 49.5331 26.9538 49.7414 27.0694C49.8803 27.185 50.0887 27.3006 50.3664 27.3584C50.5053 27.3584 50.6442 27.3584 50.7831 27.3006C50.922 27.3006 51.0609 27.2428 51.1303 27.185C51.3387 27.0694 51.547 26.896 51.6164 26.7803C51.8942 26.4913 52.0331 26.1445 52.172 25.8555C52.3109 25.1618 52.3109 24.4682 52.1025 23.8324C51.8942 23.3121 51.6164 22.7919 51.1303 22.3295C51.1998 22.2717 51.1998 22.2717 51.1998 22.2717C51.7553 21.1156 52.3803 20.0173 52.8664 18.9191C53.422 17.763 53.9776 16.6069 54.3942 15.4509C55.1581 13.7168 55.7137 11.8671 56.0609 10.0173L56.1998 25.3931C56.1303 25.6243 56.3387 25.8555 56.6164 25.9133C56.8942 26.0289 57.2414 25.9133 57.3109 25.6243C57.6581 24.9306 58.0053 24.1792 58.3526 23.4855C58.6998 22.7341 59.1165 22.0405 59.5331 21.3468C59.7415 21 60.0192 20.6532 60.2276 20.3642C60.3665 20.1908 60.5053 20.0751 60.6442 19.9017C60.7831 19.7861 60.922 19.6705 61.0609 19.6127C61.0609 19.6127 61.1998 19.5549 61.2692 19.5549C61.3387 19.5549 61.3387 19.5549 61.3387 19.5549C61.3387 19.5549 61.3387 19.5549 61.4081 19.5549C61.4081 19.5549 61.4081 19.5549 61.4081 19.6127C61.4776 19.6705 61.4776 19.7283 61.4776 19.7861C61.547 19.9595 61.547 20.1329 61.547 20.3064C61.547 20.5376 61.547 20.711 61.547 20.8844C61.547 21.289 61.4776 21.6936 61.4776 22.0983C61.4776 22.2717 61.4776 22.5029 61.4776 22.6763C61.4776 22.9075 61.4776 23.1387 61.547 23.3121C61.6165 23.4277 61.6859 23.5434 61.7554 23.659C61.7554 23.7168 61.8248 23.7746 61.8942 23.8324C61.9637 23.8902 62.0331 23.948 62.1026 23.948C62.2415 24.0058 62.4498 24.0636 62.5887 24.0636C62.7276 24.0636 62.8665 24.0058 63.0053 24.0058C63.2831 23.8902 63.4915 23.8324 63.6998 23.7168C63.9081 23.6012 64.1165 23.5434 64.3248 23.4277C65.0887 22.9653 65.8526 22.4451 66.547 21.8671C67.2415 21.3468 67.8665 20.7688 68.5609 20.1908C68.5609 20.1908 68.5609 20.1329 68.5609 20.0751C68.4915 20.0173 68.422 20.0173 68.3526 20.0751ZM51.1998 24.0636C51.4081 24.5838 51.4775 25.1618 51.3387 25.6821C51.2692 25.9711 51.1303 26.2023 50.9914 26.4335C50.922 26.4913 50.8525 26.6069 50.7137 26.6647C50.6442 26.7225 50.5748 26.7225 50.5053 26.7225C50.3664 26.7225 50.297 26.6647 50.1581 26.6069C50.0887 26.5491 50.0192 26.4335 49.9498 26.3757C49.8109 26.1445 49.8109 25.8555 49.8803 25.6243C49.8803 25.3353 49.9498 25.0462 50.0887 24.7572C50.1581 24.4682 50.297 24.1792 50.3664 23.948C50.5053 23.659 50.5748 23.4277 50.7137 23.1965C50.922 23.4855 51.0609 23.7746 51.1998 24.0636Z"/>
<path d="M75.5227 20.0751C75.4533 20.0173 75.3839 20.0173 75.3839 20.0751C74.5505 20.6532 73.7866 21.2312 72.9533 21.7514C72.5366 22.0405 72.12 22.2717 71.7033 22.5029C71.2866 22.7919 70.8005 23.0231 70.3838 23.1965C70.1755 23.3121 69.8977 23.3699 69.6894 23.4277C69.5505 23.4855 69.4811 23.4855 69.3422 23.5434C69.2727 23.5434 69.2033 23.5434 69.2033 23.5434H69.0644C68.9949 23.5434 68.9949 23.5434 68.9949 23.4855C68.9949 23.4855 68.9255 23.4855 68.9255 23.4277C68.9255 23.3699 68.8561 23.3121 68.8561 23.1965C68.7866 23.0231 68.7172 22.8497 68.7172 22.6185C68.7172 22.2139 68.7172 21.8092 68.7866 21.4046C68.7866 21.1734 68.7866 20.9422 68.8561 20.711C68.8561 20.5376 68.9255 20.3064 68.9255 20.1329C68.9255 20.0751 68.9255 20.0751 68.9255 20.0751C68.9949 19.7861 68.7172 19.5549 68.3699 19.5549C68.0922 19.5549 67.8144 19.7283 67.8144 20.0173C67.8144 20.2486 67.8144 20.4798 67.8144 20.711C67.8144 20.8844 67.8144 21.1156 67.8144 21.3468C67.8144 21.8092 67.8838 22.2717 67.9533 22.7341C68.0227 22.9653 68.0922 23.1965 68.1616 23.4277C68.2311 23.5434 68.3005 23.659 68.4394 23.7746C68.5088 23.8324 68.5783 23.8902 68.6477 23.948C68.7866 24.0058 68.8561 24.0058 68.9949 24.0058H69.2033C69.3422 24.0058 69.4116 24.0058 69.4811 24.0058C69.6199 23.948 69.7588 23.8902 69.8977 23.8902C70.1061 23.7746 70.3838 23.659 70.5922 23.5434C71.0783 23.3699 71.4949 23.0809 71.9811 22.8497C72.3977 22.5607 72.8144 22.2717 73.1616 21.9827C73.995 21.4046 74.7589 20.8266 75.5227 20.1908C75.5922 20.1908 75.5922 20.1329 75.5227 20.0751ZM67.8838 18.341C67.8838 18.3988 67.8838 18.5145 67.8838 18.5723C67.9533 18.7457 68.0922 18.8613 68.3005 18.8613C68.5783 18.9191 68.7866 18.7457 68.7866 18.5723V18.5145C68.7866 18.4566 68.7866 18.3988 68.7866 18.341C68.8561 18.2832 68.8561 18.1676 68.8561 18.1098C68.8561 18.1098 68.8561 18.052 68.9255 17.9942C69.1338 17.8208 69.1338 17.474 68.9255 17.3006C68.7172 17.1272 68.3005 17.1272 68.0922 17.3006C68.0227 17.3584 68.0227 17.4162 67.9533 17.474C67.9533 17.474 67.9533 17.5318 67.9533 17.5896C67.8838 17.5896 67.8838 17.6474 67.8838 17.6474C67.8838 17.7052 67.8838 17.7052 67.8838 17.763C67.8144 17.8786 67.8144 17.9942 67.8144 18.052C67.8144 18.1676 67.8838 18.2254 67.8838 18.341Z"/>
</mask>
<path d="M31.4428 5.56647C31.165 5.10405 30.8872 4.64162 30.54 4.23699C30.1928 3.83237 29.8456 3.48555 29.3594 3.13873C28.5261 2.44509 27.415 1.92485 26.3039 1.57803C25.7483 1.40462 25.1928 1.28902 24.6372 1.17341C24.4289 1.17341 24.29 1.17341 24.1511 1.11561H23.9428L23.7344 1.0578H23.3178L22.8316 1C22.2761 1 21.6511 0.999999 21.0261 1.0578C20.8872 1.0578 20.7483 1.11561 20.6094 1.11561C20.4705 1.11561 20.3316 1.11561 20.1928 1.17341L19.7066 1.23121L19.29 1.34682C18.7344 1.46243 18.1789 1.57803 17.6233 1.75145C17.3455 1.86705 17.0677 1.98266 16.79 2.04046C16.6511 2.09827 16.5122 2.15607 16.3733 2.21387C16.3039 2.27167 16.165 2.32948 16.0261 2.38728C14.9844 2.79191 13.9427 3.31214 12.9705 3.83237C11.0955 4.98844 9.35939 6.26011 7.76217 7.7052C6.99828 8.39884 6.30383 9.15029 5.60939 9.95954C4.91494 10.711 4.28994 11.5202 3.73438 12.3873C3.10938 13.2543 2.62327 14.1214 2.2066 15.0462C1.78993 15.9133 1.44271 16.896 1.23438 17.8786C1.02604 18.8035 0.956597 19.8439 1.02604 20.8266C1.09549 21.3468 1.23438 21.8092 1.37326 22.3295C1.51215 22.7919 1.78993 23.2543 2.06771 23.7168L2.27604 24.0636C2.34549 24.1792 2.41493 24.2948 2.48438 24.3526C2.55382 24.4104 2.55382 24.4682 2.62327 24.526L2.90105 24.8728C2.97049 24.8728 2.97049 24.9306 3.03994 24.9884L3.31771 25.2775C3.4566 25.3931 3.52605 25.4509 3.66494 25.5665L3.80383 25.6821C3.87327 25.7399 3.94272 25.7977 3.94272 25.8555L4.28994 26.0867C4.42883 26.1445 4.56772 26.2601 4.63716 26.3179L4.8455 26.4335C4.91494 26.4913 4.98438 26.4913 5.05383 26.5491C5.26216 26.6647 5.53994 26.8382 5.74828 26.9538C6.30383 27.185 6.78994 27.4162 7.3455 27.6474C8.38717 28.052 9.49828 28.3988 10.54 28.7457C11.6511 29.0347 12.7622 29.3237 13.8039 29.6127C16.0261 30.2486 18.1789 30.7688 20.2622 31.5202C20.7483 31.6936 21.2344 31.9249 21.7205 32.1561C22.2066 32.3295 22.6928 32.6185 23.1094 32.8497C23.5261 33.1387 23.9428 33.4277 24.2205 33.7746C24.5678 34.1214 24.7067 34.4682 24.7761 34.8728C24.8455 35.104 24.8455 35.2775 24.7761 35.5087C24.7067 35.6821 24.6372 35.8555 24.5678 36.0867C24.4289 36.2601 24.29 36.4335 24.1511 36.6069C24.0122 36.7803 23.8039 36.9538 23.665 37.1272C22.9011 37.8208 21.9983 38.341 21.0955 38.8613C20.1233 39.3237 19.1511 39.7283 18.04 40.0173C17.5539 40.1908 16.9983 40.3064 16.4427 40.3642C16.165 40.422 15.8872 40.422 15.6789 40.422C15.4011 40.422 15.1233 40.422 14.8455 40.422C14.3594 40.3642 13.8039 40.2486 13.4566 39.9595C13.2483 39.8439 13.1094 39.6705 13.04 39.4393C12.9011 39.2659 12.8316 39.0925 12.8316 38.8613C12.7622 38.6301 12.7622 38.3988 12.7622 38.1676C12.7622 38.052 12.7622 37.9364 12.7622 37.8786C12.8316 37.763 12.8316 37.6474 12.8316 37.5318C12.9705 37.0694 13.1094 36.6069 13.2483 36.1445C13.3177 36.0867 13.2483 35.9711 13.1094 35.9133C13.04 35.8555 12.9011 35.9133 12.8316 36.0289C12.6233 36.4913 12.4844 36.9538 12.3455 37.4162C12.2761 37.5318 12.2761 37.6474 12.2761 37.8208C12.2066 37.9364 12.2066 38.052 12.2066 38.1676C12.2066 38.3988 12.2066 38.6879 12.2066 38.9191C12.2761 39.1503 12.3455 39.4393 12.4844 39.6705C12.6233 39.9017 12.8316 40.1329 13.04 40.3064C13.3177 40.5376 13.5955 40.6532 13.8733 40.7688C14.1511 40.8844 14.4289 40.9422 14.7761 40.9422C15.0539 41 15.4011 41 15.6789 41C15.9566 41 16.3039 41 16.5816 40.9422C17.1372 40.8844 17.7622 40.7688 18.3177 40.6532C18.8733 40.4798 19.4289 40.3064 19.915 40.1329C20.4705 39.9017 21.0261 39.6705 21.5122 39.4393C22.4844 38.9191 23.4566 38.341 24.29 37.6474C24.4983 37.474 24.7067 37.2428 24.915 37.0694C25.0539 36.8382 25.2622 36.6069 25.4011 36.3757C25.54 36.1445 25.6094 35.9133 25.6789 35.6243C25.7483 35.5665 25.7483 35.5087 25.7483 35.3931C25.7483 35.3353 25.7483 35.2775 25.7483 35.2197C25.7483 35.104 25.7483 34.9306 25.7483 34.815C25.6789 34.237 25.4011 33.7168 25.0539 33.3121C24.6372 32.8497 24.2205 32.5029 23.7344 32.2139C23.2483 31.9249 22.7622 31.6358 22.2066 31.4046C21.7205 31.1734 21.165 30.9422 20.6789 30.7688C19.5678 30.3642 18.5261 30.0173 17.415 29.6705C16.3733 29.3815 15.2622 29.0925 14.1511 28.7457C13.1094 28.4566 11.9983 28.1676 10.9566 27.8208C9.91495 27.5318 8.80384 27.185 7.83161 26.7803C7.3455 26.6069 6.85939 26.3757 6.37328 26.1445C6.16494 26.0289 5.88716 25.9133 5.67883 25.7399C5.60939 25.7399 5.53994 25.6821 5.53994 25.6821L5.33161 25.5665C5.26216 25.5087 5.12327 25.4509 5.05383 25.3353L4.77605 25.104C4.70661 25.104 4.63716 25.0462 4.56772 24.9884L4.42883 24.8728C4.35938 24.815 4.28994 24.7572 4.22049 24.6416L3.94272 24.4104C3.87327 24.3526 3.87327 24.2948 3.80383 24.2948L3.66494 24.1214L3.59549 24.0058C3.52605 23.948 3.52605 23.8902 3.4566 23.8324C3.38716 23.7746 3.31771 23.659 3.24827 23.6012L3.03994 23.3121C2.8316 22.9075 2.62327 22.5029 2.48438 22.0405C2.34549 21.6358 2.27604 21.1734 2.2066 20.711C2.06771 19.8439 2.13716 18.9191 2.34549 17.9942C2.55382 17.1272 2.90105 16.2601 3.24827 15.3931C3.66494 14.526 4.15105 13.659 4.70661 12.8497C5.26216 12.0405 5.81772 11.2312 6.51217 10.4798C7.13717 9.72832 7.83161 9.03468 8.5955 8.34104C10.1233 6.89595 11.79 5.62428 13.5955 4.58381C14.4983 4.00578 15.4705 3.54335 16.4427 3.13873C16.5816 3.08092 16.7205 3.02312 16.8594 2.96532C16.9983 2.90751 17.0677 2.84971 17.2066 2.84971C17.4844 2.7341 17.6927 2.6185 17.9705 2.56069C18.5261 2.38728 19.0122 2.21387 19.5678 2.09827C20.6094 1.86705 21.7205 1.75145 22.7622 1.80925H23.1789L23.5955 1.86705H23.8039L24.0122 1.92486C24.1511 1.92486 24.29 1.92486 24.4289 1.92486C24.9844 2.04046 25.54 2.15607 26.0261 2.27168C27.0678 2.56069 28.04 3.02312 28.8039 3.65896C29.6372 4.23699 30.2622 4.98844 30.7483 5.85549C31.2344 6.66474 31.5817 7.53179 31.79 8.45665C31.9983 9.3815 32.0678 10.3064 32.0678 11.2312C32.1372 12.1561 32.0678 13.1387 31.9289 14.0636C31.8594 14.526 31.79 14.9884 31.7206 15.4509C31.6511 15.9133 31.5122 16.3757 31.4428 16.8382C31.3733 16.9538 31.4428 17.0694 31.5817 17.0694C31.7206 17.1272 31.8594 17.0694 31.8594 16.9538C31.9983 16.4913 32.1372 16.0289 32.2067 15.5087C32.3456 15.0462 32.415 14.5838 32.4844 14.1214C32.6233 13.1387 32.7622 12.2139 32.7622 11.2312C32.7622 10.2486 32.6233 9.3237 32.4844 8.34104C32.2761 7.41619 31.9289 6.43353 31.4428 5.56647Z" fill="black"/>
<path d="M39.1528 20.0751C39.0833 20.0173 39.0139 20.0173 38.9444 20.0751C38.3194 20.6532 37.625 21.1734 36.8611 21.6936C36.1666 22.1561 35.4027 22.6763 34.6389 23.0809C34.4305 23.1965 34.2222 23.2543 34.0139 23.3699C33.875 23.4277 33.6666 23.4855 33.4583 23.5434C33.25 23.6012 33.0416 23.6012 32.9722 23.5434C32.9027 23.5434 32.9027 23.4855 32.8333 23.4277C32.7639 23.3699 32.7639 23.3121 32.7639 23.1965C32.6944 23.0231 32.6944 22.8497 32.6944 22.6763C32.6944 22.5029 32.6944 22.3295 32.6944 22.0983C32.7639 21.7514 32.7639 21.3468 32.8333 20.9422C32.8333 20.711 32.9027 20.5376 32.9027 20.3064C32.9027 20.1329 32.9027 19.9017 32.8333 19.6705C32.8333 19.5549 32.7639 19.4393 32.6944 19.3237C32.6944 19.2659 32.625 19.2081 32.5555 19.0925C32.4861 19.0347 32.4166 18.9769 32.2777 18.9769C32.0694 18.8613 31.8611 18.8613 31.7222 18.8613C31.6527 18.9191 31.5833 18.9191 31.4444 18.9191C31.4444 18.9191 31.4444 18.9191 31.375 18.9769C31.3055 18.9769 31.3055 18.9769 31.2361 19.0347C30.9583 19.1503 30.75 19.3237 30.6111 19.4393C30.4027 19.6127 30.2638 19.7861 30.125 19.9595C29.8472 20.3064 29.5694 20.6532 29.2916 21C28.8055 21.6936 28.3888 22.3873 27.9722 23.0809C27.8333 23.3699 27.7638 23.6012 27.625 23.8324L27.7638 8.45665C27.7638 8.16763 27.4861 7.93642 27.2083 7.99422C26.8611 7.99422 26.5833 8.16763 26.6527 8.45665L26.7916 25.3931C26.7222 25.6243 26.9305 25.8555 27.2083 25.9133C27.4861 26.0289 27.8333 25.9133 27.9027 25.6243C28.25 24.9306 28.5972 24.1792 28.9444 23.4855C29.2916 22.7341 29.7083 22.0405 30.125 21.3468C30.3333 21 30.6111 20.6532 30.8194 20.3642C30.9583 20.1908 31.0972 20.0751 31.2361 19.9017C31.375 19.7861 31.5138 19.6705 31.6527 19.6127C31.6527 19.6127 31.7916 19.5549 31.8611 19.5549C31.9305 19.5549 31.9305 19.5549 31.9305 19.5549C31.9305 19.5549 31.9305 19.5549 32 19.5549C32 19.5549 32 19.5549 32 19.6127C32.0694 19.6705 32.0694 19.7283 32.0694 19.7861C32.1389 19.9595 32.1389 20.1329 32.1389 20.3064C32.1389 20.5376 32.1389 20.711 32.1389 20.8844C32.1389 21.289 32.0694 21.6936 32.0694 22.0983C32.0694 22.2717 32.0694 22.5029 32.0694 22.6763C32.0694 22.9075 32.0694 23.1387 32.1389 23.3121C32.2083 23.4277 32.2777 23.5434 32.3472 23.659C32.3472 23.7168 32.4166 23.7746 32.4861 23.8324C32.5555 23.8902 32.625 23.948 32.6944 23.948C32.8333 24.0058 33.0416 24.0636 33.1805 24.0636C33.3194 24.0636 33.4583 24.0058 33.5972 24.0058C33.8055 23.8902 34.0833 23.8324 34.2916 23.7168C34.5 23.6012 34.7083 23.5434 34.9166 23.4277C35.6805 22.9653 36.4444 22.4451 37.1389 21.8671C37.8333 21.3468 38.4583 20.7688 39.1528 20.1908C39.1528 20.1908 39.1528 20.1329 39.1528 20.0751Z" fill="black"/>
<path d="M49.0068 20.0751C48.9374 20.0173 48.868 19.9595 48.7985 20.0173C48.0346 20.5376 47.3402 21 46.6457 21.5202C46.2291 21.7514 45.8818 21.9827 45.5346 22.2139C45.3263 22.3295 45.1179 22.4451 44.979 22.5029C44.7707 22.6185 44.5624 22.6763 44.354 22.7341C44.1457 22.7919 44.0068 22.7919 43.8679 22.7341C43.729 22.7341 43.6596 22.6185 43.5207 22.4451C43.4513 22.3295 43.3818 22.1561 43.3124 21.9827C43.2429 21.8671 43.2429 21.8092 43.1735 21.6936C43.1735 21.6358 43.1735 21.578 43.104 21.5202C43.104 21.4624 43.104 21.4046 43.0346 21.3468C42.9652 21.289 42.9652 21.289 42.8957 21.2312C42.8263 21.1734 42.6874 21.1734 42.6179 21.1734C42.5485 21.1734 42.479 21.1734 42.4096 21.2312C42.3402 21.2312 42.2707 21.2312 42.2707 21.289C42.1318 21.3468 42.0624 21.4046 41.9235 21.5202C41.7846 21.6358 41.6457 21.8092 41.5068 21.9827C41.229 22.2717 40.8818 22.5029 40.5346 22.7341C40.2568 23.0231 39.8401 23.1965 39.4929 23.3121C39.354 23.3699 39.1457 23.3699 39.0068 23.3699C38.8679 23.3699 38.7985 23.3121 38.729 23.1965C38.6596 23.0809 38.5901 22.9653 38.5207 22.7919C38.5207 22.6763 38.5207 22.5029 38.5207 22.3295C38.5207 21.9827 38.5901 21.6358 38.7985 21.3468C38.9374 21 39.1457 20.711 39.4235 20.422C39.6318 20.1908 39.9096 20.0173 40.2568 20.0173C40.5346 19.9595 40.9513 20.0173 41.229 20.1908C41.2985 20.2486 41.4374 20.3064 41.5068 20.422C41.5068 20.422 41.5068 20.4798 41.5068 20.5376V20.5954C41.4374 20.8844 41.5763 21.1156 41.9235 21.2312C42.2013 21.289 42.5485 21.1156 42.6179 20.8844C42.6874 20.711 42.6874 20.5376 42.6874 20.3642C42.6179 20.1908 42.5485 20.0751 42.479 19.9595C42.2707 19.6705 42.0624 19.4971 41.7846 19.3815C41.5068 19.2659 41.229 19.1503 40.9513 19.0925C40.6735 19.0925 40.3263 19.0925 40.0485 19.1503C39.7707 19.1503 39.4929 19.2659 39.2151 19.4393C38.9374 19.5549 38.729 19.7283 38.5901 19.9017C38.3124 20.2486 38.0346 20.6532 37.8957 21.0578C37.6874 21.4624 37.6179 21.8671 37.6179 22.3295C37.5485 22.5029 37.6179 22.7341 37.6874 22.9653C37.7568 23.1965 37.8263 23.4277 38.0346 23.659C38.1735 23.7746 38.3124 23.8324 38.4513 23.8902C38.5901 24.0058 38.729 24.0058 38.9374 24.0636C39.2151 24.0636 39.5624 24.0058 39.7707 23.948C40.0485 23.8324 40.2568 23.7168 40.4651 23.6012C40.6735 23.4855 40.8818 23.3699 41.0902 23.2543C41.4374 22.9653 41.7152 22.6185 42.0624 22.3295C42.2013 22.1561 42.3402 22.0405 42.479 21.8671C42.479 21.8671 42.5485 21.8092 42.5485 21.7514C42.5485 21.8092 42.5485 21.8092 42.6179 21.8671C42.6179 21.9249 42.6874 22.0405 42.6874 22.1561C42.8263 22.3295 42.8957 22.5029 43.0346 22.7341C43.104 22.7919 43.1735 22.9075 43.3124 22.9653C43.3818 23.0809 43.5207 23.1387 43.6596 23.1965C43.7985 23.2543 44.0068 23.2543 44.1457 23.2543C44.2846 23.2543 44.4235 23.1965 44.5624 23.1965C44.7707 23.0809 45.0485 22.9653 45.1874 22.9075C45.3957 22.7919 45.604 22.6763 45.8124 22.5607C46.1596 22.2717 46.5763 22.0405 46.9235 21.8092C47.6179 21.289 48.3124 20.7688 49.0068 20.2486C49.0763 20.1908 49.0763 20.1329 49.0068 20.0751Z" fill="black"/>
<path d="M68.3526 20.0751C67.7276 20.6532 67.0331 21.1734 66.2692 21.6936C65.5748 22.1561 64.8109 22.6763 64.047 23.0809C63.8387 23.1965 63.6304 23.2543 63.4915 23.3699C63.2831 23.4277 63.0748 23.4855 62.8665 23.5434C62.6581 23.6012 62.4498 23.6012 62.3803 23.5434C62.3109 23.5434 62.3109 23.4855 62.2415 23.4277C62.172 23.3699 62.172 23.3121 62.172 23.1965C62.1026 23.0231 62.1026 22.8497 62.1026 22.6763C62.1026 22.5029 62.1026 22.3295 62.1026 22.0983C62.172 21.7514 62.2415 21.3468 62.2415 20.9422C62.2415 20.711 62.3109 20.5376 62.3109 20.3064C62.3109 20.1329 62.3109 19.9017 62.2415 19.6705C62.2415 19.5549 62.172 19.4393 62.1026 19.3237C62.1026 19.2659 62.0331 19.2081 61.9637 19.0925C61.8942 19.0347 61.8248 18.9769 61.6859 18.9769C61.4776 18.8613 61.2692 18.8613 61.1304 18.8613C61.0609 18.9191 60.9915 18.9191 60.922 18.9191C60.8526 18.9191 60.8526 18.9191 60.7831 18.9769C60.7137 18.9769 60.7137 18.9769 60.6442 19.0347C60.3665 19.1503 60.1581 19.3237 60.0192 19.4393C59.8109 19.6127 59.672 19.7861 59.5331 19.9595C59.2553 20.3064 58.9776 20.6532 58.6998 21C58.2137 21.6936 57.797 22.3873 57.3803 23.0809C57.2414 23.3699 57.172 23.6012 57.0331 23.8324L57.172 8.45665C57.172 8.16763 56.8942 7.93642 56.6164 7.99422C56.2692 7.99422 55.9914 8.16763 56.0609 8.45665V8.74567C55.6442 11 54.9498 13.1965 54.047 15.3931C53.5609 16.4913 53.0053 17.6474 52.4498 18.7457C51.8942 19.7861 51.2692 20.8844 50.7137 21.9249C50.5053 21.7514 50.297 21.578 50.0192 21.4624C49.9498 21.3468 49.8109 21.289 49.7414 21.2312C49.6025 21.1156 49.5331 21 49.4637 20.9422C49.3942 20.7688 49.3248 20.5376 49.3942 20.3642C49.3942 20.2486 49.4637 20.1329 49.5331 20.0173C49.5331 19.9595 49.5331 19.9017 49.6025 19.8439C49.6025 19.8439 49.6025 19.7861 49.672 19.7861V19.7283C49.8803 19.4971 49.8803 19.2081 49.6025 19.0347C49.3248 18.9191 48.9775 18.9191 48.7692 19.1503L48.6998 19.2081V19.2659C48.6303 19.3237 48.6303 19.3815 48.5609 19.3815C48.5609 19.4971 48.4914 19.5549 48.422 19.6705C48.3525 19.8439 48.2831 20.0173 48.2831 20.1908C48.2136 20.3642 48.2136 20.5954 48.2831 20.7688C48.3525 21 48.422 21.1734 48.4914 21.3468C48.6303 21.5202 48.7692 21.6936 48.9081 21.8092C49.1164 21.9249 49.2553 22.0405 49.4637 22.1561C49.7414 22.3295 49.9498 22.5029 50.2275 22.6763C50.2275 22.7341 50.2275 22.7341 50.297 22.7341C50.0887 23.0809 49.9498 23.4277 49.8109 23.7168C49.672 24.0058 49.5331 24.2948 49.3942 24.5838C49.3248 24.9306 49.2553 25.2197 49.1859 25.5665C49.1859 25.6821 49.1164 25.8555 49.1859 26.0289C49.1859 26.2023 49.1859 26.4335 49.3248 26.6069C49.3942 26.7803 49.5331 26.9538 49.7414 27.0694C49.8803 27.185 50.0887 27.3006 50.3664 27.3584C50.5053 27.3584 50.6442 27.3584 50.7831 27.3006C50.922 27.3006 51.0609 27.2428 51.1303 27.185C51.3387 27.0694 51.547 26.896 51.6164 26.7803C51.8942 26.4913 52.0331 26.1445 52.172 25.8555C52.3109 25.1618 52.3109 24.4682 52.1025 23.8324C51.8942 23.3121 51.6164 22.7919 51.1303 22.3295C51.1998 22.2717 51.1998 22.2717 51.1998 22.2717C51.7553 21.1156 52.3803 20.0173 52.8664 18.9191C53.422 17.763 53.9776 16.6069 54.3942 15.4509C55.1581 13.7168 55.7137 11.8671 56.0609 10.0173L56.1998 25.3931C56.1303 25.6243 56.3387 25.8555 56.6164 25.9133C56.8942 26.0289 57.2414 25.9133 57.3109 25.6243C57.6581 24.9306 58.0053 24.1792 58.3526 23.4855C58.6998 22.7341 59.1165 22.0405 59.5331 21.3468C59.7415 21 60.0192 20.6532 60.2276 20.3642C60.3665 20.1908 60.5053 20.0751 60.6442 19.9017C60.7831 19.7861 60.922 19.6705 61.0609 19.6127C61.0609 19.6127 61.1998 19.5549 61.2692 19.5549C61.3387 19.5549 61.3387 19.5549 61.3387 19.5549C61.3387 19.5549 61.3387 19.5549 61.4081 19.5549C61.4081 19.5549 61.4081 19.5549 61.4081 19.6127C61.4776 19.6705 61.4776 19.7283 61.4776 19.7861C61.547 19.9595 61.547 20.1329 61.547 20.3064C61.547 20.5376 61.547 20.711 61.547 20.8844C61.547 21.289 61.4776 21.6936 61.4776 22.0983C61.4776 22.2717 61.4776 22.5029 61.4776 22.6763C61.4776 22.9075 61.4776 23.1387 61.547 23.3121C61.6165 23.4277 61.6859 23.5434 61.7554 23.659C61.7554 23.7168 61.8248 23.7746 61.8942 23.8324C61.9637 23.8902 62.0331 23.948 62.1026 23.948C62.2415 24.0058 62.4498 24.0636 62.5887 24.0636C62.7276 24.0636 62.8665 24.0058 63.0053 24.0058C63.2831 23.8902 63.4915 23.8324 63.6998 23.7168C63.9081 23.6012 64.1165 23.5434 64.3248 23.4277C65.0887 22.9653 65.8526 22.4451 66.547 21.8671C67.2415 21.3468 67.8665 20.7688 68.5609 20.1908C68.5609 20.1908 68.5609 20.1329 68.5609 20.0751C68.4915 20.0173 68.422 20.0173 68.3526 20.0751ZM51.1998 24.0636C51.4081 24.5838 51.4775 25.1618 51.3387 25.6821C51.2692 25.9711 51.1303 26.2023 50.9914 26.4335C50.922 26.4913 50.8525 26.6069 50.7137 26.6647C50.6442 26.7225 50.5748 26.7225 50.5053 26.7225C50.3664 26.7225 50.297 26.6647 50.1581 26.6069C50.0887 26.5491 50.0192 26.4335 49.9498 26.3757C49.8109 26.1445 49.8109 25.8555 49.8803 25.6243C49.8803 25.3353 49.9498 25.0462 50.0887 24.7572C50.1581 24.4682 50.297 24.1792 50.3664 23.948C50.5053 23.659 50.5748 23.4277 50.7137 23.1965C50.922 23.4855 51.0609 23.7746 51.1998 24.0636Z" fill="black"/>
<path d="M75.5227 20.0751C75.4533 20.0173 75.3839 20.0173 75.3839 20.0751C74.5505 20.6532 73.7866 21.2312 72.9533 21.7514C72.5366 22.0405 72.12 22.2717 71.7033 22.5029C71.2866 22.7919 70.8005 23.0231 70.3838 23.1965C70.1755 23.3121 69.8977 23.3699 69.6894 23.4277C69.5505 23.4855 69.4811 23.4855 69.3422 23.5434C69.2727 23.5434 69.2033 23.5434 69.2033 23.5434H69.0644C68.9949 23.5434 68.9949 23.5434 68.9949 23.4855C68.9949 23.4855 68.9255 23.4855 68.9255 23.4277C68.9255 23.3699 68.8561 23.3121 68.8561 23.1965C68.7866 23.0231 68.7172 22.8497 68.7172 22.6185C68.7172 22.2139 68.7172 21.8092 68.7866 21.4046C68.7866 21.1734 68.7866 20.9422 68.8561 20.711C68.8561 20.5376 68.9255 20.3064 68.9255 20.1329C68.9255 20.0751 68.9255 20.0751 68.9255 20.0751C68.9949 19.7861 68.7172 19.5549 68.3699 19.5549C68.0922 19.5549 67.8144 19.7283 67.8144 20.0173C67.8144 20.2486 67.8144 20.4798 67.8144 20.711C67.8144 20.8844 67.8144 21.1156 67.8144 21.3468C67.8144 21.8092 67.8838 22.2717 67.9533 22.7341C68.0227 22.9653 68.0922 23.1965 68.1616 23.4277C68.2311 23.5434 68.3005 23.659 68.4394 23.7746C68.5088 23.8324 68.5783 23.8902 68.6477 23.948C68.7866 24.0058 68.8561 24.0058 68.9949 24.0058H69.2033C69.3422 24.0058 69.4116 24.0058 69.4811 24.0058C69.6199 23.948 69.7588 23.8902 69.8977 23.8902C70.1061 23.7746 70.3838 23.659 70.5922 23.5434C71.0783 23.3699 71.4949 23.0809 71.9811 22.8497C72.3977 22.5607 72.8144 22.2717 73.1616 21.9827C73.995 21.4046 74.7589 20.8266 75.5227 20.1908C75.5922 20.1908 75.5922 20.1329 75.5227 20.0751ZM67.8838 18.341C67.8838 18.3988 67.8838 18.5145 67.8838 18.5723C67.9533 18.7457 68.0922 18.8613 68.3005 18.8613C68.5783 18.9191 68.7866 18.7457 68.7866 18.5723V18.5145C68.7866 18.4566 68.7866 18.3988 68.7866 18.341C68.8561 18.2832 68.8561 18.1676 68.8561 18.1098C68.8561 18.1098 68.8561 18.052 68.9255 17.9942C69.1338 17.8208 69.1338 17.474 68.9255 17.3006C68.7172 17.1272 68.3005 17.1272 68.0922 17.3006C68.0227 17.3584 68.0227 17.4162 67.9533 17.474C67.9533 17.474 67.9533 17.5318 67.9533 17.5896C67.8838 17.5896 67.8838 17.6474 67.8838 17.6474C67.8838 17.7052 67.8838 17.7052 67.8838 17.763C67.8144 17.8786 67.8144 17.9942 67.8144 18.052C67.8144 18.1676 67.8838 18.2254 67.8838 18.341Z" fill="black"/>
<path d="M31.4428 5.56647C31.165 5.10405 30.8872 4.64162 30.54 4.23699C30.1928 3.83237 29.8456 3.48555 29.3594 3.13873C28.5261 2.44509 27.415 1.92485 26.3039 1.57803C25.7483 1.40462 25.1928 1.28902 24.6372 1.17341C24.4289 1.17341 24.29 1.17341 24.1511 1.11561H23.9428L23.7344 1.0578H23.3178L22.8316 1C22.2761 1 21.6511 0.999999 21.0261 1.0578C20.8872 1.0578 20.7483 1.11561 20.6094 1.11561C20.4705 1.11561 20.3316 1.11561 20.1928 1.17341L19.7066 1.23121L19.29 1.34682C18.7344 1.46243 18.1789 1.57803 17.6233 1.75145C17.3455 1.86705 17.0677 1.98266 16.79 2.04046C16.6511 2.09827 16.5122 2.15607 16.3733 2.21387C16.3039 2.27167 16.165 2.32948 16.0261 2.38728C14.9844 2.79191 13.9427 3.31214 12.9705 3.83237C11.0955 4.98844 9.35939 6.26011 7.76217 7.7052C6.99828 8.39884 6.30383 9.15029 5.60939 9.95954C4.91494 10.711 4.28994 11.5202 3.73438 12.3873C3.10938 13.2543 2.62327 14.1214 2.2066 15.0462C1.78993 15.9133 1.44271 16.896 1.23438 17.8786C1.02604 18.8035 0.956597 19.8439 1.02604 20.8266C1.09549 21.3468 1.23438 21.8092 1.37326 22.3295C1.51215 22.7919 1.78993 23.2543 2.06771 23.7168L2.27604 24.0636C2.34549 24.1792 2.41493 24.2948 2.48438 24.3526C2.55382 24.4104 2.55382 24.4682 2.62327 24.526L2.90105 24.8728C2.97049 24.8728 2.97049 24.9306 3.03994 24.9884L3.31771 25.2775C3.4566 25.3931 3.52605 25.4509 3.66494 25.5665L3.80383 25.6821C3.87327 25.7399 3.94272 25.7977 3.94272 25.8555L4.28994 26.0867C4.42883 26.1445 4.56772 26.2601 4.63716 26.3179L4.8455 26.4335C4.91494 26.4913 4.98438 26.4913 5.05383 26.5491C5.26216 26.6647 5.53994 26.8382 5.74828 26.9538C6.30383 27.185 6.78994 27.4162 7.3455 27.6474C8.38717 28.052 9.49828 28.3988 10.54 28.7457C11.6511 29.0347 12.7622 29.3237 13.8039 29.6127C16.0261 30.2486 18.1789 30.7688 20.2622 31.5202C20.7483 31.6936 21.2344 31.9249 21.7205 32.1561C22.2066 32.3295 22.6928 32.6185 23.1094 32.8497C23.5261 33.1387 23.9428 33.4277 24.2205 33.7746C24.5678 34.1214 24.7067 34.4682 24.7761 34.8728C24.8455 35.104 24.8455 35.2775 24.7761 35.5087C24.7067 35.6821 24.6372 35.8555 24.5678 36.0867C24.4289 36.2601 24.29 36.4335 24.1511 36.6069C24.0122 36.7803 23.8039 36.9538 23.665 37.1272C22.9011 37.8208 21.9983 38.341 21.0955 38.8613C20.1233 39.3237 19.1511 39.7283 18.04 40.0173C17.5539 40.1908 16.9983 40.3064 16.4427 40.3642C16.165 40.422 15.8872 40.422 15.6789 40.422C15.4011 40.422 15.1233 40.422 14.8455 40.422C14.3594 40.3642 13.8039 40.2486 13.4566 39.9595C13.2483 39.8439 13.1094 39.6705 13.04 39.4393C12.9011 39.2659 12.8316 39.0925 12.8316 38.8613C12.7622 38.6301 12.7622 38.3988 12.7622 38.1676C12.7622 38.052 12.7622 37.9364 12.7622 37.8786C12.8316 37.763 12.8316 37.6474 12.8316 37.5318C12.9705 37.0694 13.1094 36.6069 13.2483 36.1445C13.3177 36.0867 13.2483 35.9711 13.1094 35.9133C13.04 35.8555 12.9011 35.9133 12.8316 36.0289C12.6233 36.4913 12.4844 36.9538 12.3455 37.4162C12.2761 37.5318 12.2761 37.6474 12.2761 37.8208C12.2066 37.9364 12.2066 38.052 12.2066 38.1676C12.2066 38.3988 12.2066 38.6879 12.2066 38.9191C12.2761 39.1503 12.3455 39.4393 12.4844 39.6705C12.6233 39.9017 12.8316 40.1329 13.04 40.3064C13.3177 40.5376 13.5955 40.6532 13.8733 40.7688C14.1511 40.8844 14.4289 40.9422 14.7761 40.9422C15.0539 41 15.4011 41 15.6789 41C15.9566 41 16.3039 41 16.5816 40.9422C17.1372 40.8844 17.7622 40.7688 18.3177 40.6532C18.8733 40.4798 19.4289 40.3064 19.915 40.1329C20.4705 39.9017 21.0261 39.6705 21.5122 39.4393C22.4844 38.9191 23.4566 38.341 24.29 37.6474C24.4983 37.474 24.7067 37.2428 24.915 37.0694C25.0539 36.8382 25.2622 36.6069 25.4011 36.3757C25.54 36.1445 25.6094 35.9133 25.6789 35.6243C25.7483 35.5665 25.7483 35.5087 25.7483 35.3931C25.7483 35.3353 25.7483 35.2775 25.7483 35.2197C25.7483 35.104 25.7483 34.9306 25.7483 34.815C25.6789 34.237 25.4011 33.7168 25.0539 33.3121C24.6372 32.8497 24.2205 32.5029 23.7344 32.2139C23.2483 31.9249 22.7622 31.6358 22.2066 31.4046C21.7205 31.1734 21.165 30.9422 20.6789 30.7688C19.5678 30.3642 18.5261 30.0173 17.415 29.6705C16.3733 29.3815 15.2622 29.0925 14.1511 28.7457C13.1094 28.4566 11.9983 28.1676 10.9566 27.8208C9.91495 27.5318 8.80384 27.185 7.83161 26.7803C7.3455 26.6069 6.85939 26.3757 6.37328 26.1445C6.16494 26.0289 5.88716 25.9133 5.67883 25.7399C5.60939 25.7399 5.53994 25.6821 5.53994 25.6821L5.33161 25.5665C5.26216 25.5087 5.12327 25.4509 5.05383 25.3353L4.77605 25.104C4.70661 25.104 4.63716 25.0462 4.56772 24.9884L4.42883 24.8728C4.35938 24.815 4.28994 24.7572 4.22049 24.6416L3.94272 24.4104C3.87327 24.3526 3.87327 24.2948 3.80383 24.2948L3.66494 24.1214L3.59549 24.0058C3.52605 23.948 3.52605 23.8902 3.4566 23.8324C3.38716 23.7746 3.31771 23.659 3.24827 23.6012L3.03994 23.3121C2.8316 22.9075 2.62327 22.5029 2.48438 22.0405C2.34549 21.6358 2.27604 21.1734 2.2066 20.711C2.06771 19.8439 2.13716 18.9191 2.34549 17.9942C2.55382 17.1272 2.90105 16.2601 3.24827 15.3931C3.66494 14.526 4.15105 13.659 4.70661 12.8497C5.26216 12.0405 5.81772 11.2312 6.51217 10.4798C7.13717 9.72832 7.83161 9.03468 8.5955 8.34104C10.1233 6.89595 11.79 5.62428 13.5955 4.58381C14.4983 4.00578 15.4705 3.54335 16.4427 3.13873C16.5816 3.08092 16.7205 3.02312 16.8594 2.96532C16.9983 2.90751 17.0677 2.84971 17.2066 2.84971C17.4844 2.7341 17.6927 2.6185 17.9705 2.56069C18.5261 2.38728 19.0122 2.21387 19.5678 2.09827C20.6094 1.86705 21.7205 1.75145 22.7622 1.80925H23.1789L23.5955 1.86705H23.8039L24.0122 1.92486C24.1511 1.92486 24.29 1.92486 24.4289 1.92486C24.9844 2.04046 25.54 2.15607 26.0261 2.27168C27.0678 2.56069 28.04 3.02312 28.8039 3.65896C29.6372 4.23699 30.2622 4.98844 30.7483 5.85549C31.2344 6.66474 31.5817 7.53179 31.79 8.45665C31.9983 9.3815 32.0678 10.3064 32.0678 11.2312C32.1372 12.1561 32.0678 13.1387 31.9289 14.0636C31.8594 14.526 31.79 14.9884 31.7206 15.4509C31.6511 15.9133 31.5122 16.3757 31.4428 16.8382C31.3733 16.9538 31.4428 17.0694 31.5817 17.0694C31.7206 17.1272 31.8594 17.0694 31.8594 16.9538C31.9983 16.4913 32.1372 16.0289 32.2067 15.5087C32.3456 15.0462 32.415 14.5838 32.4844 14.1214C32.6233 13.1387 32.7622 12.2139 32.7622 11.2312C32.7622 10.2486 32.6233 9.3237 32.4844 8.34104C32.2761 7.41619 31.9289 6.43353 31.4428 5.56647Z" stroke="black" mask="url(#path-1-outside-1_413_197)"/>
<path d="M39.1528 20.0751C39.0833 20.0173 39.0139 20.0173 38.9444 20.0751C38.3194 20.6532 37.625 21.1734 36.8611 21.6936C36.1666 22.1561 35.4027 22.6763 34.6389 23.0809C34.4305 23.1965 34.2222 23.2543 34.0139 23.3699C33.875 23.4277 33.6666 23.4855 33.4583 23.5434C33.25 23.6012 33.0416 23.6012 32.9722 23.5434C32.9027 23.5434 32.9027 23.4855 32.8333 23.4277C32.7639 23.3699 32.7639 23.3121 32.7639 23.1965C32.6944 23.0231 32.6944 22.8497 32.6944 22.6763C32.6944 22.5029 32.6944 22.3295 32.6944 22.0983C32.7639 21.7514 32.7639 21.3468 32.8333 20.9422C32.8333 20.711 32.9027 20.5376 32.9027 20.3064C32.9027 20.1329 32.9027 19.9017 32.8333 19.6705C32.8333 19.5549 32.7639 19.4393 32.6944 19.3237C32.6944 19.2659 32.625 19.2081 32.5555 19.0925C32.4861 19.0347 32.4166 18.9769 32.2777 18.9769C32.0694 18.8613 31.8611 18.8613 31.7222 18.8613C31.6527 18.9191 31.5833 18.9191 31.4444 18.9191C31.4444 18.9191 31.4444 18.9191 31.375 18.9769C31.3055 18.9769 31.3055 18.9769 31.2361 19.0347C30.9583 19.1503 30.75 19.3237 30.6111 19.4393C30.4027 19.6127 30.2638 19.7861 30.125 19.9595C29.8472 20.3064 29.5694 20.6532 29.2916 21C28.8055 21.6936 28.3888 22.3873 27.9722 23.0809C27.8333 23.3699 27.7638 23.6012 27.625 23.8324L27.7638 8.45665C27.7638 8.16763 27.4861 7.93642 27.2083 7.99422C26.8611 7.99422 26.5833 8.16763 26.6527 8.45665L26.7916 25.3931C26.7222 25.6243 26.9305 25.8555 27.2083 25.9133C27.4861 26.0289 27.8333 25.9133 27.9027 25.6243C28.25 24.9306 28.5972 24.1792 28.9444 23.4855C29.2916 22.7341 29.7083 22.0405 30.125 21.3468C30.3333 21 30.6111 20.6532 30.8194 20.3642C30.9583 20.1908 31.0972 20.0751 31.2361 19.9017C31.375 19.7861 31.5138 19.6705 31.6527 19.6127C31.6527 19.6127 31.7916 19.5549 31.8611 19.5549C31.9305 19.5549 31.9305 19.5549 31.9305 19.5549C31.9305 19.5549 31.9305 19.5549 32 19.5549C32 19.5549 32 19.5549 32 19.6127C32.0694 19.6705 32.0694 19.7283 32.0694 19.7861C32.1389 19.9595 32.1389 20.1329 32.1389 20.3064C32.1389 20.5376 32.1389 20.711 32.1389 20.8844C32.1389 21.289 32.0694 21.6936 32.0694 22.0983C32.0694 22.2717 32.0694 22.5029 32.0694 22.6763C32.0694 22.9075 32.0694 23.1387 32.1389 23.3121C32.2083 23.4277 32.2777 23.5434 32.3472 23.659C32.3472 23.7168 32.4166 23.7746 32.4861 23.8324C32.5555 23.8902 32.625 23.948 32.6944 23.948C32.8333 24.0058 33.0416 24.0636 33.1805 24.0636C33.3194 24.0636 33.4583 24.0058 33.5972 24.0058C33.8055 23.8902 34.0833 23.8324 34.2916 23.7168C34.5 23.6012 34.7083 23.5434 34.9166 23.4277C35.6805 22.9653 36.4444 22.4451 37.1389 21.8671C37.8333 21.3468 38.4583 20.7688 39.1528 20.1908C39.1528 20.1908 39.1528 20.1329 39.1528 20.0751Z" stroke="black" mask="url(#path-1-outside-1_413_197)"/>
<path d="M49.0068 20.0751C48.9374 20.0173 48.868 19.9595 48.7985 20.0173C48.0346 20.5376 47.3402 21 46.6457 21.5202C46.2291 21.7514 45.8818 21.9827 45.5346 22.2139C45.3263 22.3295 45.1179 22.4451 44.979 22.5029C44.7707 22.6185 44.5624 22.6763 44.354 22.7341C44.1457 22.7919 44.0068 22.7919 43.8679 22.7341C43.729 22.7341 43.6596 22.6185 43.5207 22.4451C43.4513 22.3295 43.3818 22.1561 43.3124 21.9827C43.2429 21.8671 43.2429 21.8092 43.1735 21.6936C43.1735 21.6358 43.1735 21.578 43.104 21.5202C43.104 21.4624 43.104 21.4046 43.0346 21.3468C42.9652 21.289 42.9652 21.289 42.8957 21.2312C42.8263 21.1734 42.6874 21.1734 42.6179 21.1734C42.5485 21.1734 42.479 21.1734 42.4096 21.2312C42.3402 21.2312 42.2707 21.2312 42.2707 21.289C42.1318 21.3468 42.0624 21.4046 41.9235 21.5202C41.7846 21.6358 41.6457 21.8092 41.5068 21.9827C41.229 22.2717 40.8818 22.5029 40.5346 22.7341C40.2568 23.0231 39.8401 23.1965 39.4929 23.3121C39.354 23.3699 39.1457 23.3699 39.0068 23.3699C38.8679 23.3699 38.7985 23.3121 38.729 23.1965C38.6596 23.0809 38.5901 22.9653 38.5207 22.7919C38.5207 22.6763 38.5207 22.5029 38.5207 22.3295C38.5207 21.9827 38.5901 21.6358 38.7985 21.3468C38.9374 21 39.1457 20.711 39.4235 20.422C39.6318 20.1908 39.9096 20.0173 40.2568 20.0173C40.5346 19.9595 40.9513 20.0173 41.229 20.1908C41.2985 20.2486 41.4374 20.3064 41.5068 20.422C41.5068 20.422 41.5068 20.4798 41.5068 20.5376V20.5954C41.4374 20.8844 41.5763 21.1156 41.9235 21.2312C42.2013 21.289 42.5485 21.1156 42.6179 20.8844C42.6874 20.711 42.6874 20.5376 42.6874 20.3642C42.6179 20.1908 42.5485 20.0751 42.479 19.9595C42.2707 19.6705 42.0624 19.4971 41.7846 19.3815C41.5068 19.2659 41.229 19.1503 40.9513 19.0925C40.6735 19.0925 40.3263 19.0925 40.0485 19.1503C39.7707 19.1503 39.4929 19.2659 39.2151 19.4393C38.9374 19.5549 38.729 19.7283 38.5901 19.9017C38.3124 20.2486 38.0346 20.6532 37.8957 21.0578C37.6874 21.4624 37.6179 21.8671 37.6179 22.3295C37.5485 22.5029 37.6179 22.7341 37.6874 22.9653C37.7568 23.1965 37.8263 23.4277 38.0346 23.659C38.1735 23.7746 38.3124 23.8324 38.4513 23.8902C38.5901 24.0058 38.729 24.0058 38.9374 24.0636C39.2151 24.0636 39.5624 24.0058 39.7707 23.948C40.0485 23.8324 40.2568 23.7168 40.4651 23.6012C40.6735 23.4855 40.8818 23.3699 41.0902 23.2543C41.4374 22.9653 41.7152 22.6185 42.0624 22.3295C42.2013 22.1561 42.3402 22.0405 42.479 21.8671C42.479 21.8671 42.5485 21.8092 42.5485 21.7514C42.5485 21.8092 42.5485 21.8092 42.6179 21.8671C42.6179 21.9249 42.6874 22.0405 42.6874 22.1561C42.8263 22.3295 42.8957 22.5029 43.0346 22.7341C43.104 22.7919 43.1735 22.9075 43.3124 22.9653C43.3818 23.0809 43.5207 23.1387 43.6596 23.1965C43.7985 23.2543 44.0068 23.2543 44.1457 23.2543C44.2846 23.2543 44.4235 23.1965 44.5624 23.1965C44.7707 23.0809 45.0485 22.9653 45.1874 22.9075C45.3957 22.7919 45.604 22.6763 45.8124 22.5607C46.1596 22.2717 46.5763 22.0405 46.9235 21.8092C47.6179 21.289 48.3124 20.7688 49.0068 20.2486C49.0763 20.1908 49.0763 20.1329 49.0068 20.0751Z" stroke="black" mask="url(#path-1-outside-1_413_197)"/>
<path d="M68.3526 20.0751C67.7276 20.6532 67.0331 21.1734 66.2692 21.6936C65.5748 22.1561 64.8109 22.6763 64.047 23.0809C63.8387 23.1965 63.6304 23.2543 63.4915 23.3699C63.2831 23.4277 63.0748 23.4855 62.8665 23.5434C62.6581 23.6012 62.4498 23.6012 62.3803 23.5434C62.3109 23.5434 62.3109 23.4855 62.2415 23.4277C62.172 23.3699 62.172 23.3121 62.172 23.1965C62.1026 23.0231 62.1026 22.8497 62.1026 22.6763C62.1026 22.5029 62.1026 22.3295 62.1026 22.0983C62.172 21.7514 62.2415 21.3468 62.2415 20.9422C62.2415 20.711 62.3109 20.5376 62.3109 20.3064C62.3109 20.1329 62.3109 19.9017 62.2415 19.6705C62.2415 19.5549 62.172 19.4393 62.1026 19.3237C62.1026 19.2659 62.0331 19.2081 61.9637 19.0925C61.8942 19.0347 61.8248 18.9769 61.6859 18.9769C61.4776 18.8613 61.2692 18.8613 61.1304 18.8613C61.0609 18.9191 60.9915 18.9191 60.922 18.9191C60.8526 18.9191 60.8526 18.9191 60.7831 18.9769C60.7137 18.9769 60.7137 18.9769 60.6442 19.0347C60.3665 19.1503 60.1581 19.3237 60.0192 19.4393C59.8109 19.6127 59.672 19.7861 59.5331 19.9595C59.2553 20.3064 58.9776 20.6532 58.6998 21C58.2137 21.6936 57.797 22.3873 57.3803 23.0809C57.2414 23.3699 57.172 23.6012 57.0331 23.8324L57.172 8.45665C57.172 8.16763 56.8942 7.93642 56.6164 7.99422C56.2692 7.99422 55.9914 8.16763 56.0609 8.45665V8.74567C55.6442 11 54.9498 13.1965 54.047 15.3931C53.5609 16.4913 53.0053 17.6474 52.4498 18.7457C51.8942 19.7861 51.2692 20.8844 50.7137 21.9249C50.5053 21.7514 50.297 21.578 50.0192 21.4624C49.9498 21.3468 49.8109 21.289 49.7414 21.2312C49.6025 21.1156 49.5331 21 49.4637 20.9422C49.3942 20.7688 49.3248 20.5376 49.3942 20.3642C49.3942 20.2486 49.4637 20.1329 49.5331 20.0173C49.5331 19.9595 49.5331 19.9017 49.6025 19.8439C49.6025 19.8439 49.6025 19.7861 49.672 19.7861V19.7283C49.8803 19.4971 49.8803 19.2081 49.6025 19.0347C49.3248 18.9191 48.9775 18.9191 48.7692 19.1503L48.6998 19.2081V19.2659C48.6303 19.3237 48.6303 19.3815 48.5609 19.3815C48.5609 19.4971 48.4914 19.5549 48.422 19.6705C48.3525 19.8439 48.2831 20.0173 48.2831 20.1908C48.2136 20.3642 48.2136 20.5954 48.2831 20.7688C48.3525 21 48.422 21.1734 48.4914 21.3468C48.6303 21.5202 48.7692 21.6936 48.9081 21.8092C49.1164 21.9249 49.2553 22.0405 49.4637 22.1561C49.7414 22.3295 49.9498 22.5029 50.2275 22.6763C50.2275 22.7341 50.2275 22.7341 50.297 22.7341C50.0887 23.0809 49.9498 23.4277 49.8109 23.7168C49.672 24.0058 49.5331 24.2948 49.3942 24.5838C49.3248 24.9306 49.2553 25.2197 49.1859 25.5665C49.1859 25.6821 49.1164 25.8555 49.1859 26.0289C49.1859 26.2023 49.1859 26.4335 49.3248 26.6069C49.3942 26.7803 49.5331 26.9538 49.7414 27.0694C49.8803 27.185 50.0887 27.3006 50.3664 27.3584C50.5053 27.3584 50.6442 27.3584 50.7831 27.3006C50.922 27.3006 51.0609 27.2428 51.1303 27.185C51.3387 27.0694 51.547 26.896 51.6164 26.7803C51.8942 26.4913 52.0331 26.1445 52.172 25.8555C52.3109 25.1618 52.3109 24.4682 52.1025 23.8324C51.8942 23.3121 51.6164 22.7919 51.1303 22.3295C51.1998 22.2717 51.1998 22.2717 51.1998 22.2717C51.7553 21.1156 52.3803 20.0173 52.8664 18.9191C53.422 17.763 53.9776 16.6069 54.3942 15.4509C55.1581 13.7168 55.7137 11.8671 56.0609 10.0173L56.1998 25.3931C56.1303 25.6243 56.3387 25.8555 56.6164 25.9133C56.8942 26.0289 57.2414 25.9133 57.3109 25.6243C57.6581 24.9306 58.0053 24.1792 58.3526 23.4855C58.6998 22.7341 59.1165 22.0405 59.5331 21.3468C59.7415 21 60.0192 20.6532 60.2276 20.3642C60.3665 20.1908 60.5053 20.0751 60.6442 19.9017C60.7831 19.7861 60.922 19.6705 61.0609 19.6127C61.0609 19.6127 61.1998 19.5549 61.2692 19.5549C61.3387 19.5549 61.3387 19.5549 61.3387 19.5549C61.3387 19.5549 61.3387 19.5549 61.4081 19.5549C61.4081 19.5549 61.4081 19.5549 61.4081 19.6127C61.4776 19.6705 61.4776 19.7283 61.4776 19.7861C61.547 19.9595 61.547 20.1329 61.547 20.3064C61.547 20.5376 61.547 20.711 61.547 20.8844C61.547 21.289 61.4776 21.6936 61.4776 22.0983C61.4776 22.2717 61.4776 22.5029 61.4776 22.6763C61.4776 22.9075 61.4776 23.1387 61.547 23.3121C61.6165 23.4277 61.6859 23.5434 61.7554 23.659C61.7554 23.7168 61.8248 23.7746 61.8942 23.8324C61.9637 23.8902 62.0331 23.948 62.1026 23.948C62.2415 24.0058 62.4498 24.0636 62.5887 24.0636C62.7276 24.0636 62.8665 24.0058 63.0053 24.0058C63.2831 23.8902 63.4915 23.8324 63.6998 23.7168C63.9081 23.6012 64.1165 23.5434 64.3248 23.4277C65.0887 22.9653 65.8526 22.4451 66.547 21.8671C67.2415 21.3468 67.8665 20.7688 68.5609 20.1908C68.5609 20.1908 68.5609 20.1329 68.5609 20.0751C68.4915 20.0173 68.422 20.0173 68.3526 20.0751ZM51.1998 24.0636C51.4081 24.5838 51.4775 25.1618 51.3387 25.6821C51.2692 25.9711 51.1303 26.2023 50.9914 26.4335C50.922 26.4913 50.8525 26.6069 50.7137 26.6647C50.6442 26.7225 50.5748 26.7225 50.5053 26.7225C50.3664 26.7225 50.297 26.6647 50.1581 26.6069C50.0887 26.5491 50.0192 26.4335 49.9498 26.3757C49.8109 26.1445 49.8109 25.8555 49.8803 25.6243C49.8803 25.3353 49.9498 25.0462 50.0887 24.7572C50.1581 24.4682 50.297 24.1792 50.3664 23.948C50.5053 23.659 50.5748 23.4277 50.7137 23.1965C50.922 23.4855 51.0609 23.7746 51.1998 24.0636Z" stroke="black" mask="url(#path-1-outside-1_413_197)"/>
<path d="M75.5227 20.0751C75.4533 20.0173 75.3839 20.0173 75.3839 20.0751C74.5505 20.6532 73.7866 21.2312 72.9533 21.7514C72.5366 22.0405 72.12 22.2717 71.7033 22.5029C71.2866 22.7919 70.8005 23.0231 70.3838 23.1965C70.1755 23.3121 69.8977 23.3699 69.6894 23.4277C69.5505 23.4855 69.4811 23.4855 69.3422 23.5434C69.2727 23.5434 69.2033 23.5434 69.2033 23.5434H69.0644C68.9949 23.5434 68.9949 23.5434 68.9949 23.4855C68.9949 23.4855 68.9255 23.4855 68.9255 23.4277C68.9255 23.3699 68.8561 23.3121 68.8561 23.1965C68.7866 23.0231 68.7172 22.8497 68.7172 22.6185C68.7172 22.2139 68.7172 21.8092 68.7866 21.4046C68.7866 21.1734 68.7866 20.9422 68.8561 20.711C68.8561 20.5376 68.9255 20.3064 68.9255 20.1329C68.9255 20.0751 68.9255 20.0751 68.9255 20.0751C68.9949 19.7861 68.7172 19.5549 68.3699 19.5549C68.0922 19.5549 67.8144 19.7283 67.8144 20.0173C67.8144 20.2486 67.8144 20.4798 67.8144 20.711C67.8144 20.8844 67.8144 21.1156 67.8144 21.3468C67.8144 21.8092 67.8838 22.2717 67.9533 22.7341C68.0227 22.9653 68.0922 23.1965 68.1616 23.4277C68.2311 23.5434 68.3005 23.659 68.4394 23.7746C68.5088 23.8324 68.5783 23.8902 68.6477 23.948C68.7866 24.0058 68.8561 24.0058 68.9949 24.0058H69.2033C69.3422 24.0058 69.4116 24.0058 69.4811 24.0058C69.6199 23.948 69.7588 23.8902 69.8977 23.8902C70.1061 23.7746 70.3838 23.659 70.5922 23.5434C71.0783 23.3699 71.4949 23.0809 71.9811 22.8497C72.3977 22.5607 72.8144 22.2717 73.1616 21.9827C73.995 21.4046 74.7589 20.8266 75.5227 20.1908C75.5922 20.1908 75.5922 20.1329 75.5227 20.0751ZM67.8838 18.341C67.8838 18.3988 67.8838 18.5145 67.8838 18.5723C67.9533 18.7457 68.0922 18.8613 68.3005 18.8613C68.5783 18.9191 68.7866 18.7457 68.7866 18.5723V18.5145C68.7866 18.4566 68.7866 18.3988 68.7866 18.341C68.8561 18.2832 68.8561 18.1676 68.8561 18.1098C68.8561 18.1098 68.8561 18.052 68.9255 17.9942C69.1338 17.8208 69.1338 17.474 68.9255 17.3006C68.7172 17.1272 68.3005 17.1272 68.0922 17.3006C68.0227 17.3584 68.0227 17.4162 67.9533 17.474C67.9533 17.474 67.9533 17.5318 67.9533 17.5896C67.8838 17.5896 67.8838 17.6474 67.8838 17.6474C67.8838 17.7052 67.8838 17.7052 67.8838 17.763C67.8144 17.8786 67.8144 17.9942 67.8144 18.052C67.8144 18.1676 67.8838 18.2254 67.8838 18.341Z" stroke="black" mask="url(#path-1-outside-1_413_197)"/>
</svg>
