<svg width="101" height="66" viewBox="0 0 101 66" fill="none" xmlns="http://www.w3.org/2000/svg">
<mask id="path-1-outside-1_329_36" maskUnits="userSpaceOnUse" x="-0.0136719" y="0.228027" width="101" height="66" fill="black">
<rect fill="white" x="-0.0136719" y="0.228027" width="101" height="66"/>
<path d="M41.5297 8.53439C41.1597 7.7945 40.7898 7.05462 40.3274 6.40722C39.8649 5.75982 39.4025 5.20491 38.7551 4.64999C37.6453 3.54017 36.1655 2.7078 34.6858 2.15288C33.9459 1.87542 33.206 1.69045 32.4661 1.50548C32.1886 1.50548 32.0037 1.50548 31.8187 1.413H31.5412L31.2638 1.32051H30.7089L30.0615 1.22803C29.3216 1.22803 28.4892 1.22803 27.6569 1.32051C27.4719 1.32051 27.2869 1.413 27.1019 1.413C26.917 1.413 26.732 1.413 26.547 1.50548L25.8996 1.59797L25.3447 1.78294C24.6048 1.96791 23.8649 2.15288 23.1251 2.43034C22.7551 2.61531 22.3852 2.80028 22.0152 2.89277C21.8303 2.98525 21.6453 3.07774 21.4603 3.17022C21.3678 3.26271 21.1829 3.3552 20.9979 3.44768C19.6106 4.09508 18.2233 4.92745 16.9285 5.75982C14.4314 7.60953 12.1193 9.64421 9.99211 11.9563C8.97477 13.0662 8.04991 14.2685 7.12506 15.5633C6.2002 16.7656 5.36783 18.0604 4.62795 19.4477C3.79558 20.835 3.14818 22.2222 2.59326 23.702C2.03835 25.0893 1.57592 26.6616 1.29847 28.2338C1.02101 29.7136 0.928525 31.3783 1.02101 32.9506C1.1135 33.7829 1.29847 34.5228 1.48344 35.3552C1.66841 36.0951 2.03835 36.835 2.40829 37.5748L2.68575 38.1298C2.77824 38.3147 2.87072 38.4997 2.96321 38.5922C3.05569 38.6847 3.05569 38.7772 3.14818 38.8696L3.51812 39.4246C3.61061 39.4246 3.61061 39.517 3.70309 39.6095L4.07303 40.072C4.258 40.2569 4.35049 40.3494 4.53546 40.5344L4.72043 40.7194C4.81292 40.8118 4.9054 40.9043 4.9054 40.9968L5.36783 41.3668C5.5528 41.4592 5.73777 41.6442 5.83026 41.7367L6.10772 41.9217C6.2002 42.0142 6.29269 42.0142 6.38517 42.1066C6.66263 42.2916 7.03257 42.5691 7.31003 42.754C8.04991 43.124 8.69731 43.4939 9.43719 43.8639C10.8245 44.5113 12.3042 45.0662 13.6915 45.6211C15.1713 46.0835 16.6511 46.5459 18.0384 47.0084C20.9979 48.0257 23.8649 48.8581 26.6395 50.0604C27.2869 50.3379 27.9343 50.7078 28.5817 51.0777C29.2291 51.3552 29.8765 51.8176 30.4314 52.1876C30.9863 52.65 31.5412 53.1124 31.9112 53.6673C32.3736 54.2222 32.5586 54.7772 32.6511 55.4246C32.7436 55.7945 32.7436 56.072 32.6511 56.4419C32.5586 56.7194 32.4661 56.9968 32.3736 57.3668C32.1886 57.6442 32.0037 57.9217 31.8187 58.1991C31.6337 58.4766 31.3563 58.754 31.1713 59.0315C30.154 60.1413 28.9516 60.9737 27.7493 61.8061C26.4545 62.5459 25.1597 63.1933 23.68 63.6558C23.0326 63.9332 22.2927 64.1182 21.5528 64.2107C21.1829 64.3032 20.8129 64.3032 20.5355 64.3032C20.1655 64.3032 19.7956 64.3032 19.4256 64.3032C18.7782 64.2107 18.0384 64.0257 17.5759 63.5633C17.2985 63.3783 17.1135 63.1009 17.021 62.7309C16.836 62.4535 16.7436 62.176 16.7436 61.8061C16.6511 61.4361 16.6511 61.0662 16.6511 60.6962C16.6511 60.5113 16.6511 60.3263 16.6511 60.2338C16.7436 60.0488 16.7436 59.8639 16.7436 59.6789C16.9285 58.939 17.1135 58.1991 17.2985 57.4592C17.391 57.3668 17.2985 57.1818 17.1135 57.0893C17.021 56.9968 16.836 57.0893 16.7436 57.2743C16.4661 58.0142 16.2811 58.754 16.0962 59.4939C16.0037 59.6789 16.0037 59.8639 16.0037 60.1413C15.9112 60.3263 15.9112 60.5113 15.9112 60.6962C15.9112 61.0662 15.9112 61.5286 15.9112 61.8985C16.0037 62.2685 16.0962 62.7309 16.2811 63.1009C16.4661 63.4708 16.7436 63.8407 17.021 64.1182C17.391 64.4881 17.7609 64.6731 18.1308 64.8581C18.5008 65.0431 18.8707 65.1355 19.3332 65.1355C19.7031 65.228 20.1655 65.228 20.5355 65.228C20.9054 65.228 21.3678 65.228 21.7378 65.1355C22.4777 65.0431 23.31 64.8581 24.0499 64.6731C24.7898 64.3957 25.5297 64.1182 26.1771 63.8407C26.917 63.4708 27.6569 63.1009 28.3042 62.7309C29.599 61.8986 30.8938 60.9737 32.0037 59.8639C32.2811 59.5864 32.5586 59.2165 32.836 58.939C33.021 58.5691 33.2985 58.1991 33.4834 57.8292C33.6684 57.4592 33.7609 57.0893 33.8534 56.6269C33.9459 56.5344 33.9459 56.4419 33.9459 56.2569C33.9459 56.1645 33.9459 56.072 33.9459 55.9795C33.9459 55.7945 33.9459 55.517 33.9459 55.3321C33.8534 54.4072 33.4834 53.5748 33.021 52.9274C32.4661 52.1876 31.9112 51.6327 31.2638 51.1702C30.6164 50.7078 29.969 50.2454 29.2291 49.8754C28.5817 49.5055 27.8418 49.1355 27.1944 48.8581C25.7147 48.2107 24.3274 47.6558 22.8476 47.1009C21.4603 46.6384 19.9805 46.176 18.5008 45.6211C17.1135 45.1587 15.6337 44.6962 14.2464 44.1413C12.8592 43.6789 11.3794 43.124 10.0846 42.4766C9.43719 42.1991 8.7898 41.8292 8.1424 41.4592C7.86494 41.2743 7.495 41.0893 7.21754 40.8118C7.12506 40.8118 7.03257 40.7194 7.03257 40.7194L6.75511 40.5344C6.66263 40.4419 6.47766 40.3494 6.38517 40.1644L6.01523 39.7945C5.92274 39.7945 5.83026 39.702 5.73777 39.6095L5.5528 39.4246C5.46032 39.3321 5.36783 39.2396 5.27535 39.0546L4.9054 38.6847C4.81292 38.5922 4.81292 38.4997 4.72043 38.4997L4.53546 38.2222L4.44298 38.0373C4.35049 37.9448 4.35049 37.8523 4.258 37.7598C4.16552 37.6673 4.07303 37.4824 3.98055 37.3899L3.70309 36.9275C3.42563 36.2801 3.14818 35.6327 2.96321 34.8928C2.77824 34.2454 2.68575 33.5055 2.59326 32.7656C2.40829 31.3783 2.50078 29.8986 2.77824 28.4188C3.05569 27.0315 3.51812 25.6442 3.98055 24.2569C4.53546 22.8696 5.18286 21.4824 5.92274 20.1876C6.66263 18.8928 7.40251 17.598 8.32737 16.3957C9.15974 15.1933 10.0846 14.0835 11.1019 12.9737C13.1366 10.6616 15.3563 8.62687 17.7609 6.96213C18.9632 6.03727 20.258 5.29739 21.5528 4.64999C21.7378 4.55751 21.9227 4.46502 22.1077 4.37254C22.2927 4.28005 22.3852 4.18756 22.5701 4.18756C22.9401 4.00259 23.2175 3.81762 23.5875 3.72514C24.3274 3.44768 24.9748 3.17022 25.7147 2.98525C27.1019 2.61531 28.5817 2.43034 29.969 2.52282H30.5239L31.0788 2.61531H31.3563L31.6337 2.7078C31.8187 2.7078 32.0037 2.7078 32.1886 2.7078C32.9285 2.89277 33.6684 3.07774 34.3158 3.26271C35.7031 3.72514 36.9979 4.46502 38.0152 5.48236C39.1251 6.40722 39.9574 7.60953 40.6048 8.99681C41.2522 10.2916 41.7147 11.6789 41.9921 13.1587C42.2696 14.6384 42.362 16.1182 42.362 17.598C42.4545 19.0777 42.362 20.65 42.1771 22.1298C42.0846 22.8696 41.9921 23.6095 41.8996 24.3494C41.8071 25.0893 41.6222 25.8292 41.5297 26.5691C41.4372 26.754 41.5297 26.939 41.7147 26.939C41.8996 27.0315 42.0846 26.939 42.0846 26.754C42.2696 26.0142 42.4545 25.2743 42.547 24.4419C42.732 23.702 42.8245 22.9621 42.917 22.2222C43.1019 20.65 43.2869 19.1702 43.2869 17.598C43.2869 16.0257 43.1019 14.5459 42.917 12.9737C42.6395 11.4939 42.1771 9.92167 41.5297 8.53439Z"/>
<path d="M51.7977 31.7483C51.7053 31.6558 51.6128 31.6558 51.5203 31.7483C50.6879 32.6731 49.7631 33.5055 48.7457 34.3379C47.8209 35.0777 46.8035 35.9101 45.7862 36.5575C45.5087 36.7425 45.2313 36.835 44.9538 37.0199C44.7688 37.1124 44.4914 37.2049 44.2139 37.2974C43.9365 37.3899 43.659 37.3899 43.5665 37.2974C43.474 37.2974 43.474 37.2049 43.3816 37.1124C43.2891 37.0199 43.2891 36.9275 43.2891 36.7425C43.1966 36.465 43.1966 36.1876 43.1966 35.9101C43.1966 35.6327 43.1966 35.3552 43.1966 34.9853C43.2891 34.4303 43.2891 33.7829 43.3816 33.1355C43.3816 32.7656 43.474 32.4881 43.474 32.1182C43.474 31.8407 43.474 31.4708 43.3816 31.1009C43.3816 30.9159 43.2891 30.7309 43.1966 30.5459C43.1966 30.4535 43.1041 30.361 43.0116 30.176C42.9191 30.0835 42.8266 29.991 42.6417 29.991C42.3642 29.8061 42.0868 29.8061 41.9018 29.8061C41.8093 29.8986 41.7168 29.8986 41.5318 29.8986C41.5318 29.8986 41.5318 29.8986 41.4394 29.991C41.3469 29.991 41.3469 29.991 41.2544 30.0835C40.8844 30.2685 40.607 30.5459 40.422 30.7309C40.1446 31.0084 39.9596 31.2858 39.7746 31.5633C39.4047 32.1182 39.0347 32.6731 38.6648 33.228C38.0174 34.3379 37.4625 35.4477 36.9076 36.5575C36.7226 37.0199 36.6301 37.3899 36.4451 37.7598L36.6301 13.1587C36.6301 12.6962 36.2602 12.3263 35.8902 12.4188C35.4278 12.4188 35.0579 12.6962 35.1503 13.1587L35.3353 40.2569C35.2428 40.6269 35.5203 40.9968 35.8902 41.0893C36.2602 41.2743 36.7226 41.0893 36.8151 40.6269C37.2775 39.517 37.7399 38.3147 38.2024 37.2049C38.6648 36.0026 39.2197 34.8928 39.7746 33.7829C40.0521 33.228 40.422 32.6731 40.6995 32.2107C40.8844 31.9332 41.0694 31.7483 41.2544 31.4708C41.4394 31.2858 41.6243 31.1009 41.8093 31.0084C41.8093 31.0084 41.9943 30.9159 42.0868 30.9159C42.1792 30.9159 42.1792 30.9159 42.1792 30.9159C42.1792 30.9159 42.1792 30.9159 42.2717 30.9159C42.2717 30.9159 42.2717 30.9159 42.2717 31.0084C42.3642 31.1009 42.3642 31.1933 42.3642 31.2858C42.4567 31.5633 42.4567 31.8407 42.4567 32.1182C42.4567 32.4881 42.4567 32.7656 42.4567 33.0431C42.4567 33.6905 42.3642 34.3379 42.3642 34.9853C42.3642 35.2627 42.3642 35.6327 42.3642 35.9101C42.3642 36.2801 42.3642 36.65 42.4567 36.9275C42.5492 37.1124 42.6417 37.2974 42.7342 37.4824C42.7342 37.5748 42.8266 37.6673 42.9191 37.7598C43.0116 37.8523 43.1041 37.9448 43.1966 37.9448C43.3816 38.0373 43.659 38.1298 43.844 38.1298C44.029 38.1298 44.2139 38.0373 44.3989 38.0373C44.6764 37.8523 45.0463 37.7598 45.3238 37.5748C45.6012 37.3899 45.8787 37.2974 46.1561 37.1124C47.1735 36.3725 48.1908 35.5402 49.1157 34.6153C50.0405 33.7829 50.8729 32.8581 51.7977 31.9332C51.7977 31.9332 51.7977 31.8407 51.7977 31.7483Z"/>
<path d="M64.9213 31.7483C64.8288 31.6558 64.7363 31.5633 64.6438 31.6558C63.6265 32.4881 62.7016 33.228 61.7768 34.0604C61.2219 34.4303 60.7594 34.8003 60.297 35.1702C60.0196 35.3552 59.7421 35.5402 59.5571 35.6327C59.2797 35.8176 59.0022 35.9101 58.7248 36.0026C58.4473 36.0951 58.2623 36.0951 58.0774 36.0026C57.8924 36.0026 57.7999 35.8176 57.6149 35.5402C57.5225 35.3552 57.43 35.0777 57.3375 34.8003C57.245 34.6153 57.245 34.5228 57.1525 34.3379C57.1525 34.2454 57.1525 34.1529 57.06 34.0604C57.06 33.9679 57.06 33.8754 56.9675 33.7829C56.8751 33.6905 56.8751 33.6905 56.7826 33.598C56.6901 33.5055 56.5051 33.5055 56.4126 33.5055C56.3201 33.5055 56.2277 33.5055 56.1352 33.598C56.0427 33.598 55.9502 33.598 55.9502 33.6905C55.7652 33.7829 55.6727 33.8754 55.4878 34.0604C55.3028 34.2454 55.1178 34.5228 54.9329 34.8003C54.5629 35.2627 54.1005 35.6327 53.6381 36.0026C53.2681 36.465 52.7132 36.7425 52.2508 36.9275C52.0658 37.0199 51.7884 37.0199 51.6034 37.0199C51.4184 37.0199 51.3259 36.9275 51.2334 36.7425C51.141 36.5575 51.0485 36.3725 50.956 36.0951C50.956 35.9101 50.956 35.6327 50.956 35.3552C50.956 34.8003 51.0485 34.2454 51.3259 33.7829C51.5109 33.228 51.7883 32.7656 52.1583 32.3032C52.4357 31.9332 52.8057 31.6558 53.2681 31.6558C53.6381 31.5633 54.193 31.6558 54.5629 31.9332C54.6554 32.0257 54.8404 32.1182 54.9329 32.3032C54.9329 32.3032 54.9329 32.3957 54.9329 32.4881V32.5806C54.8404 33.0431 55.0253 33.413 55.4878 33.598C55.8577 33.6905 56.3201 33.413 56.4126 33.0431C56.5051 32.7656 56.5051 32.4881 56.5051 32.2107C56.4126 31.9332 56.3201 31.7483 56.2277 31.5633C55.9502 31.1009 55.6727 30.8234 55.3028 30.6384C54.9329 30.4535 54.5629 30.2685 54.193 30.176C53.823 30.176 53.3606 30.176 52.9907 30.2685C52.6207 30.2685 52.2508 30.4535 51.8808 30.7309C51.5109 30.9159 51.2334 31.1933 51.0485 31.4708C50.6785 32.0257 50.3086 32.6731 50.1236 33.3205C49.8461 33.9679 49.7537 34.6153 49.7537 35.3552C49.6612 35.6327 49.7537 36.0026 49.8462 36.3725C49.9386 36.7425 50.0311 37.1124 50.3086 37.4824C50.4935 37.6673 50.6785 37.7598 50.8635 37.8523C51.0485 38.0373 51.2334 38.0373 51.5109 38.1298C51.8808 38.1298 52.3433 38.0373 52.6207 37.9448C52.9907 37.7598 53.2681 37.5748 53.5456 37.3899C53.823 37.2049 54.1005 37.0199 54.3779 36.835C54.8404 36.3725 55.2103 35.8176 55.6727 35.3552C55.8577 35.0777 56.0427 34.8928 56.2277 34.6153C56.2277 34.6153 56.3201 34.5228 56.3201 34.4303C56.3201 34.5228 56.3201 34.5228 56.4126 34.6153C56.4126 34.7078 56.5051 34.8928 56.5051 35.0777C56.6901 35.3552 56.7826 35.6327 56.9675 36.0026C57.06 36.0951 57.1525 36.2801 57.3375 36.3725C57.43 36.5575 57.6149 36.65 57.7999 36.7425C57.9849 36.835 58.2623 36.835 58.4473 36.835C58.6323 36.835 58.8172 36.7425 59.0022 36.7425C59.2797 36.5575 59.6496 36.3725 59.8346 36.2801C60.1121 36.0951 60.3895 35.9101 60.667 35.7251C61.1294 35.2627 61.6843 34.8928 62.1467 34.5228C63.0716 33.6905 63.9964 32.8581 64.9213 32.0257C65.0138 31.9332 65.0138 31.8407 64.9213 31.7483Z"/>
<path d="M90.6857 31.7483C89.8534 32.6731 88.9285 33.5055 87.9112 34.3379C86.9863 35.0777 85.969 35.9101 84.9516 36.5575C84.6742 36.7425 84.3967 36.835 84.2118 37.0199C83.9343 37.1124 83.6568 37.2049 83.3794 37.2974C83.1019 37.3899 82.8245 37.3899 82.732 37.2974C82.6395 37.2974 82.6395 37.2049 82.547 37.1124C82.4545 37.0199 82.4545 36.9275 82.4545 36.7425C82.3621 36.465 82.3621 36.1876 82.3621 35.9101C82.3621 35.6327 82.3621 35.3552 82.3621 34.9853C82.4545 34.4303 82.547 33.7829 82.547 33.1355C82.547 32.7656 82.6395 32.4881 82.6395 32.1182C82.6395 31.8407 82.6395 31.4708 82.547 31.1009C82.547 30.9159 82.4545 30.7309 82.3621 30.5459C82.3621 30.4535 82.2696 30.361 82.1771 30.176C82.0846 30.0835 81.9921 29.991 81.8071 29.991C81.5297 29.8061 81.2522 29.8061 81.0673 29.8061C80.9748 29.8986 80.8823 29.8986 80.7898 29.8986C80.6973 29.8986 80.6973 29.8986 80.6048 29.991C80.5123 29.991 80.5123 29.991 80.4199 30.0835C80.0499 30.2685 79.7725 30.5459 79.5875 30.7309C79.31 31.0084 79.1251 31.2858 78.9401 31.5633C78.5701 32.1182 78.2002 32.6731 77.8303 33.228C77.1829 34.3379 76.6279 35.4477 76.073 36.5575C75.8881 37.0199 75.7956 37.3899 75.6106 37.7598L75.7956 13.1587C75.7956 12.6962 75.4256 12.3263 75.0557 12.4188C74.5933 12.4188 74.2233 12.6962 74.3158 13.1587V13.6211C73.7609 17.228 72.836 20.7425 71.6337 24.2569C70.9863 26.0142 70.2464 27.8639 69.5066 29.6211C68.7667 31.2858 67.9343 33.0431 67.1944 34.7078C66.917 34.4303 66.6395 34.1529 66.2696 33.9679C66.1771 33.7829 65.9921 33.6905 65.8996 33.598C65.7147 33.413 65.6222 33.228 65.5297 33.1355C65.4372 32.8581 65.3447 32.4881 65.4372 32.2107C65.4372 32.0257 65.5297 31.8407 65.6222 31.6558C65.6222 31.5633 65.6222 31.4708 65.7147 31.3783C65.7147 31.3783 65.7147 31.2858 65.8071 31.2858V31.1933C66.0846 30.8234 66.0846 30.361 65.7147 30.0835C65.3447 29.8986 64.8823 29.8986 64.6048 30.2685L64.5123 30.361V30.4535C64.4199 30.5459 64.4199 30.6384 64.3274 30.6384C64.3274 30.8234 64.2349 30.9159 64.1424 31.1009C64.0499 31.3783 63.9574 31.6558 63.9574 31.9332C63.8649 32.2107 63.8649 32.5806 63.9574 32.8581C64.0499 33.228 64.1424 33.5055 64.2349 33.7829C64.4199 34.0604 64.6048 34.3379 64.7898 34.5228C65.0673 34.7078 65.2522 34.8928 65.5297 35.0777C65.8996 35.3552 66.1771 35.6327 66.547 35.9101C66.547 36.0026 66.547 36.0026 66.6395 36.0026C66.3621 36.5575 66.1771 37.1124 65.9921 37.5748C65.8071 38.0373 65.6222 38.4997 65.4372 38.9621C65.3447 39.517 65.2522 39.9795 65.1597 40.5344C65.1597 40.7194 65.0673 40.9968 65.1597 41.2743C65.1597 41.5517 65.1597 41.9217 65.3447 42.1991C65.4372 42.4766 65.6222 42.754 65.8996 42.939C66.0846 43.124 66.362 43.309 66.732 43.4014C66.917 43.4014 67.1019 43.4014 67.2869 43.309C67.4719 43.309 67.6568 43.2165 67.7493 43.124C68.0268 42.939 68.3042 42.6616 68.3967 42.4766C68.7667 42.0142 68.9516 41.4592 69.1366 40.9968C69.3216 39.887 69.3216 38.7772 69.0441 37.7598C68.7667 36.9274 68.3967 36.0951 67.7493 35.3552C67.8418 35.2627 67.8418 35.2627 67.8418 35.2627C68.5817 33.413 69.4141 31.6558 70.0615 29.8986C70.8014 28.0488 71.5412 26.1991 72.0962 24.3494C73.1135 21.5748 73.8534 18.6153 74.3158 15.6558L74.5008 40.2569C74.4083 40.6269 74.6858 40.9968 75.0557 41.0893C75.4256 41.2743 75.8881 41.0893 75.9805 40.6269C76.443 39.517 76.9054 38.3147 77.3678 37.2049C77.8303 36.0026 78.3852 34.8928 78.9401 33.7829C79.2175 33.228 79.5875 32.6731 79.8649 32.2107C80.0499 31.9332 80.2349 31.7483 80.4199 31.4708C80.6048 31.2858 80.7898 31.1009 80.9748 31.0084C80.9748 31.0084 81.1597 30.9159 81.2522 30.9159C81.3447 30.9159 81.3447 30.9159 81.3447 30.9159C81.3447 30.9159 81.3447 30.9159 81.4372 30.9159C81.4372 30.9159 81.4372 30.9159 81.4372 31.0084C81.5297 31.1009 81.5297 31.1933 81.5297 31.2858C81.6222 31.5633 81.6222 31.8407 81.6222 32.1182C81.6222 32.4881 81.6222 32.7656 81.6222 33.0431C81.6222 33.6905 81.5297 34.3379 81.5297 34.9853C81.5297 35.2627 81.5297 35.6327 81.5297 35.9101C81.5297 36.2801 81.5297 36.65 81.6222 36.9275C81.7146 37.1124 81.8071 37.2974 81.8996 37.4824C81.8996 37.5748 81.9921 37.6673 82.0846 37.7598C82.1771 37.8523 82.2696 37.9448 82.3621 37.9448C82.547 38.0373 82.8245 38.1298 83.0094 38.1298C83.1944 38.1298 83.3794 38.0373 83.5644 38.0373C83.9343 37.8523 84.2118 37.7598 84.4892 37.5748C84.7667 37.3899 85.0441 37.2974 85.3216 37.1124C86.3389 36.3725 87.3563 35.5402 88.2811 34.6153C89.206 33.7829 90.0384 32.8581 90.9632 31.9332C90.9632 31.9332 90.9632 31.8407 90.9632 31.7483C90.8707 31.6558 90.7782 31.6558 90.6857 31.7483ZM67.8418 38.1298C68.1193 38.9621 68.2118 39.887 68.0268 40.7194C67.9343 41.1818 67.7493 41.5517 67.5644 41.9217C67.4719 42.0142 67.3794 42.1991 67.1944 42.2916C67.1019 42.3841 67.0094 42.3841 66.917 42.3841C66.732 42.3841 66.6395 42.2916 66.4545 42.1991C66.3621 42.1066 66.2696 41.9217 66.1771 41.8292C65.9921 41.4592 65.9921 40.9968 66.0846 40.6269C66.0846 40.1644 66.1771 39.702 66.3621 39.2396C66.4545 38.7772 66.6395 38.3147 66.732 37.9448C66.917 37.4824 67.0094 37.1124 67.1944 36.7425C67.4719 37.2049 67.6568 37.6673 67.8418 38.1298Z"/>
<path d="M100.235 31.7483C100.142 31.6558 100.05 31.6558 100.05 31.7483C98.9401 32.6731 97.9227 33.598 96.8129 34.4303C96.258 34.8928 95.7031 35.2627 95.1482 35.6327C94.5933 36.0951 93.9459 36.465 93.391 36.7425C93.1135 36.9275 92.7436 37.0199 92.4661 37.1124C92.2811 37.2049 92.1886 37.2049 92.0037 37.2974C91.9112 37.2974 91.8187 37.2974 91.8187 37.2974H91.6337C91.5412 37.2974 91.5412 37.2974 91.5412 37.2049C91.5412 37.2049 91.4488 37.2049 91.4488 37.1124C91.4488 37.0199 91.3563 36.9275 91.3563 36.7425C91.2638 36.465 91.1713 36.1876 91.1713 35.8176C91.1713 35.1702 91.1713 34.5228 91.2638 33.8754C91.2638 33.5055 91.2638 33.1355 91.3563 32.7656C91.3563 32.4881 91.4488 32.1182 91.4488 31.8407C91.4488 31.7483 91.4488 31.7483 91.4488 31.7483C91.5412 31.2858 91.1713 30.9159 90.7089 30.9159C90.3389 30.9159 89.969 31.1933 89.969 31.6558C89.969 32.0257 89.969 32.3957 89.969 32.7656C89.969 33.0431 89.969 33.413 89.969 33.7829C89.969 34.5228 90.0615 35.2627 90.154 36.0026C90.2464 36.3725 90.3389 36.7425 90.4314 37.1124C90.5239 37.2974 90.6164 37.4824 90.8014 37.6673C90.8938 37.7598 90.9863 37.8523 91.0788 37.9448C91.2638 38.0373 91.3563 38.0373 91.5412 38.0373H91.8187C92.0037 38.0373 92.0962 38.0373 92.1886 38.0373C92.3736 37.9448 92.5586 37.8523 92.7436 37.8523C93.021 37.6673 93.391 37.4824 93.6684 37.2974C94.3158 37.0199 94.8707 36.5575 95.5181 36.1876C96.073 35.7251 96.6279 35.2627 97.0904 34.8003C98.2002 33.8754 99.2175 32.9506 100.235 31.9332C100.327 31.9332 100.327 31.8407 100.235 31.7483ZM90.0615 28.9737C90.0615 29.0662 90.0615 29.2511 90.0615 29.3436C90.154 29.6211 90.3389 29.8061 90.6164 29.8061C90.9863 29.8986 91.2638 29.6211 91.2638 29.3436V29.2511C91.2638 29.1587 91.2638 29.0662 91.2638 28.9737C91.3563 28.8812 91.3563 28.6962 91.3563 28.6038C91.3563 28.6038 91.3563 28.5113 91.4488 28.4188C91.7262 28.1413 91.7262 27.5864 91.4488 27.309C91.1713 27.0315 90.6164 27.0315 90.3389 27.309C90.2464 27.4014 90.2464 27.4939 90.154 27.5864C90.154 27.5864 90.154 27.6789 90.154 27.7714C90.0615 27.7714 90.0615 27.8639 90.0615 27.8639C90.0615 27.9564 90.0615 27.9564 90.0615 28.0488C89.969 28.2338 89.969 28.4188 89.969 28.5113C89.969 28.6962 90.0615 28.7887 90.0615 28.9737Z"/>
</mask>
<path d="M41.5297 8.53439C41.1597 7.7945 40.7898 7.05462 40.3274 6.40722C39.8649 5.75982 39.4025 5.20491 38.7551 4.64999C37.6453 3.54017 36.1655 2.7078 34.6858 2.15288C33.9459 1.87542 33.206 1.69045 32.4661 1.50548C32.1886 1.50548 32.0037 1.50548 31.8187 1.413H31.5412L31.2638 1.32051H30.7089L30.0615 1.22803C29.3216 1.22803 28.4892 1.22803 27.6569 1.32051C27.4719 1.32051 27.2869 1.413 27.1019 1.413C26.917 1.413 26.732 1.413 26.547 1.50548L25.8996 1.59797L25.3447 1.78294C24.6048 1.96791 23.8649 2.15288 23.1251 2.43034C22.7551 2.61531 22.3852 2.80028 22.0152 2.89277C21.8303 2.98525 21.6453 3.07774 21.4603 3.17022C21.3678 3.26271 21.1829 3.3552 20.9979 3.44768C19.6106 4.09508 18.2233 4.92745 16.9285 5.75982C14.4314 7.60953 12.1193 9.64421 9.99211 11.9563C8.97477 13.0662 8.04991 14.2685 7.12506 15.5633C6.2002 16.7656 5.36783 18.0604 4.62795 19.4477C3.79558 20.835 3.14818 22.2222 2.59326 23.702C2.03835 25.0893 1.57592 26.6616 1.29847 28.2338C1.02101 29.7136 0.928525 31.3783 1.02101 32.9506C1.1135 33.7829 1.29847 34.5228 1.48344 35.3552C1.66841 36.0951 2.03835 36.835 2.40829 37.5748L2.68575 38.1298C2.77824 38.3147 2.87072 38.4997 2.96321 38.5922C3.05569 38.6847 3.05569 38.7772 3.14818 38.8696L3.51812 39.4246C3.61061 39.4246 3.61061 39.517 3.70309 39.6095L4.07303 40.072C4.258 40.2569 4.35049 40.3494 4.53546 40.5344L4.72043 40.7194C4.81292 40.8118 4.9054 40.9043 4.9054 40.9968L5.36783 41.3668C5.5528 41.4592 5.73777 41.6442 5.83026 41.7367L6.10772 41.9217C6.2002 42.0142 6.29269 42.0142 6.38517 42.1066C6.66263 42.2916 7.03257 42.5691 7.31003 42.754C8.04991 43.124 8.69731 43.4939 9.43719 43.8639C10.8245 44.5113 12.3042 45.0662 13.6915 45.6211C15.1713 46.0835 16.6511 46.5459 18.0384 47.0084C20.9979 48.0257 23.8649 48.8581 26.6395 50.0604C27.2869 50.3379 27.9343 50.7078 28.5817 51.0777C29.2291 51.3552 29.8765 51.8176 30.4314 52.1876C30.9863 52.65 31.5412 53.1124 31.9112 53.6673C32.3736 54.2222 32.5586 54.7772 32.6511 55.4246C32.7436 55.7945 32.7436 56.072 32.6511 56.4419C32.5586 56.7194 32.4661 56.9968 32.3736 57.3668C32.1886 57.6442 32.0037 57.9217 31.8187 58.1991C31.6337 58.4766 31.3563 58.754 31.1713 59.0315C30.154 60.1413 28.9516 60.9737 27.7493 61.8061C26.4545 62.5459 25.1597 63.1933 23.68 63.6558C23.0326 63.9332 22.2927 64.1182 21.5528 64.2107C21.1829 64.3032 20.8129 64.3032 20.5355 64.3032C20.1655 64.3032 19.7956 64.3032 19.4256 64.3032C18.7782 64.2107 18.0384 64.0257 17.5759 63.5633C17.2985 63.3783 17.1135 63.1009 17.021 62.7309C16.836 62.4535 16.7436 62.176 16.7436 61.8061C16.6511 61.4361 16.6511 61.0662 16.6511 60.6962C16.6511 60.5113 16.6511 60.3263 16.6511 60.2338C16.7436 60.0488 16.7436 59.8639 16.7436 59.6789C16.9285 58.939 17.1135 58.1991 17.2985 57.4592C17.391 57.3668 17.2985 57.1818 17.1135 57.0893C17.021 56.9968 16.836 57.0893 16.7436 57.2743C16.4661 58.0142 16.2811 58.754 16.0962 59.4939C16.0037 59.6789 16.0037 59.8639 16.0037 60.1413C15.9112 60.3263 15.9112 60.5113 15.9112 60.6962C15.9112 61.0662 15.9112 61.5286 15.9112 61.8985C16.0037 62.2685 16.0962 62.7309 16.2811 63.1009C16.4661 63.4708 16.7436 63.8407 17.021 64.1182C17.391 64.4881 17.7609 64.6731 18.1308 64.8581C18.5008 65.0431 18.8707 65.1355 19.3332 65.1355C19.7031 65.228 20.1655 65.228 20.5355 65.228C20.9054 65.228 21.3678 65.228 21.7378 65.1355C22.4777 65.0431 23.31 64.8581 24.0499 64.6731C24.7898 64.3957 25.5297 64.1182 26.1771 63.8407C26.917 63.4708 27.6569 63.1009 28.3042 62.7309C29.599 61.8986 30.8938 60.9737 32.0037 59.8639C32.2811 59.5864 32.5586 59.2165 32.836 58.939C33.021 58.5691 33.2985 58.1991 33.4834 57.8292C33.6684 57.4592 33.7609 57.0893 33.8534 56.6269C33.9459 56.5344 33.9459 56.4419 33.9459 56.2569C33.9459 56.1645 33.9459 56.072 33.9459 55.9795C33.9459 55.7945 33.9459 55.517 33.9459 55.3321C33.8534 54.4072 33.4834 53.5748 33.021 52.9274C32.4661 52.1876 31.9112 51.6327 31.2638 51.1702C30.6164 50.7078 29.969 50.2454 29.2291 49.8754C28.5817 49.5055 27.8418 49.1355 27.1944 48.8581C25.7147 48.2107 24.3274 47.6558 22.8476 47.1009C21.4603 46.6384 19.9805 46.176 18.5008 45.6211C17.1135 45.1587 15.6337 44.6962 14.2464 44.1413C12.8592 43.6789 11.3794 43.124 10.0846 42.4766C9.43719 42.1991 8.7898 41.8292 8.1424 41.4592C7.86494 41.2743 7.495 41.0893 7.21754 40.8118C7.12506 40.8118 7.03257 40.7194 7.03257 40.7194L6.75511 40.5344C6.66263 40.4419 6.47766 40.3494 6.38517 40.1644L6.01523 39.7945C5.92274 39.7945 5.83026 39.702 5.73777 39.6095L5.5528 39.4246C5.46032 39.3321 5.36783 39.2396 5.27535 39.0546L4.9054 38.6847C4.81292 38.5922 4.81292 38.4997 4.72043 38.4997L4.53546 38.2222L4.44298 38.0373C4.35049 37.9448 4.35049 37.8523 4.258 37.7598C4.16552 37.6673 4.07303 37.4824 3.98055 37.3899L3.70309 36.9275C3.42563 36.2801 3.14818 35.6327 2.96321 34.8928C2.77824 34.2454 2.68575 33.5055 2.59326 32.7656C2.40829 31.3783 2.50078 29.8986 2.77824 28.4188C3.05569 27.0315 3.51812 25.6442 3.98055 24.2569C4.53546 22.8696 5.18286 21.4824 5.92274 20.1876C6.66263 18.8928 7.40251 17.598 8.32737 16.3957C9.15974 15.1933 10.0846 14.0835 11.1019 12.9737C13.1366 10.6616 15.3563 8.62687 17.7609 6.96213C18.9632 6.03727 20.258 5.29739 21.5528 4.64999C21.7378 4.55751 21.9227 4.46502 22.1077 4.37254C22.2927 4.28005 22.3852 4.18756 22.5701 4.18756C22.9401 4.00259 23.2175 3.81762 23.5875 3.72514C24.3274 3.44768 24.9748 3.17022 25.7147 2.98525C27.1019 2.61531 28.5817 2.43034 29.969 2.52282H30.5239L31.0788 2.61531H31.3563L31.6337 2.7078C31.8187 2.7078 32.0037 2.7078 32.1886 2.7078C32.9285 2.89277 33.6684 3.07774 34.3158 3.26271C35.7031 3.72514 36.9979 4.46502 38.0152 5.48236C39.1251 6.40722 39.9574 7.60953 40.6048 8.99681C41.2522 10.2916 41.7147 11.6789 41.9921 13.1587C42.2696 14.6384 42.362 16.1182 42.362 17.598C42.4545 19.0777 42.362 20.65 42.1771 22.1298C42.0846 22.8696 41.9921 23.6095 41.8996 24.3494C41.8071 25.0893 41.6222 25.8292 41.5297 26.5691C41.4372 26.754 41.5297 26.939 41.7147 26.939C41.8996 27.0315 42.0846 26.939 42.0846 26.754C42.2696 26.0142 42.4545 25.2743 42.547 24.4419C42.732 23.702 42.8245 22.9621 42.917 22.2222C43.1019 20.65 43.2869 19.1702 43.2869 17.598C43.2869 16.0257 43.1019 14.5459 42.917 12.9737C42.6395 11.4939 42.1771 9.92167 41.5297 8.53439Z" fill="black"/>
<path d="M51.7977 31.7483C51.7053 31.6558 51.6128 31.6558 51.5203 31.7483C50.6879 32.6731 49.7631 33.5055 48.7457 34.3379C47.8209 35.0777 46.8035 35.9101 45.7862 36.5575C45.5087 36.7425 45.2313 36.835 44.9538 37.0199C44.7688 37.1124 44.4914 37.2049 44.2139 37.2974C43.9365 37.3899 43.659 37.3899 43.5665 37.2974C43.474 37.2974 43.474 37.2049 43.3816 37.1124C43.2891 37.0199 43.2891 36.9275 43.2891 36.7425C43.1966 36.465 43.1966 36.1876 43.1966 35.9101C43.1966 35.6327 43.1966 35.3552 43.1966 34.9853C43.2891 34.4303 43.2891 33.7829 43.3816 33.1355C43.3816 32.7656 43.474 32.4881 43.474 32.1182C43.474 31.8407 43.474 31.4708 43.3816 31.1009C43.3816 30.9159 43.2891 30.7309 43.1966 30.5459C43.1966 30.4535 43.1041 30.361 43.0116 30.176C42.9191 30.0835 42.8266 29.991 42.6417 29.991C42.3642 29.8061 42.0868 29.8061 41.9018 29.8061C41.8093 29.8986 41.7168 29.8986 41.5318 29.8986C41.5318 29.8986 41.5318 29.8986 41.4394 29.991C41.3469 29.991 41.3469 29.991 41.2544 30.0835C40.8844 30.2685 40.607 30.5459 40.422 30.7309C40.1446 31.0084 39.9596 31.2858 39.7746 31.5633C39.4047 32.1182 39.0347 32.6731 38.6648 33.228C38.0174 34.3379 37.4625 35.4477 36.9076 36.5575C36.7226 37.0199 36.6301 37.3899 36.4451 37.7598L36.6301 13.1587C36.6301 12.6962 36.2602 12.3263 35.8902 12.4188C35.4278 12.4188 35.0579 12.6962 35.1503 13.1587L35.3353 40.2569C35.2428 40.6269 35.5203 40.9968 35.8902 41.0893C36.2602 41.2743 36.7226 41.0893 36.8151 40.6269C37.2775 39.517 37.7399 38.3147 38.2024 37.2049C38.6648 36.0026 39.2197 34.8928 39.7746 33.7829C40.0521 33.228 40.422 32.6731 40.6995 32.2107C40.8844 31.9332 41.0694 31.7483 41.2544 31.4708C41.4394 31.2858 41.6243 31.1009 41.8093 31.0084C41.8093 31.0084 41.9943 30.9159 42.0868 30.9159C42.1792 30.9159 42.1792 30.9159 42.1792 30.9159C42.1792 30.9159 42.1792 30.9159 42.2717 30.9159C42.2717 30.9159 42.2717 30.9159 42.2717 31.0084C42.3642 31.1009 42.3642 31.1933 42.3642 31.2858C42.4567 31.5633 42.4567 31.8407 42.4567 32.1182C42.4567 32.4881 42.4567 32.7656 42.4567 33.0431C42.4567 33.6905 42.3642 34.3379 42.3642 34.9853C42.3642 35.2627 42.3642 35.6327 42.3642 35.9101C42.3642 36.2801 42.3642 36.65 42.4567 36.9275C42.5492 37.1124 42.6417 37.2974 42.7342 37.4824C42.7342 37.5748 42.8266 37.6673 42.9191 37.7598C43.0116 37.8523 43.1041 37.9448 43.1966 37.9448C43.3816 38.0373 43.659 38.1298 43.844 38.1298C44.029 38.1298 44.2139 38.0373 44.3989 38.0373C44.6764 37.8523 45.0463 37.7598 45.3238 37.5748C45.6012 37.3899 45.8787 37.2974 46.1561 37.1124C47.1735 36.3725 48.1908 35.5402 49.1157 34.6153C50.0405 33.7829 50.8729 32.8581 51.7977 31.9332C51.7977 31.9332 51.7977 31.8407 51.7977 31.7483Z" fill="black"/>
<path d="M64.9213 31.7483C64.8288 31.6558 64.7363 31.5633 64.6438 31.6558C63.6265 32.4881 62.7016 33.228 61.7768 34.0604C61.2219 34.4303 60.7594 34.8003 60.297 35.1702C60.0196 35.3552 59.7421 35.5402 59.5571 35.6327C59.2797 35.8176 59.0022 35.9101 58.7248 36.0026C58.4473 36.0951 58.2623 36.0951 58.0774 36.0026C57.8924 36.0026 57.7999 35.8176 57.6149 35.5402C57.5225 35.3552 57.43 35.0777 57.3375 34.8003C57.245 34.6153 57.245 34.5228 57.1525 34.3379C57.1525 34.2454 57.1525 34.1529 57.06 34.0604C57.06 33.9679 57.06 33.8754 56.9675 33.7829C56.8751 33.6905 56.8751 33.6905 56.7826 33.598C56.6901 33.5055 56.5051 33.5055 56.4126 33.5055C56.3201 33.5055 56.2277 33.5055 56.1352 33.598C56.0427 33.598 55.9502 33.598 55.9502 33.6905C55.7652 33.7829 55.6727 33.8754 55.4878 34.0604C55.3028 34.2454 55.1178 34.5228 54.9329 34.8003C54.5629 35.2627 54.1005 35.6327 53.6381 36.0026C53.2681 36.465 52.7132 36.7425 52.2508 36.9275C52.0658 37.0199 51.7884 37.0199 51.6034 37.0199C51.4184 37.0199 51.3259 36.9275 51.2334 36.7425C51.141 36.5575 51.0485 36.3725 50.956 36.0951C50.956 35.9101 50.956 35.6327 50.956 35.3552C50.956 34.8003 51.0485 34.2454 51.3259 33.7829C51.5109 33.228 51.7883 32.7656 52.1583 32.3032C52.4357 31.9332 52.8057 31.6558 53.2681 31.6558C53.6381 31.5633 54.193 31.6558 54.5629 31.9332C54.6554 32.0257 54.8404 32.1182 54.9329 32.3032C54.9329 32.3032 54.9329 32.3957 54.9329 32.4881V32.5806C54.8404 33.0431 55.0253 33.413 55.4878 33.598C55.8577 33.6905 56.3201 33.413 56.4126 33.0431C56.5051 32.7656 56.5051 32.4881 56.5051 32.2107C56.4126 31.9332 56.3201 31.7483 56.2277 31.5633C55.9502 31.1009 55.6727 30.8234 55.3028 30.6384C54.9329 30.4535 54.5629 30.2685 54.193 30.176C53.823 30.176 53.3606 30.176 52.9907 30.2685C52.6207 30.2685 52.2508 30.4535 51.8808 30.7309C51.5109 30.9159 51.2334 31.1933 51.0485 31.4708C50.6785 32.0257 50.3086 32.6731 50.1236 33.3205C49.8461 33.9679 49.7537 34.6153 49.7537 35.3552C49.6612 35.6327 49.7537 36.0026 49.8462 36.3725C49.9386 36.7425 50.0311 37.1124 50.3086 37.4824C50.4935 37.6673 50.6785 37.7598 50.8635 37.8523C51.0485 38.0373 51.2334 38.0373 51.5109 38.1298C51.8808 38.1298 52.3433 38.0373 52.6207 37.9448C52.9907 37.7598 53.2681 37.5748 53.5456 37.3899C53.823 37.2049 54.1005 37.0199 54.3779 36.835C54.8404 36.3725 55.2103 35.8176 55.6727 35.3552C55.8577 35.0777 56.0427 34.8928 56.2277 34.6153C56.2277 34.6153 56.3201 34.5228 56.3201 34.4303C56.3201 34.5228 56.3201 34.5228 56.4126 34.6153C56.4126 34.7078 56.5051 34.8928 56.5051 35.0777C56.6901 35.3552 56.7826 35.6327 56.9675 36.0026C57.06 36.0951 57.1525 36.2801 57.3375 36.3725C57.43 36.5575 57.6149 36.65 57.7999 36.7425C57.9849 36.835 58.2623 36.835 58.4473 36.835C58.6323 36.835 58.8172 36.7425 59.0022 36.7425C59.2797 36.5575 59.6496 36.3725 59.8346 36.2801C60.1121 36.0951 60.3895 35.9101 60.667 35.7251C61.1294 35.2627 61.6843 34.8928 62.1467 34.5228C63.0716 33.6905 63.9964 32.8581 64.9213 32.0257C65.0138 31.9332 65.0138 31.8407 64.9213 31.7483Z" fill="black"/>
<path d="M90.6857 31.7483C89.8534 32.6731 88.9285 33.5055 87.9112 34.3379C86.9863 35.0777 85.969 35.9101 84.9516 36.5575C84.6742 36.7425 84.3967 36.835 84.2118 37.0199C83.9343 37.1124 83.6568 37.2049 83.3794 37.2974C83.1019 37.3899 82.8245 37.3899 82.732 37.2974C82.6395 37.2974 82.6395 37.2049 82.547 37.1124C82.4545 37.0199 82.4545 36.9275 82.4545 36.7425C82.3621 36.465 82.3621 36.1876 82.3621 35.9101C82.3621 35.6327 82.3621 35.3552 82.3621 34.9853C82.4545 34.4303 82.547 33.7829 82.547 33.1355C82.547 32.7656 82.6395 32.4881 82.6395 32.1182C82.6395 31.8407 82.6395 31.4708 82.547 31.1009C82.547 30.9159 82.4545 30.7309 82.3621 30.5459C82.3621 30.4535 82.2696 30.361 82.1771 30.176C82.0846 30.0835 81.9921 29.991 81.8071 29.991C81.5297 29.8061 81.2522 29.8061 81.0673 29.8061C80.9748 29.8986 80.8823 29.8986 80.7898 29.8986C80.6973 29.8986 80.6973 29.8986 80.6048 29.991C80.5123 29.991 80.5123 29.991 80.4199 30.0835C80.0499 30.2685 79.7725 30.5459 79.5875 30.7309C79.31 31.0084 79.1251 31.2858 78.9401 31.5633C78.5701 32.1182 78.2002 32.6731 77.8303 33.228C77.1829 34.3379 76.6279 35.4477 76.073 36.5575C75.8881 37.0199 75.7956 37.3899 75.6106 37.7598L75.7956 13.1587C75.7956 12.6962 75.4256 12.3263 75.0557 12.4188C74.5933 12.4188 74.2233 12.6962 74.3158 13.1587V13.6211C73.7609 17.228 72.836 20.7425 71.6337 24.2569C70.9863 26.0142 70.2464 27.8639 69.5066 29.6211C68.7667 31.2858 67.9343 33.0431 67.1944 34.7078C66.917 34.4303 66.6395 34.1529 66.2696 33.9679C66.1771 33.7829 65.9921 33.6905 65.8996 33.598C65.7147 33.413 65.6222 33.228 65.5297 33.1355C65.4372 32.8581 65.3447 32.4881 65.4372 32.2107C65.4372 32.0257 65.5297 31.8407 65.6222 31.6558C65.6222 31.5633 65.6222 31.4708 65.7147 31.3783C65.7147 31.3783 65.7147 31.2858 65.8071 31.2858V31.1933C66.0846 30.8234 66.0846 30.361 65.7147 30.0835C65.3447 29.8986 64.8823 29.8986 64.6048 30.2685L64.5123 30.361V30.4535C64.4199 30.5459 64.4199 30.6384 64.3274 30.6384C64.3274 30.8234 64.2349 30.9159 64.1424 31.1009C64.0499 31.3783 63.9574 31.6558 63.9574 31.9332C63.8649 32.2107 63.8649 32.5806 63.9574 32.8581C64.0499 33.228 64.1424 33.5055 64.2349 33.7829C64.4199 34.0604 64.6048 34.3379 64.7898 34.5228C65.0673 34.7078 65.2522 34.8928 65.5297 35.0777C65.8996 35.3552 66.1771 35.6327 66.547 35.9101C66.547 36.0026 66.547 36.0026 66.6395 36.0026C66.3621 36.5575 66.1771 37.1124 65.9921 37.5748C65.8071 38.0373 65.6222 38.4997 65.4372 38.9621C65.3447 39.517 65.2522 39.9795 65.1597 40.5344C65.1597 40.7194 65.0673 40.9968 65.1597 41.2743C65.1597 41.5517 65.1597 41.9217 65.3447 42.1991C65.4372 42.4766 65.6222 42.754 65.8996 42.939C66.0846 43.124 66.362 43.309 66.732 43.4014C66.917 43.4014 67.1019 43.4014 67.2869 43.309C67.4719 43.309 67.6568 43.2165 67.7493 43.124C68.0268 42.939 68.3042 42.6616 68.3967 42.4766C68.7667 42.0142 68.9516 41.4592 69.1366 40.9968C69.3216 39.887 69.3216 38.7772 69.0441 37.7598C68.7667 36.9274 68.3967 36.0951 67.7493 35.3552C67.8418 35.2627 67.8418 35.2627 67.8418 35.2627C68.5817 33.413 69.4141 31.6558 70.0615 29.8986C70.8014 28.0488 71.5412 26.1991 72.0962 24.3494C73.1135 21.5748 73.8534 18.6153 74.3158 15.6558L74.5008 40.2569C74.4083 40.6269 74.6858 40.9968 75.0557 41.0893C75.4256 41.2743 75.8881 41.0893 75.9805 40.6269C76.443 39.517 76.9054 38.3147 77.3678 37.2049C77.8303 36.0026 78.3852 34.8928 78.9401 33.7829C79.2175 33.228 79.5875 32.6731 79.8649 32.2107C80.0499 31.9332 80.2349 31.7483 80.4199 31.4708C80.6048 31.2858 80.7898 31.1009 80.9748 31.0084C80.9748 31.0084 81.1597 30.9159 81.2522 30.9159C81.3447 30.9159 81.3447 30.9159 81.3447 30.9159C81.3447 30.9159 81.3447 30.9159 81.4372 30.9159C81.4372 30.9159 81.4372 30.9159 81.4372 31.0084C81.5297 31.1009 81.5297 31.1933 81.5297 31.2858C81.6222 31.5633 81.6222 31.8407 81.6222 32.1182C81.6222 32.4881 81.6222 32.7656 81.6222 33.0431C81.6222 33.6905 81.5297 34.3379 81.5297 34.9853C81.5297 35.2627 81.5297 35.6327 81.5297 35.9101C81.5297 36.2801 81.5297 36.65 81.6222 36.9275C81.7146 37.1124 81.8071 37.2974 81.8996 37.4824C81.8996 37.5748 81.9921 37.6673 82.0846 37.7598C82.1771 37.8523 82.2696 37.9448 82.3621 37.9448C82.547 38.0373 82.8245 38.1298 83.0094 38.1298C83.1944 38.1298 83.3794 38.0373 83.5644 38.0373C83.9343 37.8523 84.2118 37.7598 84.4892 37.5748C84.7667 37.3899 85.0441 37.2974 85.3216 37.1124C86.3389 36.3725 87.3563 35.5402 88.2811 34.6153C89.206 33.7829 90.0384 32.8581 90.9632 31.9332C90.9632 31.9332 90.9632 31.8407 90.9632 31.7483C90.8707 31.6558 90.7782 31.6558 90.6857 31.7483ZM67.8418 38.1298C68.1193 38.9621 68.2118 39.887 68.0268 40.7194C67.9343 41.1818 67.7493 41.5517 67.5644 41.9217C67.4719 42.0142 67.3794 42.1991 67.1944 42.2916C67.1019 42.3841 67.0094 42.3841 66.917 42.3841C66.732 42.3841 66.6395 42.2916 66.4545 42.1991C66.3621 42.1066 66.2696 41.9217 66.1771 41.8292C65.9921 41.4592 65.9921 40.9968 66.0846 40.6269C66.0846 40.1644 66.1771 39.702 66.3621 39.2396C66.4545 38.7772 66.6395 38.3147 66.732 37.9448C66.917 37.4824 67.0094 37.1124 67.1944 36.7425C67.4719 37.2049 67.6568 37.6673 67.8418 38.1298Z" fill="black"/>
<path d="M100.235 31.7483C100.142 31.6558 100.05 31.6558 100.05 31.7483C98.9401 32.6731 97.9227 33.598 96.8129 34.4303C96.258 34.8928 95.7031 35.2627 95.1482 35.6327C94.5933 36.0951 93.9459 36.465 93.391 36.7425C93.1135 36.9275 92.7436 37.0199 92.4661 37.1124C92.2811 37.2049 92.1886 37.2049 92.0037 37.2974C91.9112 37.2974 91.8187 37.2974 91.8187 37.2974H91.6337C91.5412 37.2974 91.5412 37.2974 91.5412 37.2049C91.5412 37.2049 91.4488 37.2049 91.4488 37.1124C91.4488 37.0199 91.3563 36.9275 91.3563 36.7425C91.2638 36.465 91.1713 36.1876 91.1713 35.8176C91.1713 35.1702 91.1713 34.5228 91.2638 33.8754C91.2638 33.5055 91.2638 33.1355 91.3563 32.7656C91.3563 32.4881 91.4488 32.1182 91.4488 31.8407C91.4488 31.7483 91.4488 31.7483 91.4488 31.7483C91.5412 31.2858 91.1713 30.9159 90.7089 30.9159C90.3389 30.9159 89.969 31.1933 89.969 31.6558C89.969 32.0257 89.969 32.3957 89.969 32.7656C89.969 33.0431 89.969 33.413 89.969 33.7829C89.969 34.5228 90.0615 35.2627 90.154 36.0026C90.2464 36.3725 90.3389 36.7425 90.4314 37.1124C90.5239 37.2974 90.6164 37.4824 90.8014 37.6673C90.8938 37.7598 90.9863 37.8523 91.0788 37.9448C91.2638 38.0373 91.3563 38.0373 91.5412 38.0373H91.8187C92.0037 38.0373 92.0962 38.0373 92.1886 38.0373C92.3736 37.9448 92.5586 37.8523 92.7436 37.8523C93.021 37.6673 93.391 37.4824 93.6684 37.2974C94.3158 37.0199 94.8707 36.5575 95.5181 36.1876C96.073 35.7251 96.6279 35.2627 97.0904 34.8003C98.2002 33.8754 99.2175 32.9506 100.235 31.9332C100.327 31.9332 100.327 31.8407 100.235 31.7483ZM90.0615 28.9737C90.0615 29.0662 90.0615 29.2511 90.0615 29.3436C90.154 29.6211 90.3389 29.8061 90.6164 29.8061C90.9863 29.8986 91.2638 29.6211 91.2638 29.3436V29.2511C91.2638 29.1587 91.2638 29.0662 91.2638 28.9737C91.3563 28.8812 91.3563 28.6962 91.3563 28.6038C91.3563 28.6038 91.3563 28.5113 91.4488 28.4188C91.7262 28.1413 91.7262 27.5864 91.4488 27.309C91.1713 27.0315 90.6164 27.0315 90.3389 27.309C90.2464 27.4014 90.2464 27.4939 90.154 27.5864C90.154 27.5864 90.154 27.6789 90.154 27.7714C90.0615 27.7714 90.0615 27.8639 90.0615 27.8639C90.0615 27.9564 90.0615 27.9564 90.0615 28.0488C89.969 28.2338 89.969 28.4188 89.969 28.5113C89.969 28.6962 90.0615 28.7887 90.0615 28.9737Z" fill="black"/>
<path d="M41.5297 8.53439C41.1597 7.7945 40.7898 7.05462 40.3274 6.40722C39.8649 5.75982 39.4025 5.20491 38.7551 4.64999C37.6453 3.54017 36.1655 2.7078 34.6858 2.15288C33.9459 1.87542 33.206 1.69045 32.4661 1.50548C32.1886 1.50548 32.0037 1.50548 31.8187 1.413H31.5412L31.2638 1.32051H30.7089L30.0615 1.22803C29.3216 1.22803 28.4892 1.22803 27.6569 1.32051C27.4719 1.32051 27.2869 1.413 27.1019 1.413C26.917 1.413 26.732 1.413 26.547 1.50548L25.8996 1.59797L25.3447 1.78294C24.6048 1.96791 23.8649 2.15288 23.1251 2.43034C22.7551 2.61531 22.3852 2.80028 22.0152 2.89277C21.8303 2.98525 21.6453 3.07774 21.4603 3.17022C21.3678 3.26271 21.1829 3.3552 20.9979 3.44768C19.6106 4.09508 18.2233 4.92745 16.9285 5.75982C14.4314 7.60953 12.1193 9.64421 9.99211 11.9563C8.97477 13.0662 8.04991 14.2685 7.12506 15.5633C6.2002 16.7656 5.36783 18.0604 4.62795 19.4477C3.79558 20.835 3.14818 22.2222 2.59326 23.702C2.03835 25.0893 1.57592 26.6616 1.29847 28.2338C1.02101 29.7136 0.928525 31.3783 1.02101 32.9506C1.1135 33.7829 1.29847 34.5228 1.48344 35.3552C1.66841 36.0951 2.03835 36.835 2.40829 37.5748L2.68575 38.1298C2.77824 38.3147 2.87072 38.4997 2.96321 38.5922C3.05569 38.6847 3.05569 38.7772 3.14818 38.8696L3.51812 39.4246C3.61061 39.4246 3.61061 39.517 3.70309 39.6095L4.07303 40.072C4.258 40.2569 4.35049 40.3494 4.53546 40.5344L4.72043 40.7194C4.81292 40.8118 4.9054 40.9043 4.9054 40.9968L5.36783 41.3668C5.5528 41.4592 5.73777 41.6442 5.83026 41.7367L6.10772 41.9217C6.2002 42.0142 6.29269 42.0142 6.38517 42.1066C6.66263 42.2916 7.03257 42.5691 7.31003 42.754C8.04991 43.124 8.69731 43.4939 9.43719 43.8639C10.8245 44.5113 12.3042 45.0662 13.6915 45.6211C15.1713 46.0835 16.6511 46.5459 18.0384 47.0084C20.9979 48.0257 23.8649 48.8581 26.6395 50.0604C27.2869 50.3379 27.9343 50.7078 28.5817 51.0777C29.2291 51.3552 29.8765 51.8176 30.4314 52.1876C30.9863 52.65 31.5412 53.1124 31.9112 53.6673C32.3736 54.2222 32.5586 54.7772 32.6511 55.4246C32.7436 55.7945 32.7436 56.072 32.6511 56.4419C32.5586 56.7194 32.4661 56.9968 32.3736 57.3668C32.1886 57.6442 32.0037 57.9217 31.8187 58.1991C31.6337 58.4766 31.3563 58.754 31.1713 59.0315C30.154 60.1413 28.9516 60.9737 27.7493 61.8061C26.4545 62.5459 25.1597 63.1933 23.68 63.6558C23.0326 63.9332 22.2927 64.1182 21.5528 64.2107C21.1829 64.3032 20.8129 64.3032 20.5355 64.3032C20.1655 64.3032 19.7956 64.3032 19.4256 64.3032C18.7782 64.2107 18.0384 64.0257 17.5759 63.5633C17.2985 63.3783 17.1135 63.1009 17.021 62.7309C16.836 62.4535 16.7436 62.176 16.7436 61.8061C16.6511 61.4361 16.6511 61.0662 16.6511 60.6962C16.6511 60.5113 16.6511 60.3263 16.6511 60.2338C16.7436 60.0488 16.7436 59.8639 16.7436 59.6789C16.9285 58.939 17.1135 58.1991 17.2985 57.4592C17.391 57.3668 17.2985 57.1818 17.1135 57.0893C17.021 56.9968 16.836 57.0893 16.7436 57.2743C16.4661 58.0142 16.2811 58.754 16.0962 59.4939C16.0037 59.6789 16.0037 59.8639 16.0037 60.1413C15.9112 60.3263 15.9112 60.5113 15.9112 60.6962C15.9112 61.0662 15.9112 61.5286 15.9112 61.8985C16.0037 62.2685 16.0962 62.7309 16.2811 63.1009C16.4661 63.4708 16.7436 63.8407 17.021 64.1182C17.391 64.4881 17.7609 64.6731 18.1308 64.8581C18.5008 65.0431 18.8707 65.1355 19.3332 65.1355C19.7031 65.228 20.1655 65.228 20.5355 65.228C20.9054 65.228 21.3678 65.228 21.7378 65.1355C22.4777 65.0431 23.31 64.8581 24.0499 64.6731C24.7898 64.3957 25.5297 64.1182 26.1771 63.8407C26.917 63.4708 27.6569 63.1009 28.3042 62.7309C29.599 61.8986 30.8938 60.9737 32.0037 59.8639C32.2811 59.5864 32.5586 59.2165 32.836 58.939C33.021 58.5691 33.2985 58.1991 33.4834 57.8292C33.6684 57.4592 33.7609 57.0893 33.8534 56.6269C33.9459 56.5344 33.9459 56.4419 33.9459 56.2569C33.9459 56.1645 33.9459 56.072 33.9459 55.9795C33.9459 55.7945 33.9459 55.517 33.9459 55.3321C33.8534 54.4072 33.4834 53.5748 33.021 52.9274C32.4661 52.1876 31.9112 51.6327 31.2638 51.1702C30.6164 50.7078 29.969 50.2454 29.2291 49.8754C28.5817 49.5055 27.8418 49.1355 27.1944 48.8581C25.7147 48.2107 24.3274 47.6558 22.8476 47.1009C21.4603 46.6384 19.9805 46.176 18.5008 45.6211C17.1135 45.1587 15.6337 44.6962 14.2464 44.1413C12.8592 43.6789 11.3794 43.124 10.0846 42.4766C9.43719 42.1991 8.7898 41.8292 8.1424 41.4592C7.86494 41.2743 7.495 41.0893 7.21754 40.8118C7.12506 40.8118 7.03257 40.7194 7.03257 40.7194L6.75511 40.5344C6.66263 40.4419 6.47766 40.3494 6.38517 40.1644L6.01523 39.7945C5.92274 39.7945 5.83026 39.702 5.73777 39.6095L5.5528 39.4246C5.46032 39.3321 5.36783 39.2396 5.27535 39.0546L4.9054 38.6847C4.81292 38.5922 4.81292 38.4997 4.72043 38.4997L4.53546 38.2222L4.44298 38.0373C4.35049 37.9448 4.35049 37.8523 4.258 37.7598C4.16552 37.6673 4.07303 37.4824 3.98055 37.3899L3.70309 36.9275C3.42563 36.2801 3.14818 35.6327 2.96321 34.8928C2.77824 34.2454 2.68575 33.5055 2.59326 32.7656C2.40829 31.3783 2.50078 29.8986 2.77824 28.4188C3.05569 27.0315 3.51812 25.6442 3.98055 24.2569C4.53546 22.8696 5.18286 21.4824 5.92274 20.1876C6.66263 18.8928 7.40251 17.598 8.32737 16.3957C9.15974 15.1933 10.0846 14.0835 11.1019 12.9737C13.1366 10.6616 15.3563 8.62687 17.7609 6.96213C18.9632 6.03727 20.258 5.29739 21.5528 4.64999C21.7378 4.55751 21.9227 4.46502 22.1077 4.37254C22.2927 4.28005 22.3852 4.18756 22.5701 4.18756C22.9401 4.00259 23.2175 3.81762 23.5875 3.72514C24.3274 3.44768 24.9748 3.17022 25.7147 2.98525C27.1019 2.61531 28.5817 2.43034 29.969 2.52282H30.5239L31.0788 2.61531H31.3563L31.6337 2.7078C31.8187 2.7078 32.0037 2.7078 32.1886 2.7078C32.9285 2.89277 33.6684 3.07774 34.3158 3.26271C35.7031 3.72514 36.9979 4.46502 38.0152 5.48236C39.1251 6.40722 39.9574 7.60953 40.6048 8.99681C41.2522 10.2916 41.7147 11.6789 41.9921 13.1587C42.2696 14.6384 42.362 16.1182 42.362 17.598C42.4545 19.0777 42.362 20.65 42.1771 22.1298C42.0846 22.8696 41.9921 23.6095 41.8996 24.3494C41.8071 25.0893 41.6222 25.8292 41.5297 26.5691C41.4372 26.754 41.5297 26.939 41.7147 26.939C41.8996 27.0315 42.0846 26.939 42.0846 26.754C42.2696 26.0142 42.4545 25.2743 42.547 24.4419C42.732 23.702 42.8245 22.9621 42.917 22.2222C43.1019 20.65 43.2869 19.1702 43.2869 17.598C43.2869 16.0257 43.1019 14.5459 42.917 12.9737C42.6395 11.4939 42.1771 9.92167 41.5297 8.53439Z" stroke="black" mask="url(#path-1-outside-1_329_36)"/>
<path d="M51.7977 31.7483C51.7053 31.6558 51.6128 31.6558 51.5203 31.7483C50.6879 32.6731 49.7631 33.5055 48.7457 34.3379C47.8209 35.0777 46.8035 35.9101 45.7862 36.5575C45.5087 36.7425 45.2313 36.835 44.9538 37.0199C44.7688 37.1124 44.4914 37.2049 44.2139 37.2974C43.9365 37.3899 43.659 37.3899 43.5665 37.2974C43.474 37.2974 43.474 37.2049 43.3816 37.1124C43.2891 37.0199 43.2891 36.9275 43.2891 36.7425C43.1966 36.465 43.1966 36.1876 43.1966 35.9101C43.1966 35.6327 43.1966 35.3552 43.1966 34.9853C43.2891 34.4303 43.2891 33.7829 43.3816 33.1355C43.3816 32.7656 43.474 32.4881 43.474 32.1182C43.474 31.8407 43.474 31.4708 43.3816 31.1009C43.3816 30.9159 43.2891 30.7309 43.1966 30.5459C43.1966 30.4535 43.1041 30.361 43.0116 30.176C42.9191 30.0835 42.8266 29.991 42.6417 29.991C42.3642 29.8061 42.0868 29.8061 41.9018 29.8061C41.8093 29.8986 41.7168 29.8986 41.5318 29.8986C41.5318 29.8986 41.5318 29.8986 41.4394 29.991C41.3469 29.991 41.3469 29.991 41.2544 30.0835C40.8844 30.2685 40.607 30.5459 40.422 30.7309C40.1446 31.0084 39.9596 31.2858 39.7746 31.5633C39.4047 32.1182 39.0347 32.6731 38.6648 33.228C38.0174 34.3379 37.4625 35.4477 36.9076 36.5575C36.7226 37.0199 36.6301 37.3899 36.4451 37.7598L36.6301 13.1587C36.6301 12.6962 36.2602 12.3263 35.8902 12.4188C35.4278 12.4188 35.0579 12.6962 35.1503 13.1587L35.3353 40.2569C35.2428 40.6269 35.5203 40.9968 35.8902 41.0893C36.2602 41.2743 36.7226 41.0893 36.8151 40.6269C37.2775 39.517 37.7399 38.3147 38.2024 37.2049C38.6648 36.0026 39.2197 34.8928 39.7746 33.7829C40.0521 33.228 40.422 32.6731 40.6995 32.2107C40.8844 31.9332 41.0694 31.7483 41.2544 31.4708C41.4394 31.2858 41.6243 31.1009 41.8093 31.0084C41.8093 31.0084 41.9943 30.9159 42.0868 30.9159C42.1792 30.9159 42.1792 30.9159 42.1792 30.9159C42.1792 30.9159 42.1792 30.9159 42.2717 30.9159C42.2717 30.9159 42.2717 30.9159 42.2717 31.0084C42.3642 31.1009 42.3642 31.1933 42.3642 31.2858C42.4567 31.5633 42.4567 31.8407 42.4567 32.1182C42.4567 32.4881 42.4567 32.7656 42.4567 33.0431C42.4567 33.6905 42.3642 34.3379 42.3642 34.9853C42.3642 35.2627 42.3642 35.6327 42.3642 35.9101C42.3642 36.2801 42.3642 36.65 42.4567 36.9275C42.5492 37.1124 42.6417 37.2974 42.7342 37.4824C42.7342 37.5748 42.8266 37.6673 42.9191 37.7598C43.0116 37.8523 43.1041 37.9448 43.1966 37.9448C43.3816 38.0373 43.659 38.1298 43.844 38.1298C44.029 38.1298 44.2139 38.0373 44.3989 38.0373C44.6764 37.8523 45.0463 37.7598 45.3238 37.5748C45.6012 37.3899 45.8787 37.2974 46.1561 37.1124C47.1735 36.3725 48.1908 35.5402 49.1157 34.6153C50.0405 33.7829 50.8729 32.8581 51.7977 31.9332C51.7977 31.9332 51.7977 31.8407 51.7977 31.7483Z" stroke="black" mask="url(#path-1-outside-1_329_36)"/>
<path d="M64.9213 31.7483C64.8288 31.6558 64.7363 31.5633 64.6438 31.6558C63.6265 32.4881 62.7016 33.228 61.7768 34.0604C61.2219 34.4303 60.7594 34.8003 60.297 35.1702C60.0196 35.3552 59.7421 35.5402 59.5571 35.6327C59.2797 35.8176 59.0022 35.9101 58.7248 36.0026C58.4473 36.0951 58.2623 36.0951 58.0774 36.0026C57.8924 36.0026 57.7999 35.8176 57.6149 35.5402C57.5225 35.3552 57.43 35.0777 57.3375 34.8003C57.245 34.6153 57.245 34.5228 57.1525 34.3379C57.1525 34.2454 57.1525 34.1529 57.06 34.0604C57.06 33.9679 57.06 33.8754 56.9675 33.7829C56.8751 33.6905 56.8751 33.6905 56.7826 33.598C56.6901 33.5055 56.5051 33.5055 56.4126 33.5055C56.3201 33.5055 56.2277 33.5055 56.1352 33.598C56.0427 33.598 55.9502 33.598 55.9502 33.6905C55.7652 33.7829 55.6727 33.8754 55.4878 34.0604C55.3028 34.2454 55.1178 34.5228 54.9329 34.8003C54.5629 35.2627 54.1005 35.6327 53.6381 36.0026C53.2681 36.465 52.7132 36.7425 52.2508 36.9275C52.0658 37.0199 51.7884 37.0199 51.6034 37.0199C51.4184 37.0199 51.3259 36.9275 51.2334 36.7425C51.141 36.5575 51.0485 36.3725 50.956 36.0951C50.956 35.9101 50.956 35.6327 50.956 35.3552C50.956 34.8003 51.0485 34.2454 51.3259 33.7829C51.5109 33.228 51.7883 32.7656 52.1583 32.3032C52.4357 31.9332 52.8057 31.6558 53.2681 31.6558C53.6381 31.5633 54.193 31.6558 54.5629 31.9332C54.6554 32.0257 54.8404 32.1182 54.9329 32.3032C54.9329 32.3032 54.9329 32.3957 54.9329 32.4881V32.5806C54.8404 33.0431 55.0253 33.413 55.4878 33.598C55.8577 33.6905 56.3201 33.413 56.4126 33.0431C56.5051 32.7656 56.5051 32.4881 56.5051 32.2107C56.4126 31.9332 56.3201 31.7483 56.2277 31.5633C55.9502 31.1009 55.6727 30.8234 55.3028 30.6384C54.9329 30.4535 54.5629 30.2685 54.193 30.176C53.823 30.176 53.3606 30.176 52.9907 30.2685C52.6207 30.2685 52.2508 30.4535 51.8808 30.7309C51.5109 30.9159 51.2334 31.1933 51.0485 31.4708C50.6785 32.0257 50.3086 32.6731 50.1236 33.3205C49.8461 33.9679 49.7537 34.6153 49.7537 35.3552C49.6612 35.6327 49.7537 36.0026 49.8462 36.3725C49.9386 36.7425 50.0311 37.1124 50.3086 37.4824C50.4935 37.6673 50.6785 37.7598 50.8635 37.8523C51.0485 38.0373 51.2334 38.0373 51.5109 38.1298C51.8808 38.1298 52.3433 38.0373 52.6207 37.9448C52.9907 37.7598 53.2681 37.5748 53.5456 37.3899C53.823 37.2049 54.1005 37.0199 54.3779 36.835C54.8404 36.3725 55.2103 35.8176 55.6727 35.3552C55.8577 35.0777 56.0427 34.8928 56.2277 34.6153C56.2277 34.6153 56.3201 34.5228 56.3201 34.4303C56.3201 34.5228 56.3201 34.5228 56.4126 34.6153C56.4126 34.7078 56.5051 34.8928 56.5051 35.0777C56.6901 35.3552 56.7826 35.6327 56.9675 36.0026C57.06 36.0951 57.1525 36.2801 57.3375 36.3725C57.43 36.5575 57.6149 36.65 57.7999 36.7425C57.9849 36.835 58.2623 36.835 58.4473 36.835C58.6323 36.835 58.8172 36.7425 59.0022 36.7425C59.2797 36.5575 59.6496 36.3725 59.8346 36.2801C60.1121 36.0951 60.3895 35.9101 60.667 35.7251C61.1294 35.2627 61.6843 34.8928 62.1467 34.5228C63.0716 33.6905 63.9964 32.8581 64.9213 32.0257C65.0138 31.9332 65.0138 31.8407 64.9213 31.7483Z" stroke="black" mask="url(#path-1-outside-1_329_36)"/>
<path d="M90.6857 31.7483C89.8534 32.6731 88.9285 33.5055 87.9112 34.3379C86.9863 35.0777 85.969 35.9101 84.9516 36.5575C84.6742 36.7425 84.3967 36.835 84.2118 37.0199C83.9343 37.1124 83.6568 37.2049 83.3794 37.2974C83.1019 37.3899 82.8245 37.3899 82.732 37.2974C82.6395 37.2974 82.6395 37.2049 82.547 37.1124C82.4545 37.0199 82.4545 36.9275 82.4545 36.7425C82.3621 36.465 82.3621 36.1876 82.3621 35.9101C82.3621 35.6327 82.3621 35.3552 82.3621 34.9853C82.4545 34.4303 82.547 33.7829 82.547 33.1355C82.547 32.7656 82.6395 32.4881 82.6395 32.1182C82.6395 31.8407 82.6395 31.4708 82.547 31.1009C82.547 30.9159 82.4545 30.7309 82.3621 30.5459C82.3621 30.4535 82.2696 30.361 82.1771 30.176C82.0846 30.0835 81.9921 29.991 81.8071 29.991C81.5297 29.8061 81.2522 29.8061 81.0673 29.8061C80.9748 29.8986 80.8823 29.8986 80.7898 29.8986C80.6973 29.8986 80.6973 29.8986 80.6048 29.991C80.5123 29.991 80.5123 29.991 80.4199 30.0835C80.0499 30.2685 79.7725 30.5459 79.5875 30.7309C79.31 31.0084 79.1251 31.2858 78.9401 31.5633C78.5701 32.1182 78.2002 32.6731 77.8303 33.228C77.1829 34.3379 76.6279 35.4477 76.073 36.5575C75.8881 37.0199 75.7956 37.3899 75.6106 37.7598L75.7956 13.1587C75.7956 12.6962 75.4256 12.3263 75.0557 12.4188C74.5933 12.4188 74.2233 12.6962 74.3158 13.1587V13.6211C73.7609 17.228 72.836 20.7425 71.6337 24.2569C70.9863 26.0142 70.2464 27.8639 69.5066 29.6211C68.7667 31.2858 67.9343 33.0431 67.1944 34.7078C66.917 34.4303 66.6395 34.1529 66.2696 33.9679C66.1771 33.7829 65.9921 33.6905 65.8996 33.598C65.7147 33.413 65.6222 33.228 65.5297 33.1355C65.4372 32.8581 65.3447 32.4881 65.4372 32.2107C65.4372 32.0257 65.5297 31.8407 65.6222 31.6558C65.6222 31.5633 65.6222 31.4708 65.7147 31.3783C65.7147 31.3783 65.7147 31.2858 65.8071 31.2858V31.1933C66.0846 30.8234 66.0846 30.361 65.7147 30.0835C65.3447 29.8986 64.8823 29.8986 64.6048 30.2685L64.5123 30.361V30.4535C64.4199 30.5459 64.4199 30.6384 64.3274 30.6384C64.3274 30.8234 64.2349 30.9159 64.1424 31.1009C64.0499 31.3783 63.9574 31.6558 63.9574 31.9332C63.8649 32.2107 63.8649 32.5806 63.9574 32.8581C64.0499 33.228 64.1424 33.5055 64.2349 33.7829C64.4199 34.0604 64.6048 34.3379 64.7898 34.5228C65.0673 34.7078 65.2522 34.8928 65.5297 35.0777C65.8996 35.3552 66.1771 35.6327 66.547 35.9101C66.547 36.0026 66.547 36.0026 66.6395 36.0026C66.3621 36.5575 66.1771 37.1124 65.9921 37.5748C65.8071 38.0373 65.6222 38.4997 65.4372 38.9621C65.3447 39.517 65.2522 39.9795 65.1597 40.5344C65.1597 40.7194 65.0673 40.9968 65.1597 41.2743C65.1597 41.5517 65.1597 41.9217 65.3447 42.1991C65.4372 42.4766 65.6222 42.754 65.8996 42.939C66.0846 43.124 66.362 43.309 66.732 43.4014C66.917 43.4014 67.1019 43.4014 67.2869 43.309C67.4719 43.309 67.6568 43.2165 67.7493 43.124C68.0268 42.939 68.3042 42.6616 68.3967 42.4766C68.7667 42.0142 68.9516 41.4592 69.1366 40.9968C69.3216 39.887 69.3216 38.7772 69.0441 37.7598C68.7667 36.9274 68.3967 36.0951 67.7493 35.3552C67.8418 35.2627 67.8418 35.2627 67.8418 35.2627C68.5817 33.413 69.4141 31.6558 70.0615 29.8986C70.8014 28.0488 71.5412 26.1991 72.0962 24.3494C73.1135 21.5748 73.8534 18.6153 74.3158 15.6558L74.5008 40.2569C74.4083 40.6269 74.6858 40.9968 75.0557 41.0893C75.4256 41.2743 75.8881 41.0893 75.9805 40.6269C76.443 39.517 76.9054 38.3147 77.3678 37.2049C77.8303 36.0026 78.3852 34.8928 78.9401 33.7829C79.2175 33.228 79.5875 32.6731 79.8649 32.2107C80.0499 31.9332 80.2349 31.7483 80.4199 31.4708C80.6048 31.2858 80.7898 31.1009 80.9748 31.0084C80.9748 31.0084 81.1597 30.9159 81.2522 30.9159C81.3447 30.9159 81.3447 30.9159 81.3447 30.9159C81.3447 30.9159 81.3447 30.9159 81.4372 30.9159C81.4372 30.9159 81.4372 30.9159 81.4372 31.0084C81.5297 31.1009 81.5297 31.1933 81.5297 31.2858C81.6222 31.5633 81.6222 31.8407 81.6222 32.1182C81.6222 32.4881 81.6222 32.7656 81.6222 33.0431C81.6222 33.6905 81.5297 34.3379 81.5297 34.9853C81.5297 35.2627 81.5297 35.6327 81.5297 35.9101C81.5297 36.2801 81.5297 36.65 81.6222 36.9275C81.7146 37.1124 81.8071 37.2974 81.8996 37.4824C81.8996 37.5748 81.9921 37.6673 82.0846 37.7598C82.1771 37.8523 82.2696 37.9448 82.3621 37.9448C82.547 38.0373 82.8245 38.1298 83.0094 38.1298C83.1944 38.1298 83.3794 38.0373 83.5644 38.0373C83.9343 37.8523 84.2118 37.7598 84.4892 37.5748C84.7667 37.3899 85.0441 37.2974 85.3216 37.1124C86.3389 36.3725 87.3563 35.5402 88.2811 34.6153C89.206 33.7829 90.0384 32.8581 90.9632 31.9332C90.9632 31.9332 90.9632 31.8407 90.9632 31.7483C90.8707 31.6558 90.7782 31.6558 90.6857 31.7483ZM67.8418 38.1298C68.1193 38.9621 68.2118 39.887 68.0268 40.7194C67.9343 41.1818 67.7493 41.5517 67.5644 41.9217C67.4719 42.0142 67.3794 42.1991 67.1944 42.2916C67.1019 42.3841 67.0094 42.3841 66.917 42.3841C66.732 42.3841 66.6395 42.2916 66.4545 42.1991C66.3621 42.1066 66.2696 41.9217 66.1771 41.8292C65.9921 41.4592 65.9921 40.9968 66.0846 40.6269C66.0846 40.1644 66.1771 39.702 66.3621 39.2396C66.4545 38.7772 66.6395 38.3147 66.732 37.9448C66.917 37.4824 67.0094 37.1124 67.1944 36.7425C67.4719 37.2049 67.6568 37.6673 67.8418 38.1298Z" stroke="black" mask="url(#path-1-outside-1_329_36)"/>
<path d="M100.235 31.7483C100.142 31.6558 100.05 31.6558 100.05 31.7483C98.9401 32.6731 97.9227 33.598 96.8129 34.4303C96.258 34.8928 95.7031 35.2627 95.1482 35.6327C94.5933 36.0951 93.9459 36.465 93.391 36.7425C93.1135 36.9275 92.7436 37.0199 92.4661 37.1124C92.2811 37.2049 92.1886 37.2049 92.0037 37.2974C91.9112 37.2974 91.8187 37.2974 91.8187 37.2974H91.6337C91.5412 37.2974 91.5412 37.2974 91.5412 37.2049C91.5412 37.2049 91.4488 37.2049 91.4488 37.1124C91.4488 37.0199 91.3563 36.9275 91.3563 36.7425C91.2638 36.465 91.1713 36.1876 91.1713 35.8176C91.1713 35.1702 91.1713 34.5228 91.2638 33.8754C91.2638 33.5055 91.2638 33.1355 91.3563 32.7656C91.3563 32.4881 91.4488 32.1182 91.4488 31.8407C91.4488 31.7483 91.4488 31.7483 91.4488 31.7483C91.5412 31.2858 91.1713 30.9159 90.7089 30.9159C90.3389 30.9159 89.969 31.1933 89.969 31.6558C89.969 32.0257 89.969 32.3957 89.969 32.7656C89.969 33.0431 89.969 33.413 89.969 33.7829C89.969 34.5228 90.0615 35.2627 90.154 36.0026C90.2464 36.3725 90.3389 36.7425 90.4314 37.1124C90.5239 37.2974 90.6164 37.4824 90.8014 37.6673C90.8938 37.7598 90.9863 37.8523 91.0788 37.9448C91.2638 38.0373 91.3563 38.0373 91.5412 38.0373H91.8187C92.0037 38.0373 92.0962 38.0373 92.1886 38.0373C92.3736 37.9448 92.5586 37.8523 92.7436 37.8523C93.021 37.6673 93.391 37.4824 93.6684 37.2974C94.3158 37.0199 94.8707 36.5575 95.5181 36.1876C96.073 35.7251 96.6279 35.2627 97.0904 34.8003C98.2002 33.8754 99.2175 32.9506 100.235 31.9332C100.327 31.9332 100.327 31.8407 100.235 31.7483ZM90.0615 28.9737C90.0615 29.0662 90.0615 29.2511 90.0615 29.3436C90.154 29.6211 90.3389 29.8061 90.6164 29.8061C90.9863 29.8986 91.2638 29.6211 91.2638 29.3436V29.2511C91.2638 29.1587 91.2638 29.0662 91.2638 28.9737C91.3563 28.8812 91.3563 28.6962 91.3563 28.6038C91.3563 28.6038 91.3563 28.5113 91.4488 28.4188C91.7262 28.1413 91.7262 27.5864 91.4488 27.309C91.1713 27.0315 90.6164 27.0315 90.3389 27.309C90.2464 27.4014 90.2464 27.4939 90.154 27.5864C90.154 27.5864 90.154 27.6789 90.154 27.7714C90.0615 27.7714 90.0615 27.8639 90.0615 27.8639C90.0615 27.9564 90.0615 27.9564 90.0615 28.0488C89.969 28.2338 89.969 28.4188 89.969 28.5113C89.969 28.6962 90.0615 28.7887 90.0615 28.9737Z" stroke="black" mask="url(#path-1-outside-1_329_36)"/>
</svg>
