<svg width="101" height="66" viewBox="0 0 101 66" fill="none" xmlns="http://www.w3.org/2000/svg">
<mask id="path-1-outside-1_333_1253" maskUnits="userSpaceOnUse" x="0" y="0" width="101" height="66" fill="black">
<rect fill="white" width="101" height="66"/>
<path d="M41.5434 8.30636C41.1734 7.56647 40.8035 6.82659 40.341 6.17919C39.8786 5.53179 39.4162 4.97688 38.7688 4.42197C37.659 3.31214 36.1792 2.47977 34.6994 1.92485C33.9595 1.6474 33.2197 1.46243 32.4798 1.27746C32.2023 1.27746 32.0173 1.27746 31.8324 1.18497H31.5549L31.2775 1.09248H30.7225L30.0751 1C29.3353 1 28.5029 0.999999 27.6705 1.09248C27.4856 1.09248 27.3006 1.18497 27.1156 1.18497C26.9306 1.18497 26.7457 1.18497 26.5607 1.27746L25.9133 1.36994L25.3584 1.55491C24.6185 1.73988 23.8786 1.92485 23.1387 2.20231C22.7688 2.38728 22.3988 2.57225 22.0289 2.66474C21.8439 2.75722 21.659 2.84971 21.474 2.9422C21.3815 3.03468 21.1965 3.12717 21.0116 3.21965C19.6243 3.86705 18.237 4.69942 16.9422 5.53179C14.4451 7.3815 12.1329 9.41618 10.0058 11.7283C8.98844 12.8381 8.06358 14.0405 7.13873 15.3353C6.21387 16.5376 5.3815 17.8324 4.64162 19.2197C3.80925 20.6069 3.16185 21.9942 2.60694 23.474C2.05202 24.8613 1.5896 26.4335 1.31214 28.0058C1.03468 29.4856 0.942197 31.1503 1.03468 32.7225C1.12717 33.5549 1.31214 34.2948 1.49711 35.1272C1.68208 35.8671 2.05202 36.6069 2.42197 37.3468L2.69942 37.9017C2.79191 38.0867 2.88439 38.2717 2.97688 38.3642C3.06936 38.4566 3.06936 38.5491 3.16185 38.6416L3.53179 39.1965C3.62428 39.1965 3.62428 39.289 3.71676 39.3815L4.08671 39.8439C4.27168 40.0289 4.36416 40.1214 4.54913 40.3064L4.7341 40.4913C4.82659 40.5838 4.91908 40.6763 4.91908 40.7688L5.3815 41.1387C5.56647 41.2312 5.75145 41.4162 5.84393 41.5087L6.12139 41.6936C6.21387 41.7861 6.30636 41.7861 6.39884 41.8786C6.6763 42.0636 7.04624 42.341 7.3237 42.526C8.06358 42.896 8.71098 43.2659 9.45087 43.6358C10.8382 44.2832 12.3179 44.8382 13.7052 45.3931C15.185 45.8555 16.6647 46.3179 18.052 46.7803C21.0116 47.7977 23.8786 48.6301 26.6532 49.8324C27.3006 50.1098 27.948 50.4798 28.5954 50.8497C29.2428 51.1272 29.8902 51.5896 30.4451 51.9595C31 52.422 31.5549 52.8844 31.9249 53.4393C32.3873 53.9942 32.5723 54.5491 32.6647 55.1965C32.7572 55.5665 32.7572 55.8439 32.6647 56.2139C32.5723 56.4913 32.4798 56.7688 32.3873 57.1387C32.2023 57.4162 32.0173 57.6936 31.8324 57.9711C31.6474 58.2486 31.3699 58.526 31.185 58.8035C30.1676 59.9133 28.9653 60.7457 27.763 61.578C26.4682 62.3179 25.1734 62.9653 23.6936 63.4277C23.0462 63.7052 22.3064 63.8902 21.5665 63.9827C21.1965 64.0751 20.8266 64.0751 20.5491 64.0751C20.1792 64.0751 19.8092 64.0751 19.4393 64.0751C18.7919 63.9827 18.052 63.7977 17.5896 63.3353C17.3121 63.1503 17.1272 62.8728 17.0347 62.5029C16.8497 62.2254 16.7572 61.948 16.7572 61.578C16.6647 61.2081 16.6647 60.8382 16.6647 60.4682C16.6647 60.2832 16.6647 60.0983 16.6647 60.0058C16.7572 59.8208 16.7572 59.6358 16.7572 59.4509C16.9422 58.711 17.1272 57.9711 17.3121 57.2312C17.4046 57.1387 17.3121 56.9538 17.1272 56.8613C17.0347 56.7688 16.8497 56.8613 16.7572 57.0462C16.4798 57.7861 16.2948 58.526 16.1098 59.2659C16.0173 59.4509 16.0173 59.6358 16.0173 59.9133C15.9249 60.0983 15.9249 60.2832 15.9249 60.4682C15.9249 60.8382 15.9249 61.3006 15.9249 61.6705C16.0173 62.0405 16.1098 62.5029 16.2948 62.8728C16.4798 63.2428 16.7572 63.6127 17.0347 63.8902C17.4046 64.2601 17.7746 64.4451 18.1445 64.6301C18.5145 64.815 18.8844 64.9075 19.3468 64.9075C19.7168 65 20.1792 65 20.5491 65C20.9191 65 21.3815 65 21.7514 64.9075C22.4913 64.815 23.3237 64.6301 24.0636 64.4451C24.8035 64.1676 25.5434 63.8902 26.1908 63.6127C26.9306 63.2428 27.6705 62.8728 28.3179 62.5029C29.6127 61.6705 30.9075 60.7457 32.0173 59.6358C32.2948 59.3584 32.5723 58.9884 32.8497 58.711C33.0347 58.341 33.3121 57.9711 33.4971 57.6012C33.6821 57.2312 33.7746 56.8613 33.8671 56.3988C33.9595 56.3064 33.9595 56.2139 33.9595 56.0289C33.9595 55.9364 33.9595 55.8439 33.9595 55.7514C33.9595 55.5665 33.9595 55.289 33.9595 55.104C33.8671 54.1792 33.4971 53.3468 33.0347 52.6994C32.4798 51.9595 31.9249 51.4046 31.2775 50.9422C30.6301 50.4798 29.9827 50.0173 29.2428 49.6474C28.5954 49.2775 27.8555 48.9075 27.2081 48.6301C25.7283 47.9827 24.341 47.4277 22.8613 46.8728C21.474 46.4104 19.9942 45.948 18.5145 45.3931C17.1272 44.9306 15.6474 44.4682 14.2601 43.9133C12.8728 43.4509 11.3931 42.896 10.0983 42.2486C9.45087 41.9711 8.80347 41.6012 8.15607 41.2312C7.87861 41.0462 7.50867 40.8613 7.23121 40.5838C7.13873 40.5838 7.04624 40.4913 7.04624 40.4913L6.76879 40.3064C6.6763 40.2139 6.49133 40.1214 6.39884 39.9364L6.0289 39.5665C5.93642 39.5665 5.84393 39.474 5.75145 39.3815L5.56647 39.1965C5.47399 39.104 5.3815 39.0116 5.28902 38.8266L4.91908 38.4566C4.82659 38.3642 4.82659 38.2717 4.7341 38.2717L4.54913 37.9942L4.45665 37.8092C4.36416 37.7168 4.36416 37.6243 4.27168 37.5318C4.17919 37.4393 4.08671 37.2543 3.99422 37.1618L3.71676 36.6994C3.43931 36.052 3.16185 35.4046 2.97688 34.6647C2.79191 34.0173 2.69942 33.2775 2.60694 32.5376C2.42197 31.1503 2.51445 29.6705 2.79191 28.1908C3.06936 26.8035 3.53179 25.4162 3.99422 24.0289C4.54913 22.6416 5.19653 21.2543 5.93642 19.9595C6.6763 18.6647 7.41618 17.3699 8.34104 16.1676C9.17341 14.9653 10.0983 13.8555 11.1156 12.7457C13.1503 10.4335 15.3699 8.39884 17.7746 6.7341C18.9769 5.80925 20.2717 5.06936 21.5665 4.42197C21.7514 4.32948 21.9364 4.23699 22.1214 4.14451C22.3064 4.05202 22.3988 3.95954 22.5838 3.95954C22.9538 3.77457 23.2312 3.58959 23.6012 3.49711C24.341 3.21965 24.9884 2.9422 25.7283 2.75723C27.1156 2.38728 28.5954 2.20231 29.9827 2.2948H30.5376L31.0925 2.38728H31.3699L31.6474 2.47977C31.8324 2.47977 32.0173 2.47977 32.2023 2.47977C32.9422 2.66474 33.6821 2.84971 34.3295 3.03468C35.7168 3.49711 37.0116 4.23699 38.0289 5.25434C39.1387 6.17919 39.9711 7.3815 40.6185 8.76878C41.2659 10.0636 41.7283 11.4509 42.0058 12.9306C42.2832 14.4104 42.3757 15.8902 42.3757 17.3699C42.4682 18.8497 42.3757 20.422 42.1908 21.9017C42.0983 22.6416 42.0058 23.3815 41.9133 24.1214C41.8208 24.8613 41.6358 25.6012 41.5434 26.341C41.4509 26.526 41.5434 26.711 41.7283 26.711C41.9133 26.8035 42.0983 26.711 42.0983 26.526C42.2832 25.7861 42.4682 25.0462 42.5607 24.2139C42.7457 23.474 42.8382 22.7341 42.9306 21.9942C43.1156 20.422 43.3006 18.9422 43.3006 17.3699C43.3006 15.7977 43.1156 14.3179 42.9306 12.7457C42.6532 11.2659 42.1908 9.69364 41.5434 8.30636Z"/>
<path d="M51.8114 31.5202C51.7189 31.4277 51.6264 31.4277 51.534 31.5202C50.7016 32.4451 49.7767 33.2775 48.7594 34.1098C47.8345 34.8497 46.8172 35.6821 45.7999 36.3295C45.5224 36.5145 45.2449 36.6069 44.9675 36.7919C44.7825 36.8844 44.5051 36.9769 44.2276 37.0694C43.9501 37.1618 43.6727 37.1618 43.5802 37.0694C43.4877 37.0694 43.4877 36.9769 43.3952 36.8844C43.3027 36.7919 43.3027 36.6994 43.3027 36.5145C43.2103 36.237 43.2103 35.9595 43.2103 35.6821C43.2103 35.4046 43.2103 35.1272 43.2103 34.7572C43.3027 34.2023 43.3027 33.5549 43.3952 32.9075C43.3952 32.5376 43.4877 32.2601 43.4877 31.8902C43.4877 31.6127 43.4877 31.2428 43.3952 30.8728C43.3952 30.6879 43.3027 30.5029 43.2103 30.3179C43.2103 30.2254 43.1178 30.133 43.0253 29.948C42.9328 29.8555 42.8403 29.763 42.6553 29.763C42.3779 29.578 42.1004 29.578 41.9155 29.578C41.823 29.6705 41.7305 29.6705 41.5455 29.6705C41.5455 29.6705 41.5455 29.6705 41.453 29.763C41.3605 29.763 41.3605 29.763 41.2681 29.8555C40.8981 30.0405 40.6207 30.3179 40.4357 30.5029C40.1582 30.7803 39.9733 31.0578 39.7883 31.3353C39.4184 31.8902 39.0484 32.4451 38.6785 33C38.0311 34.1098 37.4762 35.2197 36.9212 36.3295C36.7363 36.7919 36.6438 37.1618 36.4588 37.5318L36.6438 12.9306C36.6438 12.4682 36.2738 12.0983 35.9039 12.1908C35.4415 12.1908 35.0715 12.4682 35.164 12.9306L35.349 40.0289C35.2565 40.3988 35.534 40.7688 35.9039 40.8613C36.2738 41.0462 36.7363 40.8613 36.8288 40.3988C37.2912 39.289 37.7536 38.0867 38.216 36.9769C38.6785 35.7746 39.2334 34.6647 39.7883 33.5549C40.0658 33 40.4357 32.4451 40.7132 31.9827C40.8981 31.7052 41.0831 31.5202 41.2681 31.2428C41.453 31.0578 41.638 30.8728 41.823 30.7803C41.823 30.7803 42.0079 30.6879 42.1004 30.6879C42.1929 30.6879 42.1929 30.6879 42.1929 30.6879C42.1929 30.6879 42.1929 30.6879 42.2854 30.6879C42.2854 30.6879 42.2854 30.6879 42.2854 30.7803C42.3779 30.8728 42.3779 30.9653 42.3779 31.0578C42.4704 31.3353 42.4704 31.6127 42.4704 31.8902C42.4704 32.2601 42.4704 32.5376 42.4704 32.815C42.4704 33.4624 42.3779 34.1098 42.3779 34.7572C42.3779 35.0347 42.3779 35.4046 42.3779 35.6821C42.3779 36.052 42.3779 36.422 42.4704 36.6994C42.5629 36.8844 42.6553 37.0694 42.7478 37.2543C42.7478 37.3468 42.8403 37.4393 42.9328 37.5318C43.0253 37.6243 43.1178 37.7168 43.2103 37.7168C43.3952 37.8092 43.6727 37.9017 43.8577 37.9017C44.0426 37.9017 44.2276 37.8092 44.4126 37.8092C44.69 37.6243 45.06 37.5318 45.3374 37.3468C45.6149 37.1618 45.8923 37.0694 46.1698 36.8844C47.1871 36.1445 48.2045 35.3121 49.1293 34.3873C50.0542 33.5549 50.8866 32.6301 51.8114 31.7052C51.8114 31.7052 51.8114 31.6127 51.8114 31.5202Z"/>
<path d="M64.935 31.5202C64.8425 31.4277 64.75 31.3353 64.6575 31.4277C63.6402 32.2601 62.7153 33 61.7905 33.8324C61.2355 34.2023 60.7731 34.5723 60.3107 34.9422C60.0332 35.1272 59.7558 35.3121 59.5708 35.4046C59.2934 35.5896 59.0159 35.6821 58.7384 35.7746C58.461 35.8671 58.276 35.8671 58.091 35.7746C57.9061 35.7746 57.8136 35.5896 57.6286 35.3121C57.5361 35.1272 57.4436 34.8497 57.3512 34.5723C57.2587 34.3873 57.2587 34.2948 57.1662 34.1098C57.1662 34.0173 57.1662 33.9249 57.0737 33.8324C57.0737 33.7399 57.0737 33.6474 56.9812 33.5549C56.8887 33.4624 56.8887 33.4624 56.7962 33.3699C56.7038 33.2775 56.5188 33.2775 56.4263 33.2775C56.3338 33.2775 56.2413 33.2775 56.1488 33.3699C56.0564 33.3699 55.9639 33.3699 55.9639 33.4624C55.7789 33.5549 55.6864 33.6474 55.5014 33.8324C55.3165 34.0173 55.1315 34.2948 54.9465 34.5723C54.5766 35.0347 54.1142 35.4046 53.6517 35.7746C53.2818 36.237 52.7269 36.5145 52.2645 36.6994C52.0795 36.7919 51.802 36.7919 51.6171 36.7919C51.4321 36.7919 51.3396 36.6994 51.2471 36.5145C51.1546 36.3295 51.0621 36.1445 50.9697 35.8671C50.9697 35.6821 50.9697 35.4046 50.9697 35.1272C50.9697 34.5723 51.0621 34.0173 51.3396 33.5549C51.5246 33 51.802 32.5376 52.172 32.0751C52.4494 31.7052 52.8194 31.4277 53.2818 31.4277C53.6517 31.3353 54.2066 31.4277 54.5766 31.7052C54.6691 31.7977 54.854 31.8902 54.9465 32.0751C54.9465 32.0751 54.9465 32.1676 54.9465 32.2601V32.3526C54.854 32.815 55.039 33.185 55.5014 33.3699C55.8714 33.4624 56.3338 33.185 56.4263 32.815C56.5188 32.5376 56.5188 32.2601 56.5188 31.9827C56.4263 31.7052 56.3338 31.5202 56.2413 31.3353C55.9639 30.8728 55.6864 30.5954 55.3165 30.4104C54.9465 30.2254 54.5766 30.0405 54.2066 29.948C53.8367 29.948 53.3743 29.948 53.0043 30.0405C52.6344 30.0405 52.2644 30.2254 51.8945 30.5029C51.5246 30.6879 51.2471 30.9653 51.0621 31.2428C50.6922 31.7977 50.3223 32.4451 50.1373 33.0925C49.8598 33.7399 49.7673 34.3873 49.7673 35.1272C49.6749 35.4046 49.7673 35.7746 49.8598 36.1445C49.9523 36.5145 50.0448 36.8844 50.3223 37.2543C50.5072 37.4393 50.6922 37.5318 50.8772 37.6243C51.0621 37.8092 51.2471 37.8092 51.5246 37.9017C51.8945 37.9017 52.3569 37.8092 52.6344 37.7168C53.0043 37.5318 53.2818 37.3468 53.5592 37.1618C53.8367 36.9769 54.1142 36.7919 54.3916 36.6069C54.854 36.1445 55.224 35.5896 55.6864 35.1272C55.8714 34.8497 56.0564 34.6647 56.2413 34.3873C56.2413 34.3873 56.3338 34.2948 56.3338 34.2023C56.3338 34.2948 56.3338 34.2948 56.4263 34.3873C56.4263 34.4798 56.5188 34.6647 56.5188 34.8497C56.7038 35.1272 56.7962 35.4046 56.9812 35.7746C57.0737 35.8671 57.1662 36.052 57.3512 36.1445C57.4436 36.3295 57.6286 36.422 57.8136 36.5145C57.9986 36.6069 58.276 36.6069 58.461 36.6069C58.646 36.6069 58.8309 36.5145 59.0159 36.5145C59.2934 36.3295 59.6633 36.1445 59.8483 36.052C60.1257 35.8671 60.4032 35.6821 60.6806 35.4971C61.1431 35.0347 61.698 34.6647 62.1604 34.2948C63.0853 33.4624 64.0101 32.6301 64.935 31.7977C65.0275 31.7052 65.0275 31.6127 64.935 31.5202Z"/>
<path d="M90.6994 31.5202C89.8671 32.4451 88.9422 33.2775 87.9249 34.1098C87 34.8497 85.9827 35.6821 84.9653 36.3295C84.6879 36.5145 84.4104 36.6069 84.2254 36.7919C83.948 36.8844 83.6705 36.9769 83.3931 37.0694C83.1156 37.1618 82.8382 37.1618 82.7457 37.0694C82.6532 37.0694 82.6532 36.9769 82.5607 36.8844C82.4682 36.7919 82.4682 36.6994 82.4682 36.5145C82.3757 36.237 82.3757 35.9595 82.3757 35.6821C82.3757 35.4046 82.3757 35.1272 82.3757 34.7572C82.4682 34.2023 82.5607 33.5549 82.5607 32.9075C82.5607 32.5376 82.6532 32.2601 82.6532 31.8902C82.6532 31.6127 82.6532 31.2428 82.5607 30.8728C82.5607 30.6879 82.4682 30.5029 82.3757 30.3179C82.3757 30.2254 82.2832 30.133 82.1908 29.948C82.0983 29.8555 82.0058 29.763 81.8208 29.763C81.5434 29.578 81.2659 29.578 81.0809 29.578C80.9884 29.6705 80.896 29.6705 80.8035 29.6705C80.711 29.6705 80.711 29.6705 80.6185 29.763C80.526 29.763 80.526 29.763 80.4335 29.8555C80.0636 30.0405 79.7861 30.3179 79.6012 30.5029C79.3237 30.7803 79.1387 31.0578 78.9538 31.3353C78.5838 31.8902 78.2139 32.4451 77.8439 33C77.1965 34.1098 76.6416 35.2197 76.0867 36.3295C75.9017 36.7919 75.8092 37.1618 75.6243 37.5318L75.8092 12.9306C75.8092 12.4682 75.4393 12.0983 75.0694 12.1908C74.6069 12.1908 74.237 12.4682 74.3295 12.9306V13.3931C73.7746 17 72.8497 20.5145 71.6474 24.0289C71 25.7861 70.2601 27.6358 69.5202 29.3931C68.7803 31.0578 67.948 32.815 67.2081 34.4798C66.9306 34.2023 66.6532 33.9249 66.2832 33.7399C66.1908 33.5549 66.0058 33.4624 65.9133 33.3699C65.7283 33.185 65.6358 33 65.5434 32.9075C65.4509 32.6301 65.3584 32.2601 65.4509 31.9827C65.4509 31.7977 65.5434 31.6127 65.6358 31.4277C65.6358 31.3353 65.6358 31.2428 65.7283 31.1503C65.7283 31.1503 65.7283 31.0578 65.8208 31.0578V30.9653C66.0983 30.5954 66.0983 30.1329 65.7283 29.8555C65.3584 29.6705 64.896 29.6705 64.6185 30.0405L64.526 30.133V30.2254C64.4335 30.3179 64.4335 30.4104 64.341 30.4104C64.341 30.5954 64.2486 30.6879 64.1561 30.8728C64.0636 31.1503 63.9711 31.4277 63.9711 31.7052C63.8786 31.9827 63.8786 32.3526 63.9711 32.6301C64.0636 33 64.1561 33.2775 64.2486 33.5549C64.4335 33.8324 64.6185 34.1098 64.8035 34.2948C65.0809 34.4798 65.2659 34.6647 65.5434 34.8497C65.9133 35.1272 66.1908 35.4046 66.5607 35.6821C66.5607 35.7746 66.5607 35.7746 66.6532 35.7746C66.3757 36.3295 66.1908 36.8844 66.0058 37.3468C65.8208 37.8092 65.6358 38.2717 65.4509 38.7341C65.3584 39.289 65.2659 39.7514 65.1734 40.3064C65.1734 40.4913 65.0809 40.7688 65.1734 41.0462C65.1734 41.3237 65.1734 41.6936 65.3584 41.9711C65.4509 42.2486 65.6358 42.526 65.9133 42.711C66.0983 42.896 66.3757 43.0809 66.7457 43.1734C66.9306 43.1734 67.1156 43.1734 67.3006 43.0809C67.4855 43.0809 67.6705 42.9884 67.763 42.896C68.0405 42.711 68.3179 42.4335 68.4104 42.2486C68.7803 41.7861 68.9653 41.2312 69.1503 40.7688C69.3353 39.659 69.3353 38.5491 69.0578 37.5318C68.7803 36.6994 68.4104 35.8671 67.763 35.1272C67.8555 35.0347 67.8555 35.0347 67.8555 35.0347C68.5954 33.185 69.4277 31.4277 70.0751 29.6705C70.815 27.8208 71.5549 25.9711 72.1098 24.1214C73.1272 21.3468 73.8671 18.3873 74.3295 15.4277L74.5145 40.0289C74.422 40.3988 74.6994 40.7688 75.0694 40.8613C75.4393 41.0462 75.9017 40.8613 75.9942 40.3988C76.4566 39.289 76.9191 38.0867 77.3815 36.9769C77.8439 35.7746 78.3988 34.6647 78.9538 33.5549C79.2312 33 79.6012 32.4451 79.8786 31.9827C80.0636 31.7052 80.2486 31.5202 80.4335 31.2428C80.6185 31.0578 80.8035 30.8728 80.9884 30.7803C80.9884 30.7803 81.1734 30.6879 81.2659 30.6879C81.3584 30.6879 81.3584 30.6879 81.3584 30.6879C81.3584 30.6879 81.3584 30.6879 81.4509 30.6879C81.4509 30.6879 81.4509 30.6879 81.4509 30.7803C81.5434 30.8728 81.5434 30.9653 81.5434 31.0578C81.6358 31.3353 81.6358 31.6127 81.6358 31.8902C81.6358 32.2601 81.6358 32.5376 81.6358 32.815C81.6358 33.4624 81.5434 34.1098 81.5434 34.7572C81.5434 35.0347 81.5434 35.4046 81.5434 35.6821C81.5434 36.052 81.5434 36.422 81.6358 36.6994C81.7283 36.8844 81.8208 37.0694 81.9133 37.2543C81.9133 37.3468 82.0058 37.4393 82.0983 37.5318C82.1908 37.6243 82.2832 37.7168 82.3757 37.7168C82.5607 37.8092 82.8381 37.9017 83.0231 37.9017C83.2081 37.9017 83.3931 37.8092 83.578 37.8092C83.948 37.6243 84.2254 37.5318 84.5029 37.3468C84.7803 37.1618 85.0578 37.0694 85.3353 36.8844C86.3526 36.1445 87.3699 35.3121 88.2948 34.3873C89.2197 33.5549 90.052 32.6301 90.9769 31.7052C90.9769 31.7052 90.9769 31.6127 90.9769 31.5202C90.8844 31.4277 90.7919 31.4277 90.6994 31.5202ZM67.8555 37.9017C68.1329 38.7341 68.2254 39.659 68.0405 40.4913C67.948 40.9538 67.763 41.3237 67.578 41.6936C67.4855 41.7861 67.3931 41.9711 67.2081 42.0636C67.1156 42.1561 67.0231 42.1561 66.9306 42.1561C66.7457 42.1561 66.6532 42.0636 66.4682 41.9711C66.3757 41.8786 66.2832 41.6936 66.1908 41.6012C66.0058 41.2312 66.0058 40.7688 66.0983 40.3988C66.0983 39.9364 66.1908 39.474 66.3757 39.0116C66.4682 38.5491 66.6532 38.0867 66.7457 37.7168C66.9306 37.2543 67.0231 36.8844 67.2081 36.5145C67.4855 36.9769 67.6705 37.4393 67.8555 37.9017Z"/>
<path d="M100.249 31.5202C100.156 31.4277 100.064 31.4277 100.064 31.5202C98.9538 32.4451 97.9364 33.3699 96.8266 34.2023C96.2717 34.6647 95.7168 35.0347 95.1618 35.4046C94.6069 35.8671 93.9595 36.237 93.4046 36.5145C93.1272 36.6994 92.7572 36.7919 92.4798 36.8844C92.2948 36.9769 92.2023 36.9769 92.0173 37.0694C91.9249 37.0694 91.8324 37.0694 91.8324 37.0694H91.6474C91.5549 37.0694 91.5549 37.0694 91.5549 36.9769C91.5549 36.9769 91.4624 36.9769 91.4624 36.8844C91.4624 36.7919 91.3699 36.6994 91.3699 36.5145C91.2775 36.237 91.185 35.9595 91.185 35.5896C91.185 34.9422 91.185 34.2948 91.2775 33.6474C91.2775 33.2775 91.2775 32.9075 91.3699 32.5376C91.3699 32.2601 91.4624 31.8902 91.4624 31.6127C91.4624 31.5202 91.4624 31.5202 91.4624 31.5202C91.5549 31.0578 91.185 30.6879 90.7225 30.6879C90.3526 30.6879 89.9827 30.9653 89.9827 31.4277C89.9827 31.7977 89.9827 32.1676 89.9827 32.5376C89.9827 32.815 89.9827 33.185 89.9827 33.5549C89.9827 34.2948 90.0751 35.0347 90.1676 35.7746C90.2601 36.1445 90.3526 36.5145 90.4451 36.8844C90.5376 37.0694 90.6301 37.2543 90.815 37.4393C90.9075 37.5318 91 37.6243 91.0925 37.7168C91.2775 37.8092 91.3699 37.8092 91.5549 37.8092H91.8324C92.0173 37.8092 92.1098 37.8092 92.2023 37.8092C92.3873 37.7168 92.5723 37.6243 92.7572 37.6243C93.0347 37.4393 93.4046 37.2543 93.6821 37.0694C94.3295 36.7919 94.8844 36.3295 95.5318 35.9595C96.0867 35.4971 96.6416 35.0347 97.104 34.5723C98.2139 33.6474 99.2312 32.7225 100.249 31.7052C100.341 31.7052 100.341 31.6127 100.249 31.5202ZM90.0751 28.7457C90.0751 28.8382 90.0751 29.0231 90.0751 29.1156C90.1676 29.3931 90.3526 29.578 90.6301 29.578C91 29.6705 91.2775 29.3931 91.2775 29.1156V29.0231C91.2775 28.9306 91.2775 28.8382 91.2775 28.7457C91.3699 28.6532 91.3699 28.4682 91.3699 28.3757C91.3699 28.3757 91.3699 28.2832 91.4624 28.1908C91.7399 27.9133 91.7399 27.3584 91.4624 27.0809C91.185 26.8035 90.6301 26.8035 90.3526 27.0809C90.2601 27.1734 90.2601 27.2659 90.1676 27.3584C90.1676 27.3584 90.1676 27.4509 90.1676 27.5434C90.0751 27.5434 90.0751 27.6358 90.0751 27.6358C90.0751 27.7283 90.0751 27.7283 90.0751 27.8208C89.9827 28.0058 89.9827 28.1908 89.9827 28.2832C89.9827 28.4682 90.0751 28.5607 90.0751 28.7457Z"/>
</mask>
<path d="M41.5434 8.30636C41.1734 7.56647 40.8035 6.82659 40.341 6.17919C39.8786 5.53179 39.4162 4.97688 38.7688 4.42197C37.659 3.31214 36.1792 2.47977 34.6994 1.92485C33.9595 1.6474 33.2197 1.46243 32.4798 1.27746C32.2023 1.27746 32.0173 1.27746 31.8324 1.18497H31.5549L31.2775 1.09248H30.7225L30.0751 1C29.3353 1 28.5029 0.999999 27.6705 1.09248C27.4856 1.09248 27.3006 1.18497 27.1156 1.18497C26.9306 1.18497 26.7457 1.18497 26.5607 1.27746L25.9133 1.36994L25.3584 1.55491C24.6185 1.73988 23.8786 1.92485 23.1387 2.20231C22.7688 2.38728 22.3988 2.57225 22.0289 2.66474C21.8439 2.75722 21.659 2.84971 21.474 2.9422C21.3815 3.03468 21.1965 3.12717 21.0116 3.21965C19.6243 3.86705 18.237 4.69942 16.9422 5.53179C14.4451 7.3815 12.1329 9.41618 10.0058 11.7283C8.98844 12.8381 8.06358 14.0405 7.13873 15.3353C6.21387 16.5376 5.3815 17.8324 4.64162 19.2197C3.80925 20.6069 3.16185 21.9942 2.60694 23.474C2.05202 24.8613 1.5896 26.4335 1.31214 28.0058C1.03468 29.4856 0.942197 31.1503 1.03468 32.7225C1.12717 33.5549 1.31214 34.2948 1.49711 35.1272C1.68208 35.8671 2.05202 36.6069 2.42197 37.3468L2.69942 37.9017C2.79191 38.0867 2.88439 38.2717 2.97688 38.3642C3.06936 38.4566 3.06936 38.5491 3.16185 38.6416L3.53179 39.1965C3.62428 39.1965 3.62428 39.289 3.71676 39.3815L4.08671 39.8439C4.27168 40.0289 4.36416 40.1214 4.54913 40.3064L4.7341 40.4913C4.82659 40.5838 4.91908 40.6763 4.91908 40.7688L5.3815 41.1387C5.56647 41.2312 5.75145 41.4162 5.84393 41.5087L6.12139 41.6936C6.21387 41.7861 6.30636 41.7861 6.39884 41.8786C6.6763 42.0636 7.04624 42.341 7.3237 42.526C8.06358 42.896 8.71098 43.2659 9.45087 43.6358C10.8382 44.2832 12.3179 44.8382 13.7052 45.3931C15.185 45.8555 16.6647 46.3179 18.052 46.7803C21.0116 47.7977 23.8786 48.6301 26.6532 49.8324C27.3006 50.1098 27.948 50.4798 28.5954 50.8497C29.2428 51.1272 29.8902 51.5896 30.4451 51.9595C31 52.422 31.5549 52.8844 31.9249 53.4393C32.3873 53.9942 32.5723 54.5491 32.6647 55.1965C32.7572 55.5665 32.7572 55.8439 32.6647 56.2139C32.5723 56.4913 32.4798 56.7688 32.3873 57.1387C32.2023 57.4162 32.0173 57.6936 31.8324 57.9711C31.6474 58.2486 31.3699 58.526 31.185 58.8035C30.1676 59.9133 28.9653 60.7457 27.763 61.578C26.4682 62.3179 25.1734 62.9653 23.6936 63.4277C23.0462 63.7052 22.3064 63.8902 21.5665 63.9827C21.1965 64.0751 20.8266 64.0751 20.5491 64.0751C20.1792 64.0751 19.8092 64.0751 19.4393 64.0751C18.7919 63.9827 18.052 63.7977 17.5896 63.3353C17.3121 63.1503 17.1272 62.8728 17.0347 62.5029C16.8497 62.2254 16.7572 61.948 16.7572 61.578C16.6647 61.2081 16.6647 60.8382 16.6647 60.4682C16.6647 60.2832 16.6647 60.0983 16.6647 60.0058C16.7572 59.8208 16.7572 59.6358 16.7572 59.4509C16.9422 58.711 17.1272 57.9711 17.3121 57.2312C17.4046 57.1387 17.3121 56.9538 17.1272 56.8613C17.0347 56.7688 16.8497 56.8613 16.7572 57.0462C16.4798 57.7861 16.2948 58.526 16.1098 59.2659C16.0173 59.4509 16.0173 59.6358 16.0173 59.9133C15.9249 60.0983 15.9249 60.2832 15.9249 60.4682C15.9249 60.8382 15.9249 61.3006 15.9249 61.6705C16.0173 62.0405 16.1098 62.5029 16.2948 62.8728C16.4798 63.2428 16.7572 63.6127 17.0347 63.8902C17.4046 64.2601 17.7746 64.4451 18.1445 64.6301C18.5145 64.815 18.8844 64.9075 19.3468 64.9075C19.7168 65 20.1792 65 20.5491 65C20.9191 65 21.3815 65 21.7514 64.9075C22.4913 64.815 23.3237 64.6301 24.0636 64.4451C24.8035 64.1676 25.5434 63.8902 26.1908 63.6127C26.9306 63.2428 27.6705 62.8728 28.3179 62.5029C29.6127 61.6705 30.9075 60.7457 32.0173 59.6358C32.2948 59.3584 32.5723 58.9884 32.8497 58.711C33.0347 58.341 33.3121 57.9711 33.4971 57.6012C33.6821 57.2312 33.7746 56.8613 33.8671 56.3988C33.9595 56.3064 33.9595 56.2139 33.9595 56.0289C33.9595 55.9364 33.9595 55.8439 33.9595 55.7514C33.9595 55.5665 33.9595 55.289 33.9595 55.104C33.8671 54.1792 33.4971 53.3468 33.0347 52.6994C32.4798 51.9595 31.9249 51.4046 31.2775 50.9422C30.6301 50.4798 29.9827 50.0173 29.2428 49.6474C28.5954 49.2775 27.8555 48.9075 27.2081 48.6301C25.7283 47.9827 24.341 47.4277 22.8613 46.8728C21.474 46.4104 19.9942 45.948 18.5145 45.3931C17.1272 44.9306 15.6474 44.4682 14.2601 43.9133C12.8728 43.4509 11.3931 42.896 10.0983 42.2486C9.45087 41.9711 8.80347 41.6012 8.15607 41.2312C7.87861 41.0462 7.50867 40.8613 7.23121 40.5838C7.13873 40.5838 7.04624 40.4913 7.04624 40.4913L6.76879 40.3064C6.6763 40.2139 6.49133 40.1214 6.39884 39.9364L6.0289 39.5665C5.93642 39.5665 5.84393 39.474 5.75145 39.3815L5.56647 39.1965C5.47399 39.104 5.3815 39.0116 5.28902 38.8266L4.91908 38.4566C4.82659 38.3642 4.82659 38.2717 4.7341 38.2717L4.54913 37.9942L4.45665 37.8092C4.36416 37.7168 4.36416 37.6243 4.27168 37.5318C4.17919 37.4393 4.08671 37.2543 3.99422 37.1618L3.71676 36.6994C3.43931 36.052 3.16185 35.4046 2.97688 34.6647C2.79191 34.0173 2.69942 33.2775 2.60694 32.5376C2.42197 31.1503 2.51445 29.6705 2.79191 28.1908C3.06936 26.8035 3.53179 25.4162 3.99422 24.0289C4.54913 22.6416 5.19653 21.2543 5.93642 19.9595C6.6763 18.6647 7.41618 17.3699 8.34104 16.1676C9.17341 14.9653 10.0983 13.8555 11.1156 12.7457C13.1503 10.4335 15.3699 8.39884 17.7746 6.7341C18.9769 5.80925 20.2717 5.06936 21.5665 4.42197C21.7514 4.32948 21.9364 4.23699 22.1214 4.14451C22.3064 4.05202 22.3988 3.95954 22.5838 3.95954C22.9538 3.77457 23.2312 3.58959 23.6012 3.49711C24.341 3.21965 24.9884 2.9422 25.7283 2.75723C27.1156 2.38728 28.5954 2.20231 29.9827 2.2948H30.5376L31.0925 2.38728H31.3699L31.6474 2.47977C31.8324 2.47977 32.0173 2.47977 32.2023 2.47977C32.9422 2.66474 33.6821 2.84971 34.3295 3.03468C35.7168 3.49711 37.0116 4.23699 38.0289 5.25434C39.1387 6.17919 39.9711 7.3815 40.6185 8.76878C41.2659 10.0636 41.7283 11.4509 42.0058 12.9306C42.2832 14.4104 42.3757 15.8902 42.3757 17.3699C42.4682 18.8497 42.3757 20.422 42.1908 21.9017C42.0983 22.6416 42.0058 23.3815 41.9133 24.1214C41.8208 24.8613 41.6358 25.6012 41.5434 26.341C41.4509 26.526 41.5434 26.711 41.7283 26.711C41.9133 26.8035 42.0983 26.711 42.0983 26.526C42.2832 25.7861 42.4682 25.0462 42.5607 24.2139C42.7457 23.474 42.8382 22.7341 42.9306 21.9942C43.1156 20.422 43.3006 18.9422 43.3006 17.3699C43.3006 15.7977 43.1156 14.3179 42.9306 12.7457C42.6532 11.2659 42.1908 9.69364 41.5434 8.30636Z" fill="white"/>
<path d="M51.8114 31.5202C51.7189 31.4277 51.6264 31.4277 51.534 31.5202C50.7016 32.4451 49.7767 33.2775 48.7594 34.1098C47.8345 34.8497 46.8172 35.6821 45.7999 36.3295C45.5224 36.5145 45.2449 36.6069 44.9675 36.7919C44.7825 36.8844 44.5051 36.9769 44.2276 37.0694C43.9501 37.1618 43.6727 37.1618 43.5802 37.0694C43.4877 37.0694 43.4877 36.9769 43.3952 36.8844C43.3027 36.7919 43.3027 36.6994 43.3027 36.5145C43.2103 36.237 43.2103 35.9595 43.2103 35.6821C43.2103 35.4046 43.2103 35.1272 43.2103 34.7572C43.3027 34.2023 43.3027 33.5549 43.3952 32.9075C43.3952 32.5376 43.4877 32.2601 43.4877 31.8902C43.4877 31.6127 43.4877 31.2428 43.3952 30.8728C43.3952 30.6879 43.3027 30.5029 43.2103 30.3179C43.2103 30.2254 43.1178 30.133 43.0253 29.948C42.9328 29.8555 42.8403 29.763 42.6553 29.763C42.3779 29.578 42.1004 29.578 41.9155 29.578C41.823 29.6705 41.7305 29.6705 41.5455 29.6705C41.5455 29.6705 41.5455 29.6705 41.453 29.763C41.3605 29.763 41.3605 29.763 41.2681 29.8555C40.8981 30.0405 40.6207 30.3179 40.4357 30.5029C40.1582 30.7803 39.9733 31.0578 39.7883 31.3353C39.4184 31.8902 39.0484 32.4451 38.6785 33C38.0311 34.1098 37.4762 35.2197 36.9212 36.3295C36.7363 36.7919 36.6438 37.1618 36.4588 37.5318L36.6438 12.9306C36.6438 12.4682 36.2738 12.0983 35.9039 12.1908C35.4415 12.1908 35.0715 12.4682 35.164 12.9306L35.349 40.0289C35.2565 40.3988 35.534 40.7688 35.9039 40.8613C36.2738 41.0462 36.7363 40.8613 36.8288 40.3988C37.2912 39.289 37.7536 38.0867 38.216 36.9769C38.6785 35.7746 39.2334 34.6647 39.7883 33.5549C40.0658 33 40.4357 32.4451 40.7132 31.9827C40.8981 31.7052 41.0831 31.5202 41.2681 31.2428C41.453 31.0578 41.638 30.8728 41.823 30.7803C41.823 30.7803 42.0079 30.6879 42.1004 30.6879C42.1929 30.6879 42.1929 30.6879 42.1929 30.6879C42.1929 30.6879 42.1929 30.6879 42.2854 30.6879C42.2854 30.6879 42.2854 30.6879 42.2854 30.7803C42.3779 30.8728 42.3779 30.9653 42.3779 31.0578C42.4704 31.3353 42.4704 31.6127 42.4704 31.8902C42.4704 32.2601 42.4704 32.5376 42.4704 32.815C42.4704 33.4624 42.3779 34.1098 42.3779 34.7572C42.3779 35.0347 42.3779 35.4046 42.3779 35.6821C42.3779 36.052 42.3779 36.422 42.4704 36.6994C42.5629 36.8844 42.6553 37.0694 42.7478 37.2543C42.7478 37.3468 42.8403 37.4393 42.9328 37.5318C43.0253 37.6243 43.1178 37.7168 43.2103 37.7168C43.3952 37.8092 43.6727 37.9017 43.8577 37.9017C44.0426 37.9017 44.2276 37.8092 44.4126 37.8092C44.69 37.6243 45.06 37.5318 45.3374 37.3468C45.6149 37.1618 45.8923 37.0694 46.1698 36.8844C47.1871 36.1445 48.2045 35.3121 49.1293 34.3873C50.0542 33.5549 50.8866 32.6301 51.8114 31.7052C51.8114 31.7052 51.8114 31.6127 51.8114 31.5202Z" fill="white"/>
<path d="M64.935 31.5202C64.8425 31.4277 64.75 31.3353 64.6575 31.4277C63.6402 32.2601 62.7153 33 61.7905 33.8324C61.2355 34.2023 60.7731 34.5723 60.3107 34.9422C60.0332 35.1272 59.7558 35.3121 59.5708 35.4046C59.2934 35.5896 59.0159 35.6821 58.7384 35.7746C58.461 35.8671 58.276 35.8671 58.091 35.7746C57.9061 35.7746 57.8136 35.5896 57.6286 35.3121C57.5361 35.1272 57.4436 34.8497 57.3512 34.5723C57.2587 34.3873 57.2587 34.2948 57.1662 34.1098C57.1662 34.0173 57.1662 33.9249 57.0737 33.8324C57.0737 33.7399 57.0737 33.6474 56.9812 33.5549C56.8887 33.4624 56.8887 33.4624 56.7962 33.3699C56.7038 33.2775 56.5188 33.2775 56.4263 33.2775C56.3338 33.2775 56.2413 33.2775 56.1488 33.3699C56.0564 33.3699 55.9639 33.3699 55.9639 33.4624C55.7789 33.5549 55.6864 33.6474 55.5014 33.8324C55.3165 34.0173 55.1315 34.2948 54.9465 34.5723C54.5766 35.0347 54.1142 35.4046 53.6517 35.7746C53.2818 36.237 52.7269 36.5145 52.2645 36.6994C52.0795 36.7919 51.802 36.7919 51.6171 36.7919C51.4321 36.7919 51.3396 36.6994 51.2471 36.5145C51.1546 36.3295 51.0621 36.1445 50.9697 35.8671C50.9697 35.6821 50.9697 35.4046 50.9697 35.1272C50.9697 34.5723 51.0621 34.0173 51.3396 33.5549C51.5246 33 51.802 32.5376 52.172 32.0751C52.4494 31.7052 52.8194 31.4277 53.2818 31.4277C53.6517 31.3353 54.2066 31.4277 54.5766 31.7052C54.6691 31.7977 54.854 31.8902 54.9465 32.0751C54.9465 32.0751 54.9465 32.1676 54.9465 32.2601V32.3526C54.854 32.815 55.039 33.185 55.5014 33.3699C55.8714 33.4624 56.3338 33.185 56.4263 32.815C56.5188 32.5376 56.5188 32.2601 56.5188 31.9827C56.4263 31.7052 56.3338 31.5202 56.2413 31.3353C55.9639 30.8728 55.6864 30.5954 55.3165 30.4104C54.9465 30.2254 54.5766 30.0405 54.2066 29.948C53.8367 29.948 53.3743 29.948 53.0043 30.0405C52.6344 30.0405 52.2644 30.2254 51.8945 30.5029C51.5246 30.6879 51.2471 30.9653 51.0621 31.2428C50.6922 31.7977 50.3223 32.4451 50.1373 33.0925C49.8598 33.7399 49.7673 34.3873 49.7673 35.1272C49.6749 35.4046 49.7673 35.7746 49.8598 36.1445C49.9523 36.5145 50.0448 36.8844 50.3223 37.2543C50.5072 37.4393 50.6922 37.5318 50.8772 37.6243C51.0621 37.8092 51.2471 37.8092 51.5246 37.9017C51.8945 37.9017 52.3569 37.8092 52.6344 37.7168C53.0043 37.5318 53.2818 37.3468 53.5592 37.1618C53.8367 36.9769 54.1142 36.7919 54.3916 36.6069C54.854 36.1445 55.224 35.5896 55.6864 35.1272C55.8714 34.8497 56.0564 34.6647 56.2413 34.3873C56.2413 34.3873 56.3338 34.2948 56.3338 34.2023C56.3338 34.2948 56.3338 34.2948 56.4263 34.3873C56.4263 34.4798 56.5188 34.6647 56.5188 34.8497C56.7038 35.1272 56.7962 35.4046 56.9812 35.7746C57.0737 35.8671 57.1662 36.052 57.3512 36.1445C57.4436 36.3295 57.6286 36.422 57.8136 36.5145C57.9986 36.6069 58.276 36.6069 58.461 36.6069C58.646 36.6069 58.8309 36.5145 59.0159 36.5145C59.2934 36.3295 59.6633 36.1445 59.8483 36.052C60.1257 35.8671 60.4032 35.6821 60.6806 35.4971C61.1431 35.0347 61.698 34.6647 62.1604 34.2948C63.0853 33.4624 64.0101 32.6301 64.935 31.7977C65.0275 31.7052 65.0275 31.6127 64.935 31.5202Z" fill="white"/>
<path d="M90.6994 31.5202C89.8671 32.4451 88.9422 33.2775 87.9249 34.1098C87 34.8497 85.9827 35.6821 84.9653 36.3295C84.6879 36.5145 84.4104 36.6069 84.2254 36.7919C83.948 36.8844 83.6705 36.9769 83.3931 37.0694C83.1156 37.1618 82.8382 37.1618 82.7457 37.0694C82.6532 37.0694 82.6532 36.9769 82.5607 36.8844C82.4682 36.7919 82.4682 36.6994 82.4682 36.5145C82.3757 36.237 82.3757 35.9595 82.3757 35.6821C82.3757 35.4046 82.3757 35.1272 82.3757 34.7572C82.4682 34.2023 82.5607 33.5549 82.5607 32.9075C82.5607 32.5376 82.6532 32.2601 82.6532 31.8902C82.6532 31.6127 82.6532 31.2428 82.5607 30.8728C82.5607 30.6879 82.4682 30.5029 82.3757 30.3179C82.3757 30.2254 82.2832 30.133 82.1908 29.948C82.0983 29.8555 82.0058 29.763 81.8208 29.763C81.5434 29.578 81.2659 29.578 81.0809 29.578C80.9884 29.6705 80.896 29.6705 80.8035 29.6705C80.711 29.6705 80.711 29.6705 80.6185 29.763C80.526 29.763 80.526 29.763 80.4335 29.8555C80.0636 30.0405 79.7861 30.3179 79.6012 30.5029C79.3237 30.7803 79.1387 31.0578 78.9538 31.3353C78.5838 31.8902 78.2139 32.4451 77.8439 33C77.1965 34.1098 76.6416 35.2197 76.0867 36.3295C75.9017 36.7919 75.8092 37.1618 75.6243 37.5318L75.8092 12.9306C75.8092 12.4682 75.4393 12.0983 75.0694 12.1908C74.6069 12.1908 74.237 12.4682 74.3295 12.9306V13.3931C73.7746 17 72.8497 20.5145 71.6474 24.0289C71 25.7861 70.2601 27.6358 69.5202 29.3931C68.7803 31.0578 67.948 32.815 67.2081 34.4798C66.9306 34.2023 66.6532 33.9249 66.2832 33.7399C66.1908 33.5549 66.0058 33.4624 65.9133 33.3699C65.7283 33.185 65.6358 33 65.5434 32.9075C65.4509 32.6301 65.3584 32.2601 65.4509 31.9827C65.4509 31.7977 65.5434 31.6127 65.6358 31.4277C65.6358 31.3353 65.6358 31.2428 65.7283 31.1503C65.7283 31.1503 65.7283 31.0578 65.8208 31.0578V30.9653C66.0983 30.5954 66.0983 30.1329 65.7283 29.8555C65.3584 29.6705 64.896 29.6705 64.6185 30.0405L64.526 30.133V30.2254C64.4335 30.3179 64.4335 30.4104 64.341 30.4104C64.341 30.5954 64.2486 30.6879 64.1561 30.8728C64.0636 31.1503 63.9711 31.4277 63.9711 31.7052C63.8786 31.9827 63.8786 32.3526 63.9711 32.6301C64.0636 33 64.1561 33.2775 64.2486 33.5549C64.4335 33.8324 64.6185 34.1098 64.8035 34.2948C65.0809 34.4798 65.2659 34.6647 65.5434 34.8497C65.9133 35.1272 66.1908 35.4046 66.5607 35.6821C66.5607 35.7746 66.5607 35.7746 66.6532 35.7746C66.3757 36.3295 66.1908 36.8844 66.0058 37.3468C65.8208 37.8092 65.6358 38.2717 65.4509 38.7341C65.3584 39.289 65.2659 39.7514 65.1734 40.3064C65.1734 40.4913 65.0809 40.7688 65.1734 41.0462C65.1734 41.3237 65.1734 41.6936 65.3584 41.9711C65.4509 42.2486 65.6358 42.526 65.9133 42.711C66.0983 42.896 66.3757 43.0809 66.7457 43.1734C66.9306 43.1734 67.1156 43.1734 67.3006 43.0809C67.4855 43.0809 67.6705 42.9884 67.763 42.896C68.0405 42.711 68.3179 42.4335 68.4104 42.2486C68.7803 41.7861 68.9653 41.2312 69.1503 40.7688C69.3353 39.659 69.3353 38.5491 69.0578 37.5318C68.7803 36.6994 68.4104 35.8671 67.763 35.1272C67.8555 35.0347 67.8555 35.0347 67.8555 35.0347C68.5954 33.185 69.4277 31.4277 70.0751 29.6705C70.815 27.8208 71.5549 25.9711 72.1098 24.1214C73.1272 21.3468 73.8671 18.3873 74.3295 15.4277L74.5145 40.0289C74.422 40.3988 74.6994 40.7688 75.0694 40.8613C75.4393 41.0462 75.9017 40.8613 75.9942 40.3988C76.4566 39.289 76.9191 38.0867 77.3815 36.9769C77.8439 35.7746 78.3988 34.6647 78.9538 33.5549C79.2312 33 79.6012 32.4451 79.8786 31.9827C80.0636 31.7052 80.2486 31.5202 80.4335 31.2428C80.6185 31.0578 80.8035 30.8728 80.9884 30.7803C80.9884 30.7803 81.1734 30.6879 81.2659 30.6879C81.3584 30.6879 81.3584 30.6879 81.3584 30.6879C81.3584 30.6879 81.3584 30.6879 81.4509 30.6879C81.4509 30.6879 81.4509 30.6879 81.4509 30.7803C81.5434 30.8728 81.5434 30.9653 81.5434 31.0578C81.6358 31.3353 81.6358 31.6127 81.6358 31.8902C81.6358 32.2601 81.6358 32.5376 81.6358 32.815C81.6358 33.4624 81.5434 34.1098 81.5434 34.7572C81.5434 35.0347 81.5434 35.4046 81.5434 35.6821C81.5434 36.052 81.5434 36.422 81.6358 36.6994C81.7283 36.8844 81.8208 37.0694 81.9133 37.2543C81.9133 37.3468 82.0058 37.4393 82.0983 37.5318C82.1908 37.6243 82.2832 37.7168 82.3757 37.7168C82.5607 37.8092 82.8381 37.9017 83.0231 37.9017C83.2081 37.9017 83.3931 37.8092 83.578 37.8092C83.948 37.6243 84.2254 37.5318 84.5029 37.3468C84.7803 37.1618 85.0578 37.0694 85.3353 36.8844C86.3526 36.1445 87.3699 35.3121 88.2948 34.3873C89.2197 33.5549 90.052 32.6301 90.9769 31.7052C90.9769 31.7052 90.9769 31.6127 90.9769 31.5202C90.8844 31.4277 90.7919 31.4277 90.6994 31.5202ZM67.8555 37.9017C68.1329 38.7341 68.2254 39.659 68.0405 40.4913C67.948 40.9538 67.763 41.3237 67.578 41.6936C67.4855 41.7861 67.3931 41.9711 67.2081 42.0636C67.1156 42.1561 67.0231 42.1561 66.9306 42.1561C66.7457 42.1561 66.6532 42.0636 66.4682 41.9711C66.3757 41.8786 66.2832 41.6936 66.1908 41.6012C66.0058 41.2312 66.0058 40.7688 66.0983 40.3988C66.0983 39.9364 66.1908 39.474 66.3757 39.0116C66.4682 38.5491 66.6532 38.0867 66.7457 37.7168C66.9306 37.2543 67.0231 36.8844 67.2081 36.5145C67.4855 36.9769 67.6705 37.4393 67.8555 37.9017Z" fill="white"/>
<path d="M100.249 31.5202C100.156 31.4277 100.064 31.4277 100.064 31.5202C98.9538 32.4451 97.9364 33.3699 96.8266 34.2023C96.2717 34.6647 95.7168 35.0347 95.1618 35.4046C94.6069 35.8671 93.9595 36.237 93.4046 36.5145C93.1272 36.6994 92.7572 36.7919 92.4798 36.8844C92.2948 36.9769 92.2023 36.9769 92.0173 37.0694C91.9249 37.0694 91.8324 37.0694 91.8324 37.0694H91.6474C91.5549 37.0694 91.5549 37.0694 91.5549 36.9769C91.5549 36.9769 91.4624 36.9769 91.4624 36.8844C91.4624 36.7919 91.3699 36.6994 91.3699 36.5145C91.2775 36.237 91.185 35.9595 91.185 35.5896C91.185 34.9422 91.185 34.2948 91.2775 33.6474C91.2775 33.2775 91.2775 32.9075 91.3699 32.5376C91.3699 32.2601 91.4624 31.8902 91.4624 31.6127C91.4624 31.5202 91.4624 31.5202 91.4624 31.5202C91.5549 31.0578 91.185 30.6879 90.7225 30.6879C90.3526 30.6879 89.9827 30.9653 89.9827 31.4277C89.9827 31.7977 89.9827 32.1676 89.9827 32.5376C89.9827 32.815 89.9827 33.185 89.9827 33.5549C89.9827 34.2948 90.0751 35.0347 90.1676 35.7746C90.2601 36.1445 90.3526 36.5145 90.4451 36.8844C90.5376 37.0694 90.6301 37.2543 90.815 37.4393C90.9075 37.5318 91 37.6243 91.0925 37.7168C91.2775 37.8092 91.3699 37.8092 91.5549 37.8092H91.8324C92.0173 37.8092 92.1098 37.8092 92.2023 37.8092C92.3873 37.7168 92.5723 37.6243 92.7572 37.6243C93.0347 37.4393 93.4046 37.2543 93.6821 37.0694C94.3295 36.7919 94.8844 36.3295 95.5318 35.9595C96.0867 35.4971 96.6416 35.0347 97.104 34.5723C98.2139 33.6474 99.2312 32.7225 100.249 31.7052C100.341 31.7052 100.341 31.6127 100.249 31.5202ZM90.0751 28.7457C90.0751 28.8382 90.0751 29.0231 90.0751 29.1156C90.1676 29.3931 90.3526 29.578 90.6301 29.578C91 29.6705 91.2775 29.3931 91.2775 29.1156V29.0231C91.2775 28.9306 91.2775 28.8382 91.2775 28.7457C91.3699 28.6532 91.3699 28.4682 91.3699 28.3757C91.3699 28.3757 91.3699 28.2832 91.4624 28.1908C91.7399 27.9133 91.7399 27.3584 91.4624 27.0809C91.185 26.8035 90.6301 26.8035 90.3526 27.0809C90.2601 27.1734 90.2601 27.2659 90.1676 27.3584C90.1676 27.3584 90.1676 27.4509 90.1676 27.5434C90.0751 27.5434 90.0751 27.6358 90.0751 27.6358C90.0751 27.7283 90.0751 27.7283 90.0751 27.8208C89.9827 28.0058 89.9827 28.1908 89.9827 28.2832C89.9827 28.4682 90.0751 28.5607 90.0751 28.7457Z" fill="white"/>
<path d="M41.5434 8.30636C41.1734 7.56647 40.8035 6.82659 40.341 6.17919C39.8786 5.53179 39.4162 4.97688 38.7688 4.42197C37.659 3.31214 36.1792 2.47977 34.6994 1.92485C33.9595 1.6474 33.2197 1.46243 32.4798 1.27746C32.2023 1.27746 32.0173 1.27746 31.8324 1.18497H31.5549L31.2775 1.09248H30.7225L30.0751 1C29.3353 1 28.5029 0.999999 27.6705 1.09248C27.4856 1.09248 27.3006 1.18497 27.1156 1.18497C26.9306 1.18497 26.7457 1.18497 26.5607 1.27746L25.9133 1.36994L25.3584 1.55491C24.6185 1.73988 23.8786 1.92485 23.1387 2.20231C22.7688 2.38728 22.3988 2.57225 22.0289 2.66474C21.8439 2.75722 21.659 2.84971 21.474 2.9422C21.3815 3.03468 21.1965 3.12717 21.0116 3.21965C19.6243 3.86705 18.237 4.69942 16.9422 5.53179C14.4451 7.3815 12.1329 9.41618 10.0058 11.7283C8.98844 12.8381 8.06358 14.0405 7.13873 15.3353C6.21387 16.5376 5.3815 17.8324 4.64162 19.2197C3.80925 20.6069 3.16185 21.9942 2.60694 23.474C2.05202 24.8613 1.5896 26.4335 1.31214 28.0058C1.03468 29.4856 0.942197 31.1503 1.03468 32.7225C1.12717 33.5549 1.31214 34.2948 1.49711 35.1272C1.68208 35.8671 2.05202 36.6069 2.42197 37.3468L2.69942 37.9017C2.79191 38.0867 2.88439 38.2717 2.97688 38.3642C3.06936 38.4566 3.06936 38.5491 3.16185 38.6416L3.53179 39.1965C3.62428 39.1965 3.62428 39.289 3.71676 39.3815L4.08671 39.8439C4.27168 40.0289 4.36416 40.1214 4.54913 40.3064L4.7341 40.4913C4.82659 40.5838 4.91908 40.6763 4.91908 40.7688L5.3815 41.1387C5.56647 41.2312 5.75145 41.4162 5.84393 41.5087L6.12139 41.6936C6.21387 41.7861 6.30636 41.7861 6.39884 41.8786C6.6763 42.0636 7.04624 42.341 7.3237 42.526C8.06358 42.896 8.71098 43.2659 9.45087 43.6358C10.8382 44.2832 12.3179 44.8382 13.7052 45.3931C15.185 45.8555 16.6647 46.3179 18.052 46.7803C21.0116 47.7977 23.8786 48.6301 26.6532 49.8324C27.3006 50.1098 27.948 50.4798 28.5954 50.8497C29.2428 51.1272 29.8902 51.5896 30.4451 51.9595C31 52.422 31.5549 52.8844 31.9249 53.4393C32.3873 53.9942 32.5723 54.5491 32.6647 55.1965C32.7572 55.5665 32.7572 55.8439 32.6647 56.2139C32.5723 56.4913 32.4798 56.7688 32.3873 57.1387C32.2023 57.4162 32.0173 57.6936 31.8324 57.9711C31.6474 58.2486 31.3699 58.526 31.185 58.8035C30.1676 59.9133 28.9653 60.7457 27.763 61.578C26.4682 62.3179 25.1734 62.9653 23.6936 63.4277C23.0462 63.7052 22.3064 63.8902 21.5665 63.9827C21.1965 64.0751 20.8266 64.0751 20.5491 64.0751C20.1792 64.0751 19.8092 64.0751 19.4393 64.0751C18.7919 63.9827 18.052 63.7977 17.5896 63.3353C17.3121 63.1503 17.1272 62.8728 17.0347 62.5029C16.8497 62.2254 16.7572 61.948 16.7572 61.578C16.6647 61.2081 16.6647 60.8382 16.6647 60.4682C16.6647 60.2832 16.6647 60.0983 16.6647 60.0058C16.7572 59.8208 16.7572 59.6358 16.7572 59.4509C16.9422 58.711 17.1272 57.9711 17.3121 57.2312C17.4046 57.1387 17.3121 56.9538 17.1272 56.8613C17.0347 56.7688 16.8497 56.8613 16.7572 57.0462C16.4798 57.7861 16.2948 58.526 16.1098 59.2659C16.0173 59.4509 16.0173 59.6358 16.0173 59.9133C15.9249 60.0983 15.9249 60.2832 15.9249 60.4682C15.9249 60.8382 15.9249 61.3006 15.9249 61.6705C16.0173 62.0405 16.1098 62.5029 16.2948 62.8728C16.4798 63.2428 16.7572 63.6127 17.0347 63.8902C17.4046 64.2601 17.7746 64.4451 18.1445 64.6301C18.5145 64.815 18.8844 64.9075 19.3468 64.9075C19.7168 65 20.1792 65 20.5491 65C20.9191 65 21.3815 65 21.7514 64.9075C22.4913 64.815 23.3237 64.6301 24.0636 64.4451C24.8035 64.1676 25.5434 63.8902 26.1908 63.6127C26.9306 63.2428 27.6705 62.8728 28.3179 62.5029C29.6127 61.6705 30.9075 60.7457 32.0173 59.6358C32.2948 59.3584 32.5723 58.9884 32.8497 58.711C33.0347 58.341 33.3121 57.9711 33.4971 57.6012C33.6821 57.2312 33.7746 56.8613 33.8671 56.3988C33.9595 56.3064 33.9595 56.2139 33.9595 56.0289C33.9595 55.9364 33.9595 55.8439 33.9595 55.7514C33.9595 55.5665 33.9595 55.289 33.9595 55.104C33.8671 54.1792 33.4971 53.3468 33.0347 52.6994C32.4798 51.9595 31.9249 51.4046 31.2775 50.9422C30.6301 50.4798 29.9827 50.0173 29.2428 49.6474C28.5954 49.2775 27.8555 48.9075 27.2081 48.6301C25.7283 47.9827 24.341 47.4277 22.8613 46.8728C21.474 46.4104 19.9942 45.948 18.5145 45.3931C17.1272 44.9306 15.6474 44.4682 14.2601 43.9133C12.8728 43.4509 11.3931 42.896 10.0983 42.2486C9.45087 41.9711 8.80347 41.6012 8.15607 41.2312C7.87861 41.0462 7.50867 40.8613 7.23121 40.5838C7.13873 40.5838 7.04624 40.4913 7.04624 40.4913L6.76879 40.3064C6.6763 40.2139 6.49133 40.1214 6.39884 39.9364L6.0289 39.5665C5.93642 39.5665 5.84393 39.474 5.75145 39.3815L5.56647 39.1965C5.47399 39.104 5.3815 39.0116 5.28902 38.8266L4.91908 38.4566C4.82659 38.3642 4.82659 38.2717 4.7341 38.2717L4.54913 37.9942L4.45665 37.8092C4.36416 37.7168 4.36416 37.6243 4.27168 37.5318C4.17919 37.4393 4.08671 37.2543 3.99422 37.1618L3.71676 36.6994C3.43931 36.052 3.16185 35.4046 2.97688 34.6647C2.79191 34.0173 2.69942 33.2775 2.60694 32.5376C2.42197 31.1503 2.51445 29.6705 2.79191 28.1908C3.06936 26.8035 3.53179 25.4162 3.99422 24.0289C4.54913 22.6416 5.19653 21.2543 5.93642 19.9595C6.6763 18.6647 7.41618 17.3699 8.34104 16.1676C9.17341 14.9653 10.0983 13.8555 11.1156 12.7457C13.1503 10.4335 15.3699 8.39884 17.7746 6.7341C18.9769 5.80925 20.2717 5.06936 21.5665 4.42197C21.7514 4.32948 21.9364 4.23699 22.1214 4.14451C22.3064 4.05202 22.3988 3.95954 22.5838 3.95954C22.9538 3.77457 23.2312 3.58959 23.6012 3.49711C24.341 3.21965 24.9884 2.9422 25.7283 2.75723C27.1156 2.38728 28.5954 2.20231 29.9827 2.2948H30.5376L31.0925 2.38728H31.3699L31.6474 2.47977C31.8324 2.47977 32.0173 2.47977 32.2023 2.47977C32.9422 2.66474 33.6821 2.84971 34.3295 3.03468C35.7168 3.49711 37.0116 4.23699 38.0289 5.25434C39.1387 6.17919 39.9711 7.3815 40.6185 8.76878C41.2659 10.0636 41.7283 11.4509 42.0058 12.9306C42.2832 14.4104 42.3757 15.8902 42.3757 17.3699C42.4682 18.8497 42.3757 20.422 42.1908 21.9017C42.0983 22.6416 42.0058 23.3815 41.9133 24.1214C41.8208 24.8613 41.6358 25.6012 41.5434 26.341C41.4509 26.526 41.5434 26.711 41.7283 26.711C41.9133 26.8035 42.0983 26.711 42.0983 26.526C42.2832 25.7861 42.4682 25.0462 42.5607 24.2139C42.7457 23.474 42.8382 22.7341 42.9306 21.9942C43.1156 20.422 43.3006 18.9422 43.3006 17.3699C43.3006 15.7977 43.1156 14.3179 42.9306 12.7457C42.6532 11.2659 42.1908 9.69364 41.5434 8.30636Z" stroke="white" mask="url(#path-1-outside-1_333_1253)"/>
<path d="M51.8114 31.5202C51.7189 31.4277 51.6264 31.4277 51.534 31.5202C50.7016 32.4451 49.7767 33.2775 48.7594 34.1098C47.8345 34.8497 46.8172 35.6821 45.7999 36.3295C45.5224 36.5145 45.2449 36.6069 44.9675 36.7919C44.7825 36.8844 44.5051 36.9769 44.2276 37.0694C43.9501 37.1618 43.6727 37.1618 43.5802 37.0694C43.4877 37.0694 43.4877 36.9769 43.3952 36.8844C43.3027 36.7919 43.3027 36.6994 43.3027 36.5145C43.2103 36.237 43.2103 35.9595 43.2103 35.6821C43.2103 35.4046 43.2103 35.1272 43.2103 34.7572C43.3027 34.2023 43.3027 33.5549 43.3952 32.9075C43.3952 32.5376 43.4877 32.2601 43.4877 31.8902C43.4877 31.6127 43.4877 31.2428 43.3952 30.8728C43.3952 30.6879 43.3027 30.5029 43.2103 30.3179C43.2103 30.2254 43.1178 30.133 43.0253 29.948C42.9328 29.8555 42.8403 29.763 42.6553 29.763C42.3779 29.578 42.1004 29.578 41.9155 29.578C41.823 29.6705 41.7305 29.6705 41.5455 29.6705C41.5455 29.6705 41.5455 29.6705 41.453 29.763C41.3605 29.763 41.3605 29.763 41.2681 29.8555C40.8981 30.0405 40.6207 30.3179 40.4357 30.5029C40.1582 30.7803 39.9733 31.0578 39.7883 31.3353C39.4184 31.8902 39.0484 32.4451 38.6785 33C38.0311 34.1098 37.4762 35.2197 36.9212 36.3295C36.7363 36.7919 36.6438 37.1618 36.4588 37.5318L36.6438 12.9306C36.6438 12.4682 36.2738 12.0983 35.9039 12.1908C35.4415 12.1908 35.0715 12.4682 35.164 12.9306L35.349 40.0289C35.2565 40.3988 35.534 40.7688 35.9039 40.8613C36.2738 41.0462 36.7363 40.8613 36.8288 40.3988C37.2912 39.289 37.7536 38.0867 38.216 36.9769C38.6785 35.7746 39.2334 34.6647 39.7883 33.5549C40.0658 33 40.4357 32.4451 40.7132 31.9827C40.8981 31.7052 41.0831 31.5202 41.2681 31.2428C41.453 31.0578 41.638 30.8728 41.823 30.7803C41.823 30.7803 42.0079 30.6879 42.1004 30.6879C42.1929 30.6879 42.1929 30.6879 42.1929 30.6879C42.1929 30.6879 42.1929 30.6879 42.2854 30.6879C42.2854 30.6879 42.2854 30.6879 42.2854 30.7803C42.3779 30.8728 42.3779 30.9653 42.3779 31.0578C42.4704 31.3353 42.4704 31.6127 42.4704 31.8902C42.4704 32.2601 42.4704 32.5376 42.4704 32.815C42.4704 33.4624 42.3779 34.1098 42.3779 34.7572C42.3779 35.0347 42.3779 35.4046 42.3779 35.6821C42.3779 36.052 42.3779 36.422 42.4704 36.6994C42.5629 36.8844 42.6553 37.0694 42.7478 37.2543C42.7478 37.3468 42.8403 37.4393 42.9328 37.5318C43.0253 37.6243 43.1178 37.7168 43.2103 37.7168C43.3952 37.8092 43.6727 37.9017 43.8577 37.9017C44.0426 37.9017 44.2276 37.8092 44.4126 37.8092C44.69 37.6243 45.06 37.5318 45.3374 37.3468C45.6149 37.1618 45.8923 37.0694 46.1698 36.8844C47.1871 36.1445 48.2045 35.3121 49.1293 34.3873C50.0542 33.5549 50.8866 32.6301 51.8114 31.7052C51.8114 31.7052 51.8114 31.6127 51.8114 31.5202Z" stroke="white" mask="url(#path-1-outside-1_333_1253)"/>
<path d="M64.935 31.5202C64.8425 31.4277 64.75 31.3353 64.6575 31.4277C63.6402 32.2601 62.7153 33 61.7905 33.8324C61.2355 34.2023 60.7731 34.5723 60.3107 34.9422C60.0332 35.1272 59.7558 35.3121 59.5708 35.4046C59.2934 35.5896 59.0159 35.6821 58.7384 35.7746C58.461 35.8671 58.276 35.8671 58.091 35.7746C57.9061 35.7746 57.8136 35.5896 57.6286 35.3121C57.5361 35.1272 57.4436 34.8497 57.3512 34.5723C57.2587 34.3873 57.2587 34.2948 57.1662 34.1098C57.1662 34.0173 57.1662 33.9249 57.0737 33.8324C57.0737 33.7399 57.0737 33.6474 56.9812 33.5549C56.8887 33.4624 56.8887 33.4624 56.7962 33.3699C56.7038 33.2775 56.5188 33.2775 56.4263 33.2775C56.3338 33.2775 56.2413 33.2775 56.1488 33.3699C56.0564 33.3699 55.9639 33.3699 55.9639 33.4624C55.7789 33.5549 55.6864 33.6474 55.5014 33.8324C55.3165 34.0173 55.1315 34.2948 54.9465 34.5723C54.5766 35.0347 54.1142 35.4046 53.6517 35.7746C53.2818 36.237 52.7269 36.5145 52.2645 36.6994C52.0795 36.7919 51.802 36.7919 51.6171 36.7919C51.4321 36.7919 51.3396 36.6994 51.2471 36.5145C51.1546 36.3295 51.0621 36.1445 50.9697 35.8671C50.9697 35.6821 50.9697 35.4046 50.9697 35.1272C50.9697 34.5723 51.0621 34.0173 51.3396 33.5549C51.5246 33 51.802 32.5376 52.172 32.0751C52.4494 31.7052 52.8194 31.4277 53.2818 31.4277C53.6517 31.3353 54.2066 31.4277 54.5766 31.7052C54.6691 31.7977 54.854 31.8902 54.9465 32.0751C54.9465 32.0751 54.9465 32.1676 54.9465 32.2601V32.3526C54.854 32.815 55.039 33.185 55.5014 33.3699C55.8714 33.4624 56.3338 33.185 56.4263 32.815C56.5188 32.5376 56.5188 32.2601 56.5188 31.9827C56.4263 31.7052 56.3338 31.5202 56.2413 31.3353C55.9639 30.8728 55.6864 30.5954 55.3165 30.4104C54.9465 30.2254 54.5766 30.0405 54.2066 29.948C53.8367 29.948 53.3743 29.948 53.0043 30.0405C52.6344 30.0405 52.2644 30.2254 51.8945 30.5029C51.5246 30.6879 51.2471 30.9653 51.0621 31.2428C50.6922 31.7977 50.3223 32.4451 50.1373 33.0925C49.8598 33.7399 49.7673 34.3873 49.7673 35.1272C49.6749 35.4046 49.7673 35.7746 49.8598 36.1445C49.9523 36.5145 50.0448 36.8844 50.3223 37.2543C50.5072 37.4393 50.6922 37.5318 50.8772 37.6243C51.0621 37.8092 51.2471 37.8092 51.5246 37.9017C51.8945 37.9017 52.3569 37.8092 52.6344 37.7168C53.0043 37.5318 53.2818 37.3468 53.5592 37.1618C53.8367 36.9769 54.1142 36.7919 54.3916 36.6069C54.854 36.1445 55.224 35.5896 55.6864 35.1272C55.8714 34.8497 56.0564 34.6647 56.2413 34.3873C56.2413 34.3873 56.3338 34.2948 56.3338 34.2023C56.3338 34.2948 56.3338 34.2948 56.4263 34.3873C56.4263 34.4798 56.5188 34.6647 56.5188 34.8497C56.7038 35.1272 56.7962 35.4046 56.9812 35.7746C57.0737 35.8671 57.1662 36.052 57.3512 36.1445C57.4436 36.3295 57.6286 36.422 57.8136 36.5145C57.9986 36.6069 58.276 36.6069 58.461 36.6069C58.646 36.6069 58.8309 36.5145 59.0159 36.5145C59.2934 36.3295 59.6633 36.1445 59.8483 36.052C60.1257 35.8671 60.4032 35.6821 60.6806 35.4971C61.1431 35.0347 61.698 34.6647 62.1604 34.2948C63.0853 33.4624 64.0101 32.6301 64.935 31.7977C65.0275 31.7052 65.0275 31.6127 64.935 31.5202Z" stroke="white" mask="url(#path-1-outside-1_333_1253)"/>
<path d="M90.6994 31.5202C89.8671 32.4451 88.9422 33.2775 87.9249 34.1098C87 34.8497 85.9827 35.6821 84.9653 36.3295C84.6879 36.5145 84.4104 36.6069 84.2254 36.7919C83.948 36.8844 83.6705 36.9769 83.3931 37.0694C83.1156 37.1618 82.8382 37.1618 82.7457 37.0694C82.6532 37.0694 82.6532 36.9769 82.5607 36.8844C82.4682 36.7919 82.4682 36.6994 82.4682 36.5145C82.3757 36.237 82.3757 35.9595 82.3757 35.6821C82.3757 35.4046 82.3757 35.1272 82.3757 34.7572C82.4682 34.2023 82.5607 33.5549 82.5607 32.9075C82.5607 32.5376 82.6532 32.2601 82.6532 31.8902C82.6532 31.6127 82.6532 31.2428 82.5607 30.8728C82.5607 30.6879 82.4682 30.5029 82.3757 30.3179C82.3757 30.2254 82.2832 30.133 82.1908 29.948C82.0983 29.8555 82.0058 29.763 81.8208 29.763C81.5434 29.578 81.2659 29.578 81.0809 29.578C80.9884 29.6705 80.896 29.6705 80.8035 29.6705C80.711 29.6705 80.711 29.6705 80.6185 29.763C80.526 29.763 80.526 29.763 80.4335 29.8555C80.0636 30.0405 79.7861 30.3179 79.6012 30.5029C79.3237 30.7803 79.1387 31.0578 78.9538 31.3353C78.5838 31.8902 78.2139 32.4451 77.8439 33C77.1965 34.1098 76.6416 35.2197 76.0867 36.3295C75.9017 36.7919 75.8092 37.1618 75.6243 37.5318L75.8092 12.9306C75.8092 12.4682 75.4393 12.0983 75.0694 12.1908C74.6069 12.1908 74.237 12.4682 74.3295 12.9306V13.3931C73.7746 17 72.8497 20.5145 71.6474 24.0289C71 25.7861 70.2601 27.6358 69.5202 29.3931C68.7803 31.0578 67.948 32.815 67.2081 34.4798C66.9306 34.2023 66.6532 33.9249 66.2832 33.7399C66.1908 33.5549 66.0058 33.4624 65.9133 33.3699C65.7283 33.185 65.6358 33 65.5434 32.9075C65.4509 32.6301 65.3584 32.2601 65.4509 31.9827C65.4509 31.7977 65.5434 31.6127 65.6358 31.4277C65.6358 31.3353 65.6358 31.2428 65.7283 31.1503C65.7283 31.1503 65.7283 31.0578 65.8208 31.0578V30.9653C66.0983 30.5954 66.0983 30.1329 65.7283 29.8555C65.3584 29.6705 64.896 29.6705 64.6185 30.0405L64.526 30.133V30.2254C64.4335 30.3179 64.4335 30.4104 64.341 30.4104C64.341 30.5954 64.2486 30.6879 64.1561 30.8728C64.0636 31.1503 63.9711 31.4277 63.9711 31.7052C63.8786 31.9827 63.8786 32.3526 63.9711 32.6301C64.0636 33 64.1561 33.2775 64.2486 33.5549C64.4335 33.8324 64.6185 34.1098 64.8035 34.2948C65.0809 34.4798 65.2659 34.6647 65.5434 34.8497C65.9133 35.1272 66.1908 35.4046 66.5607 35.6821C66.5607 35.7746 66.5607 35.7746 66.6532 35.7746C66.3757 36.3295 66.1908 36.8844 66.0058 37.3468C65.8208 37.8092 65.6358 38.2717 65.4509 38.7341C65.3584 39.289 65.2659 39.7514 65.1734 40.3064C65.1734 40.4913 65.0809 40.7688 65.1734 41.0462C65.1734 41.3237 65.1734 41.6936 65.3584 41.9711C65.4509 42.2486 65.6358 42.526 65.9133 42.711C66.0983 42.896 66.3757 43.0809 66.7457 43.1734C66.9306 43.1734 67.1156 43.1734 67.3006 43.0809C67.4855 43.0809 67.6705 42.9884 67.763 42.896C68.0405 42.711 68.3179 42.4335 68.4104 42.2486C68.7803 41.7861 68.9653 41.2312 69.1503 40.7688C69.3353 39.659 69.3353 38.5491 69.0578 37.5318C68.7803 36.6994 68.4104 35.8671 67.763 35.1272C67.8555 35.0347 67.8555 35.0347 67.8555 35.0347C68.5954 33.185 69.4277 31.4277 70.0751 29.6705C70.815 27.8208 71.5549 25.9711 72.1098 24.1214C73.1272 21.3468 73.8671 18.3873 74.3295 15.4277L74.5145 40.0289C74.422 40.3988 74.6994 40.7688 75.0694 40.8613C75.4393 41.0462 75.9017 40.8613 75.9942 40.3988C76.4566 39.289 76.9191 38.0867 77.3815 36.9769C77.8439 35.7746 78.3988 34.6647 78.9538 33.5549C79.2312 33 79.6012 32.4451 79.8786 31.9827C80.0636 31.7052 80.2486 31.5202 80.4335 31.2428C80.6185 31.0578 80.8035 30.8728 80.9884 30.7803C80.9884 30.7803 81.1734 30.6879 81.2659 30.6879C81.3584 30.6879 81.3584 30.6879 81.3584 30.6879C81.3584 30.6879 81.3584 30.6879 81.4509 30.6879C81.4509 30.6879 81.4509 30.6879 81.4509 30.7803C81.5434 30.8728 81.5434 30.9653 81.5434 31.0578C81.6358 31.3353 81.6358 31.6127 81.6358 31.8902C81.6358 32.2601 81.6358 32.5376 81.6358 32.815C81.6358 33.4624 81.5434 34.1098 81.5434 34.7572C81.5434 35.0347 81.5434 35.4046 81.5434 35.6821C81.5434 36.052 81.5434 36.422 81.6358 36.6994C81.7283 36.8844 81.8208 37.0694 81.9133 37.2543C81.9133 37.3468 82.0058 37.4393 82.0983 37.5318C82.1908 37.6243 82.2832 37.7168 82.3757 37.7168C82.5607 37.8092 82.8381 37.9017 83.0231 37.9017C83.2081 37.9017 83.3931 37.8092 83.578 37.8092C83.948 37.6243 84.2254 37.5318 84.5029 37.3468C84.7803 37.1618 85.0578 37.0694 85.3353 36.8844C86.3526 36.1445 87.3699 35.3121 88.2948 34.3873C89.2197 33.5549 90.052 32.6301 90.9769 31.7052C90.9769 31.7052 90.9769 31.6127 90.9769 31.5202C90.8844 31.4277 90.7919 31.4277 90.6994 31.5202ZM67.8555 37.9017C68.1329 38.7341 68.2254 39.659 68.0405 40.4913C67.948 40.9538 67.763 41.3237 67.578 41.6936C67.4855 41.7861 67.3931 41.9711 67.2081 42.0636C67.1156 42.1561 67.0231 42.1561 66.9306 42.1561C66.7457 42.1561 66.6532 42.0636 66.4682 41.9711C66.3757 41.8786 66.2832 41.6936 66.1908 41.6012C66.0058 41.2312 66.0058 40.7688 66.0983 40.3988C66.0983 39.9364 66.1908 39.474 66.3757 39.0116C66.4682 38.5491 66.6532 38.0867 66.7457 37.7168C66.9306 37.2543 67.0231 36.8844 67.2081 36.5145C67.4855 36.9769 67.6705 37.4393 67.8555 37.9017Z" stroke="white" mask="url(#path-1-outside-1_333_1253)"/>
<path d="M100.249 31.5202C100.156 31.4277 100.064 31.4277 100.064 31.5202C98.9538 32.4451 97.9364 33.3699 96.8266 34.2023C96.2717 34.6647 95.7168 35.0347 95.1618 35.4046C94.6069 35.8671 93.9595 36.237 93.4046 36.5145C93.1272 36.6994 92.7572 36.7919 92.4798 36.8844C92.2948 36.9769 92.2023 36.9769 92.0173 37.0694C91.9249 37.0694 91.8324 37.0694 91.8324 37.0694H91.6474C91.5549 37.0694 91.5549 37.0694 91.5549 36.9769C91.5549 36.9769 91.4624 36.9769 91.4624 36.8844C91.4624 36.7919 91.3699 36.6994 91.3699 36.5145C91.2775 36.237 91.185 35.9595 91.185 35.5896C91.185 34.9422 91.185 34.2948 91.2775 33.6474C91.2775 33.2775 91.2775 32.9075 91.3699 32.5376C91.3699 32.2601 91.4624 31.8902 91.4624 31.6127C91.4624 31.5202 91.4624 31.5202 91.4624 31.5202C91.5549 31.0578 91.185 30.6879 90.7225 30.6879C90.3526 30.6879 89.9827 30.9653 89.9827 31.4277C89.9827 31.7977 89.9827 32.1676 89.9827 32.5376C89.9827 32.815 89.9827 33.185 89.9827 33.5549C89.9827 34.2948 90.0751 35.0347 90.1676 35.7746C90.2601 36.1445 90.3526 36.5145 90.4451 36.8844C90.5376 37.0694 90.6301 37.2543 90.815 37.4393C90.9075 37.5318 91 37.6243 91.0925 37.7168C91.2775 37.8092 91.3699 37.8092 91.5549 37.8092H91.8324C92.0173 37.8092 92.1098 37.8092 92.2023 37.8092C92.3873 37.7168 92.5723 37.6243 92.7572 37.6243C93.0347 37.4393 93.4046 37.2543 93.6821 37.0694C94.3295 36.7919 94.8844 36.3295 95.5318 35.9595C96.0867 35.4971 96.6416 35.0347 97.104 34.5723C98.2139 33.6474 99.2312 32.7225 100.249 31.7052C100.341 31.7052 100.341 31.6127 100.249 31.5202ZM90.0751 28.7457C90.0751 28.8382 90.0751 29.0231 90.0751 29.1156C90.1676 29.3931 90.3526 29.578 90.6301 29.578C91 29.6705 91.2775 29.3931 91.2775 29.1156V29.0231C91.2775 28.9306 91.2775 28.8382 91.2775 28.7457C91.3699 28.6532 91.3699 28.4682 91.3699 28.3757C91.3699 28.3757 91.3699 28.2832 91.4624 28.1908C91.7399 27.9133 91.7399 27.3584 91.4624 27.0809C91.185 26.8035 90.6301 26.8035 90.3526 27.0809C90.2601 27.1734 90.2601 27.2659 90.1676 27.3584C90.1676 27.3584 90.1676 27.4509 90.1676 27.5434C90.0751 27.5434 90.0751 27.6358 90.0751 27.6358C90.0751 27.7283 90.0751 27.7283 90.0751 27.8208C89.9827 28.0058 89.9827 28.1908 89.9827 28.2832C89.9827 28.4682 90.0751 28.5607 90.0751 28.7457Z" stroke="white" mask="url(#path-1-outside-1_333_1253)"/>
</svg>
